<svg width="348" height="418" viewBox="0 0 348 418" fill="none" xmlns="http://www.w3.org/2000/svg">
<g filter="url(#filter0_d)">
<rect x="10" y="10" width="328" height="398" rx="5" fill="white"/>
</g>
<path d="M241.829 374H236.176V364.006H241.829V365.387H237.81V368.107H241.576V369.475H237.81V372.612H241.829V374ZM249.759 371.286C249.759 372.175 249.438 372.872 248.795 373.378C248.152 373.884 247.266 374.137 246.136 374.137C245.006 374.137 244.08 373.961 243.36 373.61V372.065C243.816 372.28 244.299 372.448 244.81 372.571C245.325 372.694 245.803 372.756 246.245 372.756C246.892 372.756 247.368 372.633 247.674 372.387C247.984 372.141 248.139 371.81 248.139 371.396C248.139 371.022 247.997 370.705 247.715 370.445C247.432 370.186 246.849 369.878 245.965 369.522C245.053 369.153 244.411 368.732 244.037 368.258C243.663 367.784 243.477 367.214 243.477 366.549C243.477 365.715 243.773 365.059 244.365 364.58C244.958 364.102 245.753 363.862 246.751 363.862C247.708 363.862 248.66 364.072 249.608 364.491L249.089 365.824C248.2 365.451 247.407 365.264 246.71 365.264C246.181 365.264 245.78 365.38 245.507 365.612C245.233 365.84 245.097 366.143 245.097 366.521C245.097 366.781 245.151 367.005 245.261 367.191C245.37 367.374 245.55 367.547 245.801 367.711C246.051 367.875 246.503 368.091 247.154 368.36C247.888 368.666 248.426 368.951 248.768 369.215C249.109 369.479 249.36 369.778 249.52 370.11C249.679 370.443 249.759 370.835 249.759 371.286ZM255.945 365.264C255.007 365.264 254.268 365.596 253.73 366.262C253.193 366.927 252.924 367.845 252.924 369.017C252.924 370.243 253.181 371.17 253.696 371.799C254.216 372.428 254.965 372.742 255.945 372.742C256.369 372.742 256.779 372.701 257.176 372.619C257.572 372.533 257.985 372.423 258.413 372.291V373.692C257.629 373.989 256.741 374.137 255.747 374.137C254.284 374.137 253.161 373.695 252.377 372.811C251.593 371.922 251.201 370.653 251.201 369.003C251.201 367.964 251.39 367.055 251.769 366.275C252.151 365.496 252.703 364.899 253.423 364.484C254.143 364.07 254.988 363.862 255.959 363.862C256.98 363.862 257.923 364.076 258.789 364.505L258.201 365.865C257.864 365.706 257.506 365.567 257.128 365.448C256.754 365.325 256.36 365.264 255.945 365.264ZM269.439 368.989C269.439 370.616 269.032 371.881 268.216 372.783C267.405 373.686 266.254 374.137 264.764 374.137C263.255 374.137 262.095 373.69 261.284 372.797C260.478 371.899 260.074 370.625 260.074 368.976C260.074 367.326 260.48 366.059 261.291 365.175C262.107 364.291 263.269 363.849 264.777 363.849C266.263 363.849 267.411 364.298 268.223 365.195C269.034 366.093 269.439 367.358 269.439 368.989ZM261.811 368.989C261.811 370.22 262.059 371.154 262.556 371.792C263.052 372.425 263.788 372.742 264.764 372.742C265.734 372.742 266.466 372.428 266.958 371.799C267.455 371.17 267.703 370.233 267.703 368.989C267.703 367.763 267.457 366.834 266.965 366.2C266.477 365.567 265.748 365.25 264.777 365.25C263.798 365.25 263.057 365.567 262.556 366.2C262.059 366.834 261.811 367.763 261.811 368.989ZM271.586 374V364.006H273.22V372.599H277.451V374H271.586ZM287.056 374H285.415V369.495H280.808V374H279.174V364.006H280.808V368.094H285.415V364.006H287.056V374ZM295.341 374H289.688V364.006H295.341V365.387H291.321V368.107H295.088V369.475H291.321V372.612H295.341V374ZM299.142 368.654H300.276C301.037 368.654 301.589 368.513 301.931 368.23C302.272 367.948 302.443 367.529 302.443 366.973C302.443 366.408 302.259 366.002 301.89 365.756C301.521 365.51 300.965 365.387 300.222 365.387H299.142V368.654ZM299.142 370.008V374H297.508V364.006H300.331C301.621 364.006 302.576 364.247 303.195 364.73C303.815 365.214 304.125 365.943 304.125 366.918C304.125 368.162 303.478 369.049 302.184 369.577L305.007 374H303.147L300.755 370.008H299.142Z" fill="#FF8822"/>
<path d="M127.778 365.264C126.84 365.264 126.101 365.596 125.563 366.262C125.026 366.927 124.757 367.845 124.757 369.017C124.757 370.243 125.014 371.17 125.529 371.799C126.049 372.428 126.799 372.742 127.778 372.742C128.202 372.742 128.612 372.701 129.009 372.619C129.405 372.533 129.818 372.423 130.246 372.291V373.692C129.462 373.989 128.574 374.137 127.58 374.137C126.117 374.137 124.994 373.695 124.21 372.811C123.426 371.922 123.034 370.653 123.034 369.003C123.034 367.964 123.223 367.055 123.602 366.275C123.984 365.496 124.536 364.899 125.256 364.484C125.976 364.07 126.821 363.862 127.792 363.862C128.813 363.862 129.756 364.076 130.622 364.505L130.034 365.865C129.697 365.706 129.339 365.567 128.961 365.448C128.587 365.325 128.193 365.264 127.778 365.264ZM138.6 374L137.602 371.225H133.78L132.803 374H131.08L134.819 363.965H136.597L140.336 374H138.6ZM137.171 369.816L136.234 367.096C136.166 366.913 136.07 366.626 135.947 366.234C135.829 365.842 135.747 365.555 135.701 365.373C135.578 365.934 135.398 366.547 135.161 367.212L134.259 369.816H137.171ZM149.981 374H147.979L143.063 366.036H143.009L143.043 366.48C143.107 367.328 143.139 368.103 143.139 368.805V374H141.655V364.006H143.638L148.539 371.929H148.58C148.571 371.824 148.553 371.443 148.525 370.787C148.498 370.126 148.484 369.611 148.484 369.242V364.006H149.981V374ZM156.872 365.264C155.933 365.264 155.195 365.596 154.657 366.262C154.119 366.927 153.851 367.845 153.851 369.017C153.851 370.243 154.108 371.17 154.623 371.799C155.143 372.428 155.892 372.742 156.872 372.742C157.296 372.742 157.706 372.701 158.103 372.619C158.499 372.533 158.911 372.423 159.34 372.291V373.692C158.556 373.989 157.667 374.137 156.674 374.137C155.211 374.137 154.088 373.695 153.304 372.811C152.52 371.922 152.128 370.653 152.128 369.003C152.128 367.964 152.317 367.055 152.695 366.275C153.078 365.496 153.63 364.899 154.35 364.484C155.07 364.07 155.915 363.862 156.886 363.862C157.907 363.862 158.85 364.076 159.716 364.505L159.128 365.865C158.791 365.706 158.433 365.567 158.055 365.448C157.681 365.325 157.287 365.264 156.872 365.264ZM167.146 374H161.493V364.006H167.146V365.387H163.127V368.107H166.894V369.475H163.127V372.612H167.146V374ZM169.313 374V364.006H170.947V372.599H175.179V374H169.313ZM183.102 374L182.104 371.225H178.282L177.305 374H175.582L179.321 363.965H181.099L184.838 374H183.102ZM181.673 369.816L180.736 367.096C180.668 366.913 180.572 366.626 180.449 366.234C180.331 365.842 180.249 365.555 180.203 365.373C180.08 365.934 179.9 366.547 179.663 367.212L178.761 369.816H181.673ZM187.791 368.654H188.926C189.687 368.654 190.238 368.513 190.58 368.23C190.922 367.948 191.093 367.529 191.093 366.973C191.093 366.408 190.908 366.002 190.539 365.756C190.17 365.51 189.614 365.387 188.871 365.387H187.791V368.654ZM187.791 370.008V374H186.157V364.006H188.98C190.27 364.006 191.225 364.247 191.845 364.73C192.465 365.214 192.774 365.943 192.774 366.918C192.774 368.162 192.127 369.049 190.833 369.577L193.656 374H191.797L189.404 370.008H187.791Z" fill="black" fill-opacity="0.38"/>
<path d="M173.396 185.705C173.396 187.186 173.162 188.291 172.693 189.021C172.229 189.752 171.516 190.117 170.555 190.117C169.633 190.117 168.932 189.744 168.451 188.998C167.971 188.248 167.73 187.15 167.73 185.705C167.73 184.213 167.963 183.105 168.428 182.383C168.893 181.66 169.602 181.299 170.555 181.299C171.484 181.299 172.189 181.676 172.67 182.43C173.154 183.184 173.396 184.275 173.396 185.705ZM168.715 185.705C168.715 186.951 168.861 187.859 169.154 188.43C169.447 188.996 169.914 189.279 170.555 189.279C171.203 189.279 171.672 188.992 171.961 188.418C172.254 187.84 172.4 186.936 172.4 185.705C172.4 184.475 172.254 183.574 171.961 183.004C171.672 182.43 171.203 182.143 170.555 182.143C169.914 182.143 169.447 182.426 169.154 182.992C168.861 183.555 168.715 184.459 168.715 185.705ZM178.189 190H177.24V183.895C177.24 183.387 177.256 182.906 177.287 182.453C177.205 182.535 177.113 182.621 177.012 182.711C176.91 182.801 176.445 183.182 175.617 183.854L175.102 183.186L177.369 181.434H178.189V190Z" fill="black" fill-opacity="0.38"/>
<path d="M217.396 185.705C217.396 187.186 217.162 188.291 216.693 189.021C216.229 189.752 215.516 190.117 214.555 190.117C213.633 190.117 212.932 189.744 212.451 188.998C211.971 188.248 211.73 187.15 211.73 185.705C211.73 184.213 211.963 183.105 212.428 182.383C212.893 181.66 213.602 181.299 214.555 181.299C215.484 181.299 216.189 181.676 216.67 182.43C217.154 183.184 217.396 184.275 217.396 185.705ZM212.715 185.705C212.715 186.951 212.861 187.859 213.154 188.43C213.447 188.996 213.914 189.279 214.555 189.279C215.203 189.279 215.672 188.992 215.961 188.418C216.254 187.84 216.4 186.936 216.4 185.705C216.4 184.475 216.254 183.574 215.961 183.004C215.672 182.43 215.203 182.143 214.555 182.143C213.914 182.143 213.447 182.426 213.154 182.992C212.861 183.555 212.715 184.459 212.715 185.705ZM224.217 190H218.586V189.162L220.842 186.895C221.529 186.199 221.982 185.703 222.201 185.406C222.42 185.109 222.584 184.82 222.693 184.539C222.803 184.258 222.857 183.955 222.857 183.631C222.857 183.174 222.719 182.812 222.441 182.547C222.164 182.277 221.779 182.143 221.287 182.143C220.932 182.143 220.594 182.201 220.273 182.318C219.957 182.436 219.604 182.648 219.213 182.957L218.697 182.295C219.486 181.639 220.346 181.311 221.275 181.311C222.08 181.311 222.711 181.518 223.168 181.932C223.625 182.342 223.854 182.895 223.854 183.59C223.854 184.133 223.701 184.67 223.396 185.201C223.092 185.732 222.521 186.404 221.686 187.217L219.811 189.051V189.098H224.217V190Z" fill="black" fill-opacity="0.38"/>
<path d="M261.396 185.705C261.396 187.186 261.162 188.291 260.693 189.021C260.229 189.752 259.516 190.117 258.555 190.117C257.633 190.117 256.932 189.744 256.451 188.998C255.971 188.248 255.73 187.15 255.73 185.705C255.73 184.213 255.963 183.105 256.428 182.383C256.893 181.66 257.602 181.299 258.555 181.299C259.484 181.299 260.189 181.676 260.67 182.43C261.154 183.184 261.396 184.275 261.396 185.705ZM256.715 185.705C256.715 186.951 256.861 187.859 257.154 188.43C257.447 188.996 257.914 189.279 258.555 189.279C259.203 189.279 259.672 188.992 259.961 188.418C260.254 187.84 260.4 186.936 260.4 185.705C260.4 184.475 260.254 183.574 259.961 183.004C259.672 182.43 259.203 182.143 258.555 182.143C257.914 182.143 257.447 182.426 257.154 182.992C256.861 183.555 256.715 184.459 256.715 185.705ZM267.895 183.449C267.895 183.996 267.74 184.443 267.432 184.791C267.127 185.139 266.693 185.371 266.131 185.488V185.535C266.818 185.621 267.328 185.84 267.66 186.191C267.992 186.543 268.158 187.004 268.158 187.574C268.158 188.391 267.875 189.02 267.309 189.461C266.742 189.898 265.938 190.117 264.895 190.117C264.441 190.117 264.025 190.082 263.646 190.012C263.271 189.945 262.906 189.826 262.551 189.654V188.729C262.922 188.912 263.316 189.053 263.734 189.15C264.156 189.244 264.555 189.291 264.93 189.291C266.41 189.291 267.15 188.711 267.15 187.551C267.15 186.512 266.334 185.992 264.701 185.992H263.857V185.154H264.713C265.381 185.154 265.91 185.008 266.301 184.715C266.691 184.418 266.887 184.008 266.887 183.484C266.887 183.066 266.742 182.738 266.453 182.5C266.168 182.262 265.779 182.143 265.287 182.143C264.912 182.143 264.559 182.193 264.227 182.295C263.895 182.396 263.516 182.584 263.09 182.857L262.598 182.201C262.949 181.924 263.354 181.707 263.811 181.551C264.271 181.391 264.756 181.311 265.264 181.311C266.096 181.311 266.742 181.502 267.203 181.885C267.664 182.264 267.895 182.785 267.895 183.449Z" fill="black" fill-opacity="0.38"/>
<path d="M305.396 185.705C305.396 187.186 305.162 188.291 304.693 189.021C304.229 189.752 303.516 190.117 302.555 190.117C301.633 190.117 300.932 189.744 300.451 188.998C299.971 188.248 299.73 187.15 299.73 185.705C299.73 184.213 299.963 183.105 300.428 182.383C300.893 181.66 301.602 181.299 302.555 181.299C303.484 181.299 304.189 181.676 304.67 182.43C305.154 183.184 305.396 184.275 305.396 185.705ZM300.715 185.705C300.715 186.951 300.861 187.859 301.154 188.43C301.447 188.996 301.914 189.279 302.555 189.279C303.203 189.279 303.672 188.992 303.961 188.418C304.254 187.84 304.4 186.936 304.4 185.705C304.4 184.475 304.254 183.574 303.961 183.004C303.672 182.43 303.203 182.143 302.555 182.143C301.914 182.143 301.447 182.426 301.154 182.992C300.861 183.555 300.715 184.459 300.715 185.705ZM312.621 188.031H311.35V190H310.418V188.031H306.252V187.182L310.318 181.387H311.35V187.146H312.621V188.031ZM310.418 187.146V184.299C310.418 183.74 310.438 183.109 310.477 182.406H310.43C310.242 182.781 310.066 183.092 309.902 183.338L307.225 187.146H310.418Z" fill="black" fill-opacity="0.38"/>
<path d="M85.3965 219.705C85.3965 221.186 85.1621 222.291 84.6934 223.021C84.2285 223.752 83.5156 224.117 82.5547 224.117C81.6328 224.117 80.9316 223.744 80.4512 222.998C79.9707 222.248 79.7305 221.15 79.7305 219.705C79.7305 218.213 79.9629 217.105 80.4277 216.383C80.8926 215.66 81.6016 215.299 82.5547 215.299C83.4844 215.299 84.1895 215.676 84.6699 216.43C85.1543 217.184 85.3965 218.275 85.3965 219.705ZM80.7148 219.705C80.7148 220.951 80.8613 221.859 81.1543 222.43C81.4473 222.996 81.9141 223.279 82.5547 223.279C83.2031 223.279 83.6719 222.992 83.9609 222.418C84.2539 221.84 84.4004 220.936 84.4004 219.705C84.4004 218.475 84.2539 217.574 83.9609 217.004C83.6719 216.43 83.2031 216.143 82.5547 216.143C81.9141 216.143 81.4473 216.426 81.1543 216.992C80.8613 217.555 80.7148 218.459 80.7148 219.705ZM86.6855 220.338C86.6855 218.654 87.0117 217.396 87.6641 216.564C88.3203 215.729 89.2891 215.311 90.5703 215.311C91.0117 215.311 91.3594 215.348 91.6133 215.422V216.26C91.3125 216.162 90.9688 216.113 90.582 216.113C89.6641 216.113 88.9629 216.4 88.4785 216.975C87.9941 217.545 87.7285 218.443 87.6816 219.67H87.752C88.1816 218.998 88.8613 218.662 89.791 218.662C90.5605 218.662 91.166 218.895 91.6074 219.359C92.0527 219.824 92.2754 220.455 92.2754 221.252C92.2754 222.143 92.0312 222.844 91.543 223.355C91.0586 223.863 90.4023 224.117 89.5742 224.117C88.6875 224.117 87.9844 223.785 87.4648 223.121C86.9453 222.453 86.6855 221.525 86.6855 220.338ZM89.5625 223.291C90.1172 223.291 90.5469 223.117 90.8516 222.77C91.1602 222.418 91.3145 221.912 91.3145 221.252C91.3145 220.686 91.1719 220.24 90.8867 219.916C90.6016 219.592 90.1758 219.43 89.6094 219.43C89.2578 219.43 88.9355 219.502 88.6426 219.646C88.3496 219.791 88.1152 219.99 87.9395 220.244C87.7676 220.498 87.6816 220.762 87.6816 221.035C87.6816 221.438 87.7598 221.812 87.916 222.16C88.0723 222.508 88.293 222.783 88.5781 222.986C88.8672 223.189 89.1953 223.291 89.5625 223.291Z" fill="black" fill-opacity="0.38"/>
<path d="M129.396 219.705C129.396 221.186 129.162 222.291 128.693 223.021C128.229 223.752 127.516 224.117 126.555 224.117C125.633 224.117 124.932 223.744 124.451 222.998C123.971 222.248 123.73 221.15 123.73 219.705C123.73 218.213 123.963 217.105 124.428 216.383C124.893 215.66 125.602 215.299 126.555 215.299C127.484 215.299 128.189 215.676 128.67 216.43C129.154 217.184 129.396 218.275 129.396 219.705ZM124.715 219.705C124.715 220.951 124.861 221.859 125.154 222.43C125.447 222.996 125.914 223.279 126.555 223.279C127.203 223.279 127.672 222.992 127.961 222.418C128.254 221.84 128.4 220.936 128.4 219.705C128.4 218.475 128.254 217.574 127.961 217.004C127.672 216.43 127.203 216.143 126.555 216.143C125.914 216.143 125.447 216.426 125.154 216.992C124.861 217.555 124.715 218.459 124.715 219.705ZM131.67 224L135.221 216.33H130.551V215.434H136.252V216.213L132.748 224H131.67Z" fill="black" fill-opacity="0.38"/>
<path d="M173.396 219.705C173.396 221.186 173.162 222.291 172.693 223.021C172.229 223.752 171.516 224.117 170.555 224.117C169.633 224.117 168.932 223.744 168.451 222.998C167.971 222.248 167.73 221.15 167.73 219.705C167.73 218.213 167.963 217.105 168.428 216.383C168.893 215.66 169.602 215.299 170.555 215.299C171.484 215.299 172.189 215.676 172.67 216.43C173.154 217.184 173.396 218.275 173.396 219.705ZM168.715 219.705C168.715 220.951 168.861 221.859 169.154 222.43C169.447 222.996 169.914 223.279 170.555 223.279C171.203 223.279 171.672 222.992 171.961 222.418C172.254 221.84 172.4 220.936 172.4 219.705C172.4 218.475 172.254 217.574 171.961 217.004C171.672 216.43 171.203 216.143 170.555 216.143C169.914 216.143 169.447 216.426 169.154 216.992C168.861 217.555 168.715 218.459 168.715 219.705ZM177.422 215.311C178.203 215.311 178.822 215.492 179.279 215.855C179.736 216.219 179.965 216.721 179.965 217.361C179.965 217.783 179.834 218.168 179.572 218.516C179.311 218.863 178.893 219.18 178.318 219.465C179.014 219.797 179.508 220.146 179.801 220.514C180.094 220.877 180.24 221.299 180.24 221.779C180.24 222.49 179.992 223.059 179.496 223.484C179 223.906 178.32 224.117 177.457 224.117C176.543 224.117 175.84 223.918 175.348 223.52C174.855 223.117 174.609 222.549 174.609 221.814C174.609 220.834 175.207 220.07 176.402 219.523C175.863 219.219 175.477 218.891 175.242 218.539C175.008 218.184 174.891 217.787 174.891 217.35C174.891 216.729 175.119 216.234 175.576 215.867C176.037 215.496 176.652 215.311 177.422 215.311ZM175.57 221.838C175.57 222.307 175.732 222.672 176.057 222.934C176.385 223.195 176.844 223.326 177.434 223.326C178.016 223.326 178.469 223.189 178.793 222.916C179.117 222.643 179.279 222.268 179.279 221.791C179.279 221.412 179.127 221.076 178.822 220.783C178.518 220.486 177.986 220.199 177.229 219.922C176.646 220.172 176.225 220.449 175.963 220.754C175.701 221.055 175.57 221.416 175.57 221.838ZM177.41 216.102C176.922 216.102 176.539 216.219 176.262 216.453C175.984 216.688 175.846 217 175.846 217.391C175.846 217.75 175.961 218.059 176.191 218.316C176.422 218.574 176.848 218.832 177.469 219.09C178.027 218.855 178.422 218.604 178.652 218.334C178.887 218.064 179.004 217.75 179.004 217.391C179.004 216.996 178.861 216.684 178.576 216.453C178.295 216.219 177.906 216.102 177.41 216.102Z" fill="black" fill-opacity="0.38"/>
<path d="M217.396 219.705C217.396 221.186 217.162 222.291 216.693 223.021C216.229 223.752 215.516 224.117 214.555 224.117C213.633 224.117 212.932 223.744 212.451 222.998C211.971 222.248 211.73 221.15 211.73 219.705C211.73 218.213 211.963 217.105 212.428 216.383C212.893 215.66 213.602 215.299 214.555 215.299C215.484 215.299 216.189 215.676 216.67 216.43C217.154 217.184 217.396 218.275 217.396 219.705ZM212.715 219.705C212.715 220.951 212.861 221.859 213.154 222.43C213.447 222.996 213.914 223.279 214.555 223.279C215.203 223.279 215.672 222.992 215.961 222.418C216.254 221.84 216.4 220.936 216.4 219.705C216.4 218.475 216.254 217.574 215.961 217.004C215.672 216.43 215.203 216.143 214.555 216.143C213.914 216.143 213.447 216.426 213.154 216.992C212.861 217.555 212.715 218.459 212.715 219.705ZM224.217 219.09C224.217 222.441 222.92 224.117 220.326 224.117C219.873 224.117 219.514 224.078 219.248 224V223.162C219.561 223.264 219.916 223.314 220.314 223.314C221.252 223.314 221.959 223.025 222.436 222.447C222.916 221.865 223.178 220.975 223.221 219.775H223.15C222.936 220.1 222.65 220.348 222.295 220.52C221.939 220.688 221.539 220.771 221.094 220.771C220.336 220.771 219.734 220.545 219.289 220.092C218.844 219.639 218.621 219.006 218.621 218.193C218.621 217.303 218.869 216.6 219.365 216.084C219.865 215.568 220.521 215.311 221.334 215.311C221.916 215.311 222.424 215.461 222.857 215.762C223.295 216.059 223.631 216.494 223.865 217.068C224.1 217.639 224.217 218.312 224.217 219.09ZM221.334 216.143C220.775 216.143 220.344 216.322 220.039 216.682C219.734 217.041 219.582 217.541 219.582 218.182C219.582 218.744 219.723 219.188 220.004 219.512C220.285 219.832 220.713 219.992 221.287 219.992C221.643 219.992 221.969 219.92 222.266 219.775C222.566 219.631 222.803 219.434 222.975 219.184C223.146 218.934 223.232 218.672 223.232 218.398C223.232 217.988 223.152 217.609 222.992 217.262C222.832 216.914 222.607 216.641 222.318 216.441C222.033 216.242 221.705 216.143 221.334 216.143Z" fill="black" fill-opacity="0.38"/>
<path d="M259.322 224H258.373V217.895C258.373 217.387 258.389 216.906 258.42 216.453C258.338 216.535 258.246 216.621 258.145 216.711C258.043 216.801 257.578 217.182 256.75 217.854L256.234 217.186L258.502 215.434H259.322V224ZM268.264 219.705C268.264 221.186 268.029 222.291 267.561 223.021C267.096 223.752 266.383 224.117 265.422 224.117C264.5 224.117 263.799 223.744 263.318 222.998C262.838 222.248 262.598 221.15 262.598 219.705C262.598 218.213 262.83 217.105 263.295 216.383C263.76 215.66 264.469 215.299 265.422 215.299C266.352 215.299 267.057 215.676 267.537 216.43C268.021 217.184 268.264 218.275 268.264 219.705ZM263.582 219.705C263.582 220.951 263.729 221.859 264.021 222.43C264.314 222.996 264.781 223.279 265.422 223.279C266.07 223.279 266.539 222.992 266.828 222.418C267.121 221.84 267.268 220.936 267.268 219.705C267.268 218.475 267.121 217.574 266.828 217.004C266.539 216.43 266.07 216.143 265.422 216.143C264.781 216.143 264.314 216.426 264.021 216.992C263.729 217.555 263.582 218.459 263.582 219.705Z" fill="black" fill-opacity="0.38"/>
<path d="M303.322 224H302.373V217.895C302.373 217.387 302.389 216.906 302.42 216.453C302.338 216.535 302.246 216.621 302.145 216.711C302.043 216.801 301.578 217.182 300.75 217.854L300.234 217.186L302.502 215.434H303.322V224ZM310.189 224H309.24V217.895C309.24 217.387 309.256 216.906 309.287 216.453C309.205 216.535 309.113 216.621 309.012 216.711C308.91 216.801 308.445 217.182 307.617 217.854L307.102 217.186L309.369 215.434H310.189V224Z" fill="black"/>
<path d="M41.3965 219.705C41.3965 221.186 41.1621 222.291 40.6934 223.021C40.2285 223.752 39.5156 224.117 38.5547 224.117C37.6328 224.117 36.9316 223.744 36.4512 222.998C35.9707 222.248 35.7305 221.15 35.7305 219.705C35.7305 218.213 35.9629 217.105 36.4277 216.383C36.8926 215.66 37.6016 215.299 38.5547 215.299C39.4844 215.299 40.1895 215.676 40.6699 216.43C41.1543 217.184 41.3965 218.275 41.3965 219.705ZM36.7148 219.705C36.7148 220.951 36.8613 221.859 37.1543 222.43C37.4473 222.996 37.9141 223.279 38.5547 223.279C39.2031 223.279 39.6719 222.992 39.9609 222.418C40.2539 221.84 40.4004 220.936 40.4004 219.705C40.4004 218.475 40.2539 217.574 39.9609 217.004C39.6719 216.43 39.2031 216.143 38.5547 216.143C37.9141 216.143 37.4473 216.426 37.1543 216.992C36.8613 217.555 36.7148 218.459 36.7148 219.705ZM45.2637 218.768C46.166 218.768 46.875 218.992 47.3906 219.441C47.9102 219.887 48.1699 220.498 48.1699 221.275C48.1699 222.162 47.8867 222.857 47.3203 223.361C46.7578 223.865 45.9805 224.117 44.9883 224.117C44.0234 224.117 43.2871 223.963 42.7793 223.654V222.717C43.0527 222.893 43.3926 223.031 43.7988 223.133C44.2051 223.23 44.6055 223.279 45 223.279C45.6875 223.279 46.2207 223.117 46.5996 222.793C46.9824 222.469 47.1738 222 47.1738 221.387C47.1738 220.191 46.4414 219.594 44.9766 219.594C44.6055 219.594 44.1094 219.65 43.4883 219.764L42.9844 219.441L43.3066 215.434H47.5664V216.33H44.1387L43.9219 218.902C44.3711 218.812 44.8184 218.768 45.2637 218.768Z" fill="black" fill-opacity="0.38"/>
<circle cx="86" cy="253" r="16" fill="#FF8822"/>
<path d="M83.3223 258H82.373V251.895C82.373 251.387 82.3887 250.906 82.4199 250.453C82.3379 250.535 82.2461 250.621 82.1445 250.711C82.043 250.801 81.5781 251.182 80.75 251.854L80.2344 251.186L82.502 249.434H83.3223V258ZM91.8945 251.449C91.8945 251.996 91.7402 252.443 91.4316 252.791C91.127 253.139 90.6934 253.371 90.1309 253.488V253.535C90.8184 253.621 91.3281 253.84 91.6602 254.191C91.9922 254.543 92.1582 255.004 92.1582 255.574C92.1582 256.391 91.875 257.02 91.3086 257.461C90.7422 257.898 89.9375 258.117 88.8945 258.117C88.4414 258.117 88.0254 258.082 87.6465 258.012C87.2715 257.945 86.9062 257.826 86.5508 257.654V256.729C86.9219 256.912 87.3164 257.053 87.7344 257.15C88.1562 257.244 88.5547 257.291 88.9297 257.291C90.4102 257.291 91.1504 256.711 91.1504 255.551C91.1504 254.512 90.334 253.992 88.7012 253.992H87.8574V253.154H88.7129C89.3809 253.154 89.9102 253.008 90.3008 252.715C90.6914 252.418 90.8867 252.008 90.8867 251.484C90.8867 251.066 90.7422 250.738 90.4531 250.5C90.168 250.262 89.7793 250.143 89.2871 250.143C88.9121 250.143 88.5586 250.193 88.2266 250.295C87.8945 250.396 87.5156 250.584 87.0898 250.857L86.5977 250.201C86.9492 249.924 87.3535 249.707 87.8105 249.551C88.2715 249.391 88.7559 249.311 89.2637 249.311C90.0957 249.311 90.7422 249.502 91.2031 249.885C91.6641 250.264 91.8945 250.785 91.8945 251.449Z" fill="white"/>
<path d="M127.322 258H126.373V251.895C126.373 251.387 126.389 250.906 126.42 250.453C126.338 250.535 126.246 250.621 126.145 250.711C126.043 250.801 125.578 251.182 124.75 251.854L124.234 251.186L126.502 249.434H127.322V258ZM136.621 256.031H135.35V258H134.418V256.031H130.252V255.182L134.318 249.387H135.35V255.146H136.621V256.031ZM134.418 255.146V252.299C134.418 251.74 134.438 251.109 134.477 250.406H134.43C134.242 250.781 134.066 251.092 133.902 251.338L131.225 255.146H134.418Z" fill="black" fill-opacity="0.38"/>
<path d="M171.322 258H170.373V251.895C170.373 251.387 170.389 250.906 170.42 250.453C170.338 250.535 170.246 250.621 170.145 250.711C170.043 250.801 169.578 251.182 168.75 251.854L168.234 251.186L170.502 249.434H171.322V258ZM177.264 252.768C178.166 252.768 178.875 252.992 179.391 253.441C179.91 253.887 180.17 254.498 180.17 255.275C180.17 256.162 179.887 256.857 179.32 257.361C178.758 257.865 177.98 258.117 176.988 258.117C176.023 258.117 175.287 257.963 174.779 257.654V256.717C175.053 256.893 175.393 257.031 175.799 257.133C176.205 257.23 176.605 257.279 177 257.279C177.688 257.279 178.221 257.117 178.6 256.793C178.982 256.469 179.174 256 179.174 255.387C179.174 254.191 178.441 253.594 176.977 253.594C176.605 253.594 176.109 253.65 175.488 253.764L174.984 253.441L175.307 249.434H179.566V250.33H176.139L175.922 252.902C176.371 252.812 176.818 252.768 177.264 252.768Z" fill="black" fill-opacity="0.38"/>
<path d="M215.322 258H214.373V251.895C214.373 251.387 214.389 250.906 214.42 250.453C214.338 250.535 214.246 250.621 214.145 250.711C214.043 250.801 213.578 251.182 212.75 251.854L212.234 251.186L214.502 249.434H215.322V258ZM218.686 254.338C218.686 252.654 219.012 251.396 219.664 250.564C220.32 249.729 221.289 249.311 222.57 249.311C223.012 249.311 223.359 249.348 223.613 249.422V250.26C223.312 250.162 222.969 250.113 222.582 250.113C221.664 250.113 220.963 250.4 220.479 250.975C219.994 251.545 219.729 252.443 219.682 253.67H219.752C220.182 252.998 220.861 252.662 221.791 252.662C222.561 252.662 223.166 252.895 223.607 253.359C224.053 253.824 224.275 254.455 224.275 255.252C224.275 256.143 224.031 256.844 223.543 257.355C223.059 257.863 222.402 258.117 221.574 258.117C220.688 258.117 219.984 257.785 219.465 257.121C218.945 256.453 218.686 255.525 218.686 254.338ZM221.562 257.291C222.117 257.291 222.547 257.117 222.852 256.77C223.16 256.418 223.314 255.912 223.314 255.252C223.314 254.686 223.172 254.24 222.887 253.916C222.602 253.592 222.176 253.43 221.609 253.43C221.258 253.43 220.936 253.502 220.643 253.646C220.35 253.791 220.115 253.99 219.939 254.244C219.768 254.498 219.682 254.762 219.682 255.035C219.682 255.438 219.76 255.812 219.916 256.16C220.072 256.508 220.293 256.783 220.578 256.986C220.867 257.189 221.195 257.291 221.562 257.291Z" fill="black" fill-opacity="0.38"/>
<path d="M259.322 258H258.373V251.895C258.373 251.387 258.389 250.906 258.42 250.453C258.338 250.535 258.246 250.621 258.145 250.711C258.043 250.801 257.578 251.182 256.75 251.854L256.234 251.186L258.502 249.434H259.322V258ZM263.67 258L267.221 250.33H262.551V249.434H268.252V250.213L264.748 258H263.67Z" fill="black" fill-opacity="0.38"/>
<path d="M303.322 258H302.373V251.895C302.373 251.387 302.389 250.906 302.42 250.453C302.338 250.535 302.246 250.621 302.145 250.711C302.043 250.801 301.578 251.182 300.75 251.854L300.234 251.186L302.502 249.434H303.322V258ZM309.422 249.311C310.203 249.311 310.822 249.492 311.279 249.855C311.736 250.219 311.965 250.721 311.965 251.361C311.965 251.783 311.834 252.168 311.572 252.516C311.311 252.863 310.893 253.18 310.318 253.465C311.014 253.797 311.508 254.146 311.801 254.514C312.094 254.877 312.24 255.299 312.24 255.779C312.24 256.49 311.992 257.059 311.496 257.484C311 257.906 310.32 258.117 309.457 258.117C308.543 258.117 307.84 257.918 307.348 257.52C306.855 257.117 306.609 256.549 306.609 255.814C306.609 254.834 307.207 254.07 308.402 253.523C307.863 253.219 307.477 252.891 307.242 252.539C307.008 252.184 306.891 251.787 306.891 251.35C306.891 250.729 307.119 250.234 307.576 249.867C308.037 249.496 308.652 249.311 309.422 249.311ZM307.57 255.838C307.57 256.307 307.732 256.672 308.057 256.934C308.385 257.195 308.844 257.326 309.434 257.326C310.016 257.326 310.469 257.189 310.793 256.916C311.117 256.643 311.279 256.268 311.279 255.791C311.279 255.412 311.127 255.076 310.822 254.783C310.518 254.486 309.986 254.199 309.229 253.922C308.646 254.172 308.225 254.449 307.963 254.754C307.701 255.055 307.57 255.416 307.57 255.838ZM309.41 250.102C308.922 250.102 308.539 250.219 308.262 250.453C307.984 250.688 307.846 251 307.846 251.391C307.846 251.75 307.961 252.059 308.191 252.316C308.422 252.574 308.848 252.832 309.469 253.09C310.027 252.855 310.422 252.604 310.652 252.334C310.887 252.064 311.004 251.75 311.004 251.391C311.004 250.996 310.861 250.684 310.576 250.453C310.295 250.219 309.906 250.102 309.41 250.102Z" fill="black" fill-opacity="0.38"/>
<path d="M39.3223 258H38.373V251.895C38.373 251.387 38.3887 250.906 38.4199 250.453C38.3379 250.535 38.2461 250.621 38.1445 250.711C38.043 250.801 37.5781 251.182 36.75 251.854L36.2344 251.186L38.502 249.434H39.3223V258ZM48.2168 258H42.5859V257.162L44.8418 254.895C45.5293 254.199 45.9824 253.703 46.2012 253.406C46.4199 253.109 46.584 252.82 46.6934 252.539C46.8027 252.258 46.8574 251.955 46.8574 251.631C46.8574 251.174 46.7188 250.812 46.4414 250.547C46.1641 250.277 45.7793 250.143 45.2871 250.143C44.9316 250.143 44.5938 250.201 44.2734 250.318C43.957 250.436 43.6035 250.648 43.2129 250.957L42.6973 250.295C43.4863 249.639 44.3457 249.311 45.2754 249.311C46.0801 249.311 46.7109 249.518 47.168 249.932C47.625 250.342 47.8535 250.895 47.8535 251.59C47.8535 252.133 47.7012 252.67 47.3965 253.201C47.0918 253.732 46.5215 254.404 45.6855 255.217L43.8105 257.051V257.098H48.2168V258Z" fill="black"/>
<path d="M85.3496 292H79.7188V291.162L81.9746 288.895C82.6621 288.199 83.1152 287.703 83.334 287.406C83.5527 287.109 83.7168 286.82 83.8262 286.539C83.9355 286.258 83.9902 285.955 83.9902 285.631C83.9902 285.174 83.8516 284.812 83.5742 284.547C83.2969 284.277 82.9121 284.143 82.4199 284.143C82.0645 284.143 81.7266 284.201 81.4062 284.318C81.0898 284.436 80.7363 284.648 80.3457 284.957L79.8301 284.295C80.6191 283.639 81.4785 283.311 82.4082 283.311C83.2129 283.311 83.8438 283.518 84.3008 283.932C84.7578 284.342 84.9863 284.895 84.9863 285.59C84.9863 286.133 84.834 286.67 84.5293 287.201C84.2246 287.732 83.6543 288.404 82.8184 289.217L80.9434 291.051V291.098H85.3496V292ZM92.2637 287.705C92.2637 289.186 92.0293 290.291 91.5605 291.021C91.0957 291.752 90.3828 292.117 89.4219 292.117C88.5 292.117 87.7988 291.744 87.3184 290.998C86.8379 290.248 86.5977 289.15 86.5977 287.705C86.5977 286.213 86.8301 285.105 87.2949 284.383C87.7598 283.66 88.4688 283.299 89.4219 283.299C90.3516 283.299 91.0566 283.676 91.5371 284.43C92.0215 285.184 92.2637 286.275 92.2637 287.705ZM87.582 287.705C87.582 288.951 87.7285 289.859 88.0215 290.43C88.3145 290.996 88.7812 291.279 89.4219 291.279C90.0703 291.279 90.5391 290.992 90.8281 290.418C91.1211 289.84 91.2676 288.936 91.2676 287.705C91.2676 286.475 91.1211 285.574 90.8281 285.004C90.5391 284.43 90.0703 284.143 89.4219 284.143C88.7812 284.143 88.3145 284.426 88.0215 284.992C87.7285 285.555 87.582 286.459 87.582 287.705Z" fill="black" fill-opacity="0.38"/>
<path d="M129.35 292H123.719V291.162L125.975 288.895C126.662 288.199 127.115 287.703 127.334 287.406C127.553 287.109 127.717 286.82 127.826 286.539C127.936 286.258 127.99 285.955 127.99 285.631C127.99 285.174 127.852 284.812 127.574 284.547C127.297 284.277 126.912 284.143 126.42 284.143C126.064 284.143 125.727 284.201 125.406 284.318C125.09 284.436 124.736 284.648 124.346 284.957L123.83 284.295C124.619 283.639 125.479 283.311 126.408 283.311C127.213 283.311 127.844 283.518 128.301 283.932C128.758 284.342 128.986 284.895 128.986 285.59C128.986 286.133 128.834 286.67 128.529 287.201C128.225 287.732 127.654 288.404 126.818 289.217L124.943 291.051V291.098H129.35V292ZM134.189 292H133.24V285.895C133.24 285.387 133.256 284.906 133.287 284.453C133.205 284.535 133.113 284.621 133.012 284.711C132.91 284.801 132.445 285.182 131.617 285.854L131.102 285.186L133.369 283.434H134.189V292Z" fill="black" fill-opacity="0.38"/>
<path d="M173.35 292H167.719V291.162L169.975 288.895C170.662 288.199 171.115 287.703 171.334 287.406C171.553 287.109 171.717 286.82 171.826 286.539C171.936 286.258 171.99 285.955 171.99 285.631C171.99 285.174 171.852 284.812 171.574 284.547C171.297 284.277 170.912 284.143 170.42 284.143C170.064 284.143 169.727 284.201 169.406 284.318C169.09 284.436 168.736 284.648 168.346 284.957L167.83 284.295C168.619 283.639 169.479 283.311 170.408 283.311C171.213 283.311 171.844 283.518 172.301 283.932C172.758 284.342 172.986 284.895 172.986 285.59C172.986 286.133 172.834 286.67 172.529 287.201C172.225 287.732 171.654 288.404 170.818 289.217L168.943 291.051V291.098H173.35V292ZM180.217 292H174.586V291.162L176.842 288.895C177.529 288.199 177.982 287.703 178.201 287.406C178.42 287.109 178.584 286.82 178.693 286.539C178.803 286.258 178.857 285.955 178.857 285.631C178.857 285.174 178.719 284.812 178.441 284.547C178.164 284.277 177.779 284.143 177.287 284.143C176.932 284.143 176.594 284.201 176.273 284.318C175.957 284.436 175.604 284.648 175.213 284.957L174.697 284.295C175.486 283.639 176.346 283.311 177.275 283.311C178.08 283.311 178.711 283.518 179.168 283.932C179.625 284.342 179.854 284.895 179.854 285.59C179.854 286.133 179.701 286.67 179.396 287.201C179.092 287.732 178.521 288.404 177.686 289.217L175.811 291.051V291.098H180.217V292Z" fill="black" fill-opacity="0.38"/>
<path d="M217.35 292H211.719V291.162L213.975 288.895C214.662 288.199 215.115 287.703 215.334 287.406C215.553 287.109 215.717 286.82 215.826 286.539C215.936 286.258 215.99 285.955 215.99 285.631C215.99 285.174 215.852 284.812 215.574 284.547C215.297 284.277 214.912 284.143 214.42 284.143C214.064 284.143 213.727 284.201 213.406 284.318C213.09 284.436 212.736 284.648 212.346 284.957L211.83 284.295C212.619 283.639 213.479 283.311 214.408 283.311C215.213 283.311 215.844 283.518 216.301 283.932C216.758 284.342 216.986 284.895 216.986 285.59C216.986 286.133 216.834 286.67 216.529 287.201C216.225 287.732 215.654 288.404 214.818 289.217L212.943 291.051V291.098H217.35V292ZM223.895 285.449C223.895 285.996 223.74 286.443 223.432 286.791C223.127 287.139 222.693 287.371 222.131 287.488V287.535C222.818 287.621 223.328 287.84 223.66 288.191C223.992 288.543 224.158 289.004 224.158 289.574C224.158 290.391 223.875 291.02 223.309 291.461C222.742 291.898 221.938 292.117 220.895 292.117C220.441 292.117 220.025 292.082 219.646 292.012C219.271 291.945 218.906 291.826 218.551 291.654V290.729C218.922 290.912 219.316 291.053 219.734 291.15C220.156 291.244 220.555 291.291 220.93 291.291C222.41 291.291 223.15 290.711 223.15 289.551C223.15 288.512 222.334 287.992 220.701 287.992H219.857V287.154H220.713C221.381 287.154 221.91 287.008 222.301 286.715C222.691 286.418 222.887 286.008 222.887 285.484C222.887 285.066 222.742 284.738 222.453 284.5C222.168 284.262 221.779 284.143 221.287 284.143C220.912 284.143 220.559 284.193 220.227 284.295C219.895 284.396 219.516 284.584 219.09 284.857L218.598 284.201C218.949 283.924 219.354 283.707 219.811 283.551C220.271 283.391 220.756 283.311 221.264 283.311C222.096 283.311 222.742 283.502 223.203 283.885C223.664 284.264 223.895 284.785 223.895 285.449Z" fill="black" fill-opacity="0.38"/>
<path d="M261.35 292H255.719V291.162L257.975 288.895C258.662 288.199 259.115 287.703 259.334 287.406C259.553 287.109 259.717 286.82 259.826 286.539C259.936 286.258 259.99 285.955 259.99 285.631C259.99 285.174 259.852 284.812 259.574 284.547C259.297 284.277 258.912 284.143 258.42 284.143C258.064 284.143 257.727 284.201 257.406 284.318C257.09 284.436 256.736 284.648 256.346 284.957L255.83 284.295C256.619 283.639 257.479 283.311 258.408 283.311C259.213 283.311 259.844 283.518 260.301 283.932C260.758 284.342 260.986 284.895 260.986 285.59C260.986 286.133 260.834 286.67 260.529 287.201C260.225 287.732 259.654 288.404 258.818 289.217L256.943 291.051V291.098H261.35V292ZM268.621 290.031H267.35V292H266.418V290.031H262.252V289.182L266.318 283.387H267.35V289.146H268.621V290.031ZM266.418 289.146V286.299C266.418 285.74 266.438 285.109 266.477 284.406H266.43C266.242 284.781 266.066 285.092 265.902 285.338L263.225 289.146H266.418Z" fill="black" fill-opacity="0.38"/>
<path d="M305.35 292H299.719V291.162L301.975 288.895C302.662 288.199 303.115 287.703 303.334 287.406C303.553 287.109 303.717 286.82 303.826 286.539C303.936 286.258 303.99 285.955 303.99 285.631C303.99 285.174 303.852 284.812 303.574 284.547C303.297 284.277 302.912 284.143 302.42 284.143C302.064 284.143 301.727 284.201 301.406 284.318C301.09 284.436 300.736 284.648 300.346 284.957L299.83 284.295C300.619 283.639 301.479 283.311 302.408 283.311C303.213 283.311 303.844 283.518 304.301 283.932C304.758 284.342 304.986 284.895 304.986 285.59C304.986 286.133 304.834 286.67 304.529 287.201C304.225 287.732 303.654 288.404 302.818 289.217L300.943 291.051V291.098H305.35V292ZM309.264 286.768C310.166 286.768 310.875 286.992 311.391 287.441C311.91 287.887 312.17 288.498 312.17 289.275C312.17 290.162 311.887 290.857 311.32 291.361C310.758 291.865 309.98 292.117 308.988 292.117C308.023 292.117 307.287 291.963 306.779 291.654V290.717C307.053 290.893 307.393 291.031 307.799 291.133C308.205 291.23 308.605 291.279 309 291.279C309.688 291.279 310.221 291.117 310.6 290.793C310.982 290.469 311.174 290 311.174 289.387C311.174 288.191 310.441 287.594 308.977 287.594C308.605 287.594 308.109 287.65 307.488 287.764L306.984 287.441L307.307 283.434H311.566V284.33H308.139L307.922 286.902C308.371 286.812 308.818 286.768 309.264 286.768Z" fill="black" fill-opacity="0.38"/>
<path d="M39.3223 292H38.373V285.895C38.373 285.387 38.3887 284.906 38.4199 284.453C38.3379 284.535 38.2461 284.621 38.1445 284.711C38.043 284.801 37.5781 285.182 36.75 285.854L36.2344 285.186L38.502 283.434H39.3223V292ZM48.2168 287.09C48.2168 290.441 46.9199 292.117 44.3262 292.117C43.873 292.117 43.5137 292.078 43.248 292V291.162C43.5605 291.264 43.916 291.314 44.3145 291.314C45.252 291.314 45.959 291.025 46.4355 290.447C46.916 289.865 47.1777 288.975 47.2207 287.775H47.1504C46.9355 288.1 46.6504 288.348 46.2949 288.52C45.9395 288.688 45.5391 288.771 45.0938 288.771C44.3359 288.771 43.7344 288.545 43.2891 288.092C42.8438 287.639 42.6211 287.006 42.6211 286.193C42.6211 285.303 42.8691 284.6 43.3652 284.084C43.8652 283.568 44.5215 283.311 45.334 283.311C45.916 283.311 46.4238 283.461 46.8574 283.762C47.2949 284.059 47.6309 284.494 47.8652 285.068C48.0996 285.639 48.2168 286.312 48.2168 287.09ZM45.334 284.143C44.7754 284.143 44.3438 284.322 44.0391 284.682C43.7344 285.041 43.582 285.541 43.582 286.182C43.582 286.744 43.7227 287.188 44.0039 287.512C44.2852 287.832 44.7129 287.992 45.2871 287.992C45.6426 287.992 45.9688 287.92 46.2656 287.775C46.5664 287.631 46.8027 287.434 46.9746 287.184C47.1465 286.934 47.2324 286.672 47.2324 286.398C47.2324 285.988 47.1523 285.609 46.9922 285.262C46.832 284.914 46.6074 284.641 46.3184 284.441C46.0332 284.242 45.7051 284.143 45.334 284.143Z" fill="black" fill-opacity="0.38"/>
<path d="M85.3496 326H79.7188V325.162L81.9746 322.895C82.6621 322.199 83.1152 321.703 83.334 321.406C83.5527 321.109 83.7168 320.82 83.8262 320.539C83.9355 320.258 83.9902 319.955 83.9902 319.631C83.9902 319.174 83.8516 318.812 83.5742 318.547C83.2969 318.277 82.9121 318.143 82.4199 318.143C82.0645 318.143 81.7266 318.201 81.4062 318.318C81.0898 318.436 80.7363 318.648 80.3457 318.957L79.8301 318.295C80.6191 317.639 81.4785 317.311 82.4082 317.311C83.2129 317.311 83.8438 317.518 84.3008 317.932C84.7578 318.342 84.9863 318.895 84.9863 319.59C84.9863 320.133 84.834 320.67 84.5293 321.201C84.2246 321.732 83.6543 322.404 82.8184 323.217L80.9434 325.051V325.098H85.3496V326ZM87.6699 326L91.2207 318.33H86.5508V317.434H92.252V318.213L88.748 326H87.6699Z" fill="black" fill-opacity="0.38"/>
<path d="M129.35 326H123.719V325.162L125.975 322.895C126.662 322.199 127.115 321.703 127.334 321.406C127.553 321.109 127.717 320.82 127.826 320.539C127.936 320.258 127.99 319.955 127.99 319.631C127.99 319.174 127.852 318.812 127.574 318.547C127.297 318.277 126.912 318.143 126.42 318.143C126.064 318.143 125.727 318.201 125.406 318.318C125.09 318.436 124.736 318.648 124.346 318.957L123.83 318.295C124.619 317.639 125.479 317.311 126.408 317.311C127.213 317.311 127.844 317.518 128.301 317.932C128.758 318.342 128.986 318.895 128.986 319.59C128.986 320.133 128.834 320.67 128.529 321.201C128.225 321.732 127.654 322.404 126.818 323.217L124.943 325.051V325.098H129.35V326ZM133.422 317.311C134.203 317.311 134.822 317.492 135.279 317.855C135.736 318.219 135.965 318.721 135.965 319.361C135.965 319.783 135.834 320.168 135.572 320.516C135.311 320.863 134.893 321.18 134.318 321.465C135.014 321.797 135.508 322.146 135.801 322.514C136.094 322.877 136.24 323.299 136.24 323.779C136.24 324.49 135.992 325.059 135.496 325.484C135 325.906 134.32 326.117 133.457 326.117C132.543 326.117 131.84 325.918 131.348 325.52C130.855 325.117 130.609 324.549 130.609 323.814C130.609 322.834 131.207 322.07 132.402 321.523C131.863 321.219 131.477 320.891 131.242 320.539C131.008 320.184 130.891 319.787 130.891 319.35C130.891 318.729 131.119 318.234 131.576 317.867C132.037 317.496 132.652 317.311 133.422 317.311ZM131.57 323.838C131.57 324.307 131.732 324.672 132.057 324.934C132.385 325.195 132.844 325.326 133.434 325.326C134.016 325.326 134.469 325.189 134.793 324.916C135.117 324.643 135.279 324.268 135.279 323.791C135.279 323.412 135.127 323.076 134.822 322.783C134.518 322.486 133.986 322.199 133.229 321.922C132.646 322.172 132.225 322.449 131.963 322.754C131.701 323.055 131.57 323.416 131.57 323.838ZM133.41 318.102C132.922 318.102 132.539 318.219 132.262 318.453C131.984 318.688 131.846 319 131.846 319.391C131.846 319.75 131.961 320.059 132.191 320.316C132.422 320.574 132.848 320.832 133.469 321.09C134.027 320.855 134.422 320.604 134.652 320.334C134.887 320.064 135.004 319.75 135.004 319.391C135.004 318.996 134.861 318.684 134.576 318.453C134.295 318.219 133.906 318.102 133.41 318.102Z" fill="black" fill-opacity="0.38"/>
<path d="M173.35 326H167.719V325.162L169.975 322.895C170.662 322.199 171.115 321.703 171.334 321.406C171.553 321.109 171.717 320.82 171.826 320.539C171.936 320.258 171.99 319.955 171.99 319.631C171.99 319.174 171.852 318.812 171.574 318.547C171.297 318.277 170.912 318.143 170.42 318.143C170.064 318.143 169.727 318.201 169.406 318.318C169.09 318.436 168.736 318.648 168.346 318.957L167.83 318.295C168.619 317.639 169.479 317.311 170.408 317.311C171.213 317.311 171.844 317.518 172.301 317.932C172.758 318.342 172.986 318.895 172.986 319.59C172.986 320.133 172.834 320.67 172.529 321.201C172.225 321.732 171.654 322.404 170.818 323.217L168.943 325.051V325.098H173.35V326ZM180.217 321.09C180.217 324.441 178.92 326.117 176.326 326.117C175.873 326.117 175.514 326.078 175.248 326V325.162C175.561 325.264 175.916 325.314 176.314 325.314C177.252 325.314 177.959 325.025 178.436 324.447C178.916 323.865 179.178 322.975 179.221 321.775H179.15C178.936 322.1 178.65 322.348 178.295 322.52C177.939 322.688 177.539 322.771 177.094 322.771C176.336 322.771 175.734 322.545 175.289 322.092C174.844 321.639 174.621 321.006 174.621 320.193C174.621 319.303 174.869 318.6 175.365 318.084C175.865 317.568 176.521 317.311 177.334 317.311C177.916 317.311 178.424 317.461 178.857 317.762C179.295 318.059 179.631 318.494 179.865 319.068C180.1 319.639 180.217 320.312 180.217 321.09ZM177.334 318.143C176.775 318.143 176.344 318.322 176.039 318.682C175.734 319.041 175.582 319.541 175.582 320.182C175.582 320.744 175.723 321.188 176.004 321.512C176.285 321.832 176.713 321.992 177.287 321.992C177.643 321.992 177.969 321.92 178.266 321.775C178.566 321.631 178.803 321.434 178.975 321.184C179.146 320.934 179.232 320.672 179.232 320.398C179.232 319.988 179.152 319.609 178.992 319.262C178.832 318.914 178.607 318.641 178.318 318.441C178.033 318.242 177.705 318.143 177.334 318.143Z" fill="black" fill-opacity="0.38"/>
<path d="M217.027 319.449C217.027 319.996 216.873 320.443 216.564 320.791C216.26 321.139 215.826 321.371 215.264 321.488V321.535C215.951 321.621 216.461 321.84 216.793 322.191C217.125 322.543 217.291 323.004 217.291 323.574C217.291 324.391 217.008 325.02 216.441 325.461C215.875 325.898 215.07 326.117 214.027 326.117C213.574 326.117 213.158 326.082 212.779 326.012C212.404 325.945 212.039 325.826 211.684 325.654V324.729C212.055 324.912 212.449 325.053 212.867 325.15C213.289 325.244 213.688 325.291 214.062 325.291C215.543 325.291 216.283 324.711 216.283 323.551C216.283 322.512 215.467 321.992 213.834 321.992H212.99V321.154H213.846C214.514 321.154 215.043 321.008 215.434 320.715C215.824 320.418 216.02 320.008 216.02 319.484C216.02 319.066 215.875 318.738 215.586 318.5C215.301 318.262 214.912 318.143 214.42 318.143C214.045 318.143 213.691 318.193 213.359 318.295C213.027 318.396 212.648 318.584 212.223 318.857L211.73 318.201C212.082 317.924 212.486 317.707 212.943 317.551C213.404 317.391 213.889 317.311 214.396 317.311C215.229 317.311 215.875 317.502 216.336 317.885C216.797 318.264 217.027 318.785 217.027 319.449ZM224.264 321.705C224.264 323.186 224.029 324.291 223.561 325.021C223.096 325.752 222.383 326.117 221.422 326.117C220.5 326.117 219.799 325.744 219.318 324.998C218.838 324.248 218.598 323.15 218.598 321.705C218.598 320.213 218.83 319.105 219.295 318.383C219.76 317.66 220.469 317.299 221.422 317.299C222.352 317.299 223.057 317.676 223.537 318.43C224.021 319.184 224.264 320.275 224.264 321.705ZM219.582 321.705C219.582 322.951 219.729 323.859 220.021 324.43C220.314 324.996 220.781 325.279 221.422 325.279C222.07 325.279 222.539 324.992 222.828 324.418C223.121 323.84 223.268 322.936 223.268 321.705C223.268 320.475 223.121 319.574 222.828 319.004C222.539 318.43 222.07 318.143 221.422 318.143C220.781 318.143 220.314 318.426 220.021 318.992C219.729 319.555 219.582 320.459 219.582 321.705Z" fill="black" fill-opacity="0.38"/>
<path d="M261.027 319.449C261.027 319.996 260.873 320.443 260.564 320.791C260.26 321.139 259.826 321.371 259.264 321.488V321.535C259.951 321.621 260.461 321.84 260.793 322.191C261.125 322.543 261.291 323.004 261.291 323.574C261.291 324.391 261.008 325.02 260.441 325.461C259.875 325.898 259.07 326.117 258.027 326.117C257.574 326.117 257.158 326.082 256.779 326.012C256.404 325.945 256.039 325.826 255.684 325.654V324.729C256.055 324.912 256.449 325.053 256.867 325.15C257.289 325.244 257.688 325.291 258.062 325.291C259.543 325.291 260.283 324.711 260.283 323.551C260.283 322.512 259.467 321.992 257.834 321.992H256.99V321.154H257.846C258.514 321.154 259.043 321.008 259.434 320.715C259.824 320.418 260.02 320.008 260.02 319.484C260.02 319.066 259.875 318.738 259.586 318.5C259.301 318.262 258.912 318.143 258.42 318.143C258.045 318.143 257.691 318.193 257.359 318.295C257.027 318.396 256.648 318.584 256.223 318.857L255.73 318.201C256.082 317.924 256.486 317.707 256.943 317.551C257.404 317.391 257.889 317.311 258.396 317.311C259.229 317.311 259.875 317.502 260.336 317.885C260.797 318.264 261.027 318.785 261.027 319.449ZM266.189 326H265.24V319.895C265.24 319.387 265.256 318.906 265.287 318.453C265.205 318.535 265.113 318.621 265.012 318.711C264.91 318.801 264.445 319.182 263.617 319.854L263.102 319.186L265.369 317.434H266.189V326Z" fill="black" fill-opacity="0.38"/>
<path d="M305.396 321.705C305.396 323.186 305.162 324.291 304.693 325.021C304.229 325.752 303.516 326.117 302.555 326.117C301.633 326.117 300.932 325.744 300.451 324.998C299.971 324.248 299.73 323.15 299.73 321.705C299.73 320.213 299.963 319.105 300.428 318.383C300.893 317.66 301.602 317.299 302.555 317.299C303.484 317.299 304.189 317.676 304.67 318.43C305.154 319.184 305.396 320.275 305.396 321.705ZM300.715 321.705C300.715 322.951 300.861 323.859 301.154 324.43C301.447 324.996 301.914 325.279 302.555 325.279C303.203 325.279 303.672 324.992 303.961 324.418C304.254 323.84 304.4 322.936 304.4 321.705C304.4 320.475 304.254 319.574 303.961 319.004C303.672 318.43 303.203 318.143 302.555 318.143C301.914 318.143 301.447 318.426 301.154 318.992C300.861 319.555 300.715 320.459 300.715 321.705ZM310.189 326H309.24V319.895C309.24 319.387 309.256 318.906 309.287 318.453C309.205 318.535 309.113 318.621 309.012 318.711C308.91 318.801 308.445 319.182 307.617 319.854L307.102 319.186L309.369 317.434H310.189V326Z" fill="black" fill-opacity="0.38"/>
<path d="M41.3496 326H35.7188V325.162L37.9746 322.895C38.6621 322.199 39.1152 321.703 39.334 321.406C39.5527 321.109 39.7168 320.82 39.8262 320.539C39.9355 320.258 39.9902 319.955 39.9902 319.631C39.9902 319.174 39.8516 318.812 39.5742 318.547C39.2969 318.277 38.9121 318.143 38.4199 318.143C38.0645 318.143 37.7266 318.201 37.4062 318.318C37.0898 318.436 36.7363 318.648 36.3457 318.957L35.8301 318.295C36.6191 317.639 37.4785 317.311 38.4082 317.311C39.2129 317.311 39.8438 317.518 40.3008 317.932C40.7578 318.342 40.9863 318.895 40.9863 319.59C40.9863 320.133 40.834 320.67 40.5293 321.201C40.2246 321.732 39.6543 322.404 38.8184 323.217L36.9434 325.051V325.098H41.3496V326ZM42.6855 322.338C42.6855 320.654 43.0117 319.396 43.6641 318.564C44.3203 317.729 45.2891 317.311 46.5703 317.311C47.0117 317.311 47.3594 317.348 47.6133 317.422V318.26C47.3125 318.162 46.9688 318.113 46.582 318.113C45.6641 318.113 44.9629 318.4 44.4785 318.975C43.9941 319.545 43.7285 320.443 43.6816 321.67H43.752C44.1816 320.998 44.8613 320.662 45.791 320.662C46.5605 320.662 47.166 320.895 47.6074 321.359C48.0527 321.824 48.2754 322.455 48.2754 323.252C48.2754 324.143 48.0312 324.844 47.543 325.355C47.0586 325.863 46.4023 326.117 45.5742 326.117C44.6875 326.117 43.9844 325.785 43.4648 325.121C42.9453 324.453 42.6855 323.525 42.6855 322.338ZM45.5625 325.291C46.1172 325.291 46.5469 325.117 46.8516 324.77C47.1602 324.418 47.3145 323.912 47.3145 323.252C47.3145 322.686 47.1719 322.24 46.8867 321.916C46.6016 321.592 46.1758 321.43 45.6094 321.43C45.2578 321.43 44.9355 321.502 44.6426 321.646C44.3496 321.791 44.1152 321.99 43.9395 322.244C43.7676 322.498 43.6816 322.762 43.6816 323.035C43.6816 323.438 43.7598 323.812 43.916 324.16C44.0723 324.508 44.293 324.783 44.5781 324.986C44.8672 325.189 45.1953 325.291 45.5625 325.291Z" fill="black" fill-opacity="0.38"/>
<path d="M36.4277 151.635C36.4277 153.049 36.043 154.131 35.2734 154.881C34.5078 155.627 33.4043 156 31.9629 156H29.5898V147.434H32.2148C33.5469 147.434 34.582 147.803 35.3203 148.541C36.0586 149.279 36.4277 150.311 36.4277 151.635ZM35.373 151.67C35.373 150.553 35.0918 149.711 34.5293 149.145C33.9707 148.578 33.1387 148.295 32.0332 148.295H30.5859V155.139H31.7988C32.9863 155.139 33.8789 154.848 34.4766 154.266C35.0742 153.68 35.373 152.814 35.373 151.67ZM43.7402 152.783C43.7402 153.83 43.4766 154.648 42.9492 155.238C42.4219 155.824 41.6934 156.117 40.7637 156.117C40.1895 156.117 39.6797 155.982 39.2344 155.713C38.7891 155.443 38.4453 155.057 38.2031 154.553C37.9609 154.049 37.8398 153.459 37.8398 152.783C37.8398 151.736 38.1016 150.922 38.625 150.34C39.1484 149.754 39.875 149.461 40.8047 149.461C41.7031 149.461 42.416 149.76 42.9434 150.357C43.4746 150.955 43.7402 151.764 43.7402 152.783ZM38.8477 152.783C38.8477 153.604 39.0117 154.229 39.3398 154.658C39.668 155.088 40.1504 155.303 40.7871 155.303C41.4238 155.303 41.9062 155.09 42.2344 154.664C42.5664 154.234 42.7324 153.607 42.7324 152.783C42.7324 151.967 42.5664 151.348 42.2344 150.926C41.9062 150.5 41.4199 150.287 40.7754 150.287C40.1387 150.287 39.6582 150.496 39.334 150.914C39.0098 151.332 38.8477 151.955 38.8477 152.783ZM53.6367 156V151.822C53.6367 151.311 53.5273 150.928 53.3086 150.674C53.0898 150.416 52.75 150.287 52.2891 150.287C51.6836 150.287 51.2363 150.461 50.9473 150.809C50.6582 151.156 50.5137 151.691 50.5137 152.414V156H49.541V151.822C49.541 151.311 49.4316 150.928 49.2129 150.674C48.9941 150.416 48.6523 150.287 48.1875 150.287C47.5781 150.287 47.1309 150.471 46.8457 150.838C46.5645 151.201 46.4238 151.799 46.4238 152.631V156H45.4512V149.578H46.2422L46.4004 150.457H46.4473C46.6309 150.145 46.8887 149.9 47.2207 149.725C47.5566 149.549 47.9316 149.461 48.3457 149.461C49.3496 149.461 50.0059 149.824 50.3145 150.551H50.3613C50.5527 150.215 50.8301 149.949 51.1934 149.754C51.5566 149.559 51.9707 149.461 52.4355 149.461C53.1621 149.461 53.7051 149.648 54.0645 150.023C54.4277 150.395 54.6094 150.99 54.6094 151.811V156H53.6367Z" fill="black" fill-opacity="0.56"/>
<path d="M301.699 153.721C301.699 154.475 301.426 155.062 300.879 155.484C300.332 155.906 299.59 156.117 298.652 156.117C297.637 156.117 296.855 155.986 296.309 155.725V154.764C296.66 154.912 297.043 155.029 297.457 155.115C297.871 155.201 298.281 155.244 298.688 155.244C299.352 155.244 299.852 155.119 300.188 154.869C300.523 154.615 300.691 154.264 300.691 153.814C300.691 153.518 300.631 153.275 300.51 153.088C300.393 152.896 300.193 152.721 299.912 152.561C299.635 152.4 299.211 152.219 298.641 152.016C297.844 151.73 297.273 151.393 296.93 151.002C296.59 150.611 296.42 150.102 296.42 149.473C296.42 148.812 296.668 148.287 297.164 147.896C297.66 147.506 298.316 147.311 299.133 147.311C299.984 147.311 300.768 147.467 301.482 147.779L301.172 148.646C300.465 148.35 299.777 148.201 299.109 148.201C298.582 148.201 298.17 148.314 297.873 148.541C297.576 148.768 297.428 149.082 297.428 149.484C297.428 149.781 297.482 150.025 297.592 150.217C297.701 150.404 297.885 150.578 298.143 150.738C298.404 150.895 298.803 151.068 299.338 151.26C300.236 151.58 300.854 151.924 301.189 152.291C301.529 152.658 301.699 153.135 301.699 153.721ZM307.254 156L307.061 155.086H307.014C306.693 155.488 306.373 155.762 306.053 155.906C305.736 156.047 305.34 156.117 304.863 156.117C304.227 156.117 303.727 155.953 303.363 155.625C303.004 155.297 302.824 154.83 302.824 154.225C302.824 152.928 303.861 152.248 305.936 152.186L307.025 152.15V151.752C307.025 151.248 306.916 150.877 306.697 150.639C306.482 150.396 306.137 150.275 305.66 150.275C305.125 150.275 304.52 150.439 303.844 150.768L303.545 150.023C303.861 149.852 304.207 149.717 304.582 149.619C304.961 149.521 305.34 149.473 305.719 149.473C306.484 149.473 307.051 149.643 307.418 149.982C307.789 150.322 307.975 150.867 307.975 151.617V156H307.254ZM305.057 155.314C305.662 155.314 306.137 155.148 306.48 154.816C306.828 154.484 307.002 154.02 307.002 153.422V152.842L306.029 152.883C305.256 152.91 304.697 153.031 304.354 153.246C304.014 153.457 303.844 153.787 303.844 154.236C303.844 154.588 303.949 154.855 304.16 155.039C304.375 155.223 304.674 155.314 305.057 155.314ZM304.828 148.582C305.016 148.34 305.217 148.047 305.432 147.703C305.65 147.359 305.822 147.061 305.947 146.807H307.131V146.93C306.959 147.184 306.703 147.496 306.363 147.867C306.023 148.238 305.729 148.525 305.479 148.729H304.828V148.582ZM312.973 149.473C313.816 149.473 314.471 149.762 314.936 150.34C315.404 150.914 315.639 151.729 315.639 152.783C315.639 153.838 315.402 154.658 314.93 155.244C314.461 155.826 313.809 156.117 312.973 156.117C312.555 156.117 312.172 156.041 311.824 155.889C311.48 155.732 311.191 155.494 310.957 155.174H310.887L310.682 156H309.984V146.883H310.957V149.098C310.957 149.594 310.941 150.039 310.91 150.434H310.957C311.41 149.793 312.082 149.473 312.973 149.473ZM312.832 150.287C312.168 150.287 311.689 150.479 311.396 150.861C311.104 151.24 310.957 151.881 310.957 152.783C310.957 153.686 311.107 154.332 311.408 154.723C311.709 155.109 312.191 155.303 312.855 155.303C313.453 155.303 313.898 155.086 314.191 154.652C314.484 154.215 314.631 153.588 314.631 152.771C314.631 151.936 314.484 151.312 314.191 150.902C313.898 150.492 313.445 150.287 312.832 150.287Z" fill="black" fill-opacity="0.56"/>
<path d="M258.203 153.721C258.203 154.475 257.93 155.062 257.383 155.484C256.836 155.906 256.094 156.117 255.156 156.117C254.141 156.117 253.359 155.986 252.812 155.725V154.764C253.164 154.912 253.547 155.029 253.961 155.115C254.375 155.201 254.785 155.244 255.191 155.244C255.855 155.244 256.355 155.119 256.691 154.869C257.027 154.615 257.195 154.264 257.195 153.814C257.195 153.518 257.135 153.275 257.014 153.088C256.896 152.896 256.697 152.721 256.416 152.561C256.139 152.4 255.715 152.219 255.145 152.016C254.348 151.73 253.777 151.393 253.434 151.002C253.094 150.611 252.924 150.102 252.924 149.473C252.924 148.812 253.172 148.287 253.668 147.896C254.164 147.506 254.82 147.311 255.637 147.311C256.488 147.311 257.271 147.467 257.986 147.779L257.676 148.646C256.969 148.35 256.281 148.201 255.613 148.201C255.086 148.201 254.674 148.314 254.377 148.541C254.08 148.768 253.932 149.082 253.932 149.484C253.932 149.781 253.986 150.025 254.096 150.217C254.205 150.404 254.389 150.578 254.646 150.738C254.908 150.895 255.307 151.068 255.842 151.26C256.74 151.58 257.357 151.924 257.693 152.291C258.033 152.658 258.203 153.135 258.203 153.721ZM262.521 156.117C261.572 156.117 260.822 155.828 260.271 155.25C259.725 154.672 259.451 153.869 259.451 152.842C259.451 151.807 259.705 150.984 260.213 150.375C260.725 149.766 261.41 149.461 262.27 149.461C263.074 149.461 263.711 149.727 264.18 150.258C264.648 150.785 264.883 151.482 264.883 152.35V152.965H260.459C260.479 153.719 260.668 154.291 261.027 154.682C261.391 155.072 261.9 155.268 262.557 155.268C263.248 155.268 263.932 155.123 264.607 154.834V155.701C264.264 155.85 263.938 155.955 263.629 156.018C263.324 156.084 262.955 156.117 262.521 156.117ZM262.258 150.275C261.742 150.275 261.33 150.443 261.021 150.779C260.717 151.115 260.537 151.58 260.482 152.174H263.84C263.84 151.561 263.703 151.092 263.43 150.768C263.156 150.439 262.766 150.275 262.258 150.275ZM268.094 152.713L265.861 149.578H266.969L268.662 152.039L270.35 149.578H271.445L269.213 152.713L271.562 156H270.461L268.662 153.398L266.846 156H265.744L268.094 152.713Z" fill="black" fill-opacity="0.56"/>
<path d="M216.734 151.705C216.734 152.803 216.514 153.715 216.072 154.441C215.631 155.168 215.008 155.66 214.203 155.918L216.242 158.039H214.795L213.125 156.105L212.803 156.117C211.541 156.117 210.566 155.732 209.879 154.963C209.195 154.189 208.854 153.1 208.854 151.693C208.854 150.299 209.197 149.219 209.885 148.453C210.572 147.684 211.549 147.299 212.814 147.299C214.045 147.299 215.006 147.689 215.697 148.471C216.389 149.252 216.734 150.33 216.734 151.705ZM209.908 151.705C209.908 152.865 210.154 153.746 210.646 154.348C211.143 154.945 211.861 155.244 212.803 155.244C213.752 155.244 214.469 154.945 214.953 154.348C215.438 153.75 215.68 152.869 215.68 151.705C215.68 150.553 215.438 149.68 214.953 149.086C214.473 148.488 213.76 148.189 212.814 148.189C211.865 148.189 211.143 148.49 210.646 149.092C210.154 149.689 209.908 150.561 209.908 151.705ZM219.418 149.578V153.744C219.418 154.268 219.537 154.658 219.775 154.916C220.014 155.174 220.387 155.303 220.895 155.303C221.566 155.303 222.057 155.119 222.365 154.752C222.678 154.385 222.834 153.785 222.834 152.953V149.578H223.807V156H223.004L222.863 155.139H222.811C222.611 155.455 222.334 155.697 221.979 155.865C221.627 156.033 221.225 156.117 220.771 156.117C219.99 156.117 219.404 155.932 219.014 155.561C218.627 155.189 218.434 154.596 218.434 153.779V149.578H219.418ZM226.848 156H225.875V149.578H226.848V156ZM225.793 147.838C225.793 147.615 225.848 147.453 225.957 147.352C226.066 147.246 226.203 147.193 226.367 147.193C226.523 147.193 226.658 147.246 226.771 147.352C226.885 147.457 226.941 147.619 226.941 147.838C226.941 148.057 226.885 148.221 226.771 148.33C226.658 148.436 226.523 148.488 226.367 148.488C226.203 148.488 226.066 148.436 225.957 148.33C225.848 148.221 225.793 148.057 225.793 147.838Z" fill="black" fill-opacity="0.56"/>
<path d="M170.912 151.705C170.912 152.803 170.691 153.715 170.25 154.441C169.809 155.168 169.186 155.66 168.381 155.918L170.42 158.039H168.973L167.303 156.105L166.98 156.117C165.719 156.117 164.744 155.732 164.057 154.963C163.373 154.189 163.031 153.1 163.031 151.693C163.031 150.299 163.375 149.219 164.062 148.453C164.75 147.684 165.727 147.299 166.992 147.299C168.223 147.299 169.184 147.689 169.875 148.471C170.566 149.252 170.912 150.33 170.912 151.705ZM164.086 151.705C164.086 152.865 164.332 153.746 164.824 154.348C165.32 154.945 166.039 155.244 166.98 155.244C167.93 155.244 168.646 154.945 169.131 154.348C169.615 153.75 169.857 152.869 169.857 151.705C169.857 150.553 169.615 149.68 169.131 149.086C168.65 148.488 167.938 148.189 166.992 148.189C166.043 148.189 165.32 148.49 164.824 149.092C164.332 149.689 164.086 150.561 164.086 151.705ZM173.596 149.578V153.744C173.596 154.268 173.715 154.658 173.953 154.916C174.191 155.174 174.564 155.303 175.072 155.303C175.744 155.303 176.234 155.119 176.543 154.752C176.855 154.385 177.012 153.785 177.012 152.953V149.578H177.984V156H177.182L177.041 155.139H176.988C176.789 155.455 176.512 155.697 176.156 155.865C175.805 156.033 175.402 156.117 174.949 156.117C174.168 156.117 173.582 155.932 173.191 155.561C172.805 155.189 172.611 154.596 172.611 153.779V149.578H173.596ZM184.002 156L183.809 155.086H183.762C183.441 155.488 183.121 155.762 182.801 155.906C182.484 156.047 182.088 156.117 181.611 156.117C180.975 156.117 180.475 155.953 180.111 155.625C179.752 155.297 179.572 154.83 179.572 154.225C179.572 152.928 180.609 152.248 182.684 152.186L183.773 152.15V151.752C183.773 151.248 183.664 150.877 183.445 150.639C183.23 150.396 182.885 150.275 182.408 150.275C181.873 150.275 181.268 150.439 180.592 150.768L180.293 150.023C180.609 149.852 180.955 149.717 181.33 149.619C181.709 149.521 182.088 149.473 182.467 149.473C183.232 149.473 183.799 149.643 184.166 149.982C184.537 150.322 184.723 150.867 184.723 151.617V156H184.002ZM181.805 155.314C182.41 155.314 182.885 155.148 183.229 154.816C183.576 154.484 183.75 154.02 183.75 153.422V152.842L182.777 152.883C182.004 152.91 181.445 153.031 181.102 153.246C180.762 153.457 180.592 153.787 180.592 154.236C180.592 154.588 180.697 154.855 180.908 155.039C181.123 155.223 181.422 155.314 181.805 155.314Z" fill="black" fill-opacity="0.56"/>
<path d="M124.674 156H123.678V148.318H120.965V147.434H127.387V148.318H124.674V156ZM131.248 156.117C130.299 156.117 129.549 155.828 128.998 155.25C128.451 154.672 128.178 153.869 128.178 152.842C128.178 151.807 128.432 150.984 128.939 150.375C129.451 149.766 130.137 149.461 130.996 149.461C131.801 149.461 132.438 149.727 132.906 150.258C133.375 150.785 133.609 151.482 133.609 152.35V152.965H129.186C129.205 153.719 129.395 154.291 129.754 154.682C130.117 155.072 130.627 155.268 131.283 155.268C131.975 155.268 132.658 155.123 133.334 154.834V155.701C132.99 155.85 132.664 155.955 132.355 156.018C132.051 156.084 131.682 156.117 131.248 156.117ZM130.984 150.275C130.469 150.275 130.057 150.443 129.748 150.779C129.443 151.115 129.264 151.58 129.209 152.174H132.566C132.566 151.561 132.43 151.092 132.156 150.768C131.883 150.439 131.492 150.275 130.984 150.275ZM138.203 149.461C138.488 149.461 138.744 149.484 138.971 149.531L138.836 150.434C138.57 150.375 138.336 150.346 138.133 150.346C137.613 150.346 137.168 150.557 136.797 150.979C136.43 151.4 136.246 151.926 136.246 152.555V156H135.273V149.578H136.076L136.188 150.768H136.234C136.473 150.35 136.76 150.027 137.096 149.801C137.432 149.574 137.801 149.461 138.203 149.461Z" fill="black" fill-opacity="0.56"/>
<path d="M82.0625 153.721C82.0625 154.475 81.7891 155.062 81.2422 155.484C80.6953 155.906 79.9531 156.117 79.0156 156.117C78 156.117 77.2188 155.986 76.6719 155.725V154.764C77.0234 154.912 77.4062 155.029 77.8203 155.115C78.2344 155.201 78.6445 155.244 79.0508 155.244C79.7148 155.244 80.2148 155.119 80.5508 154.869C80.8867 154.615 81.0547 154.264 81.0547 153.814C81.0547 153.518 80.9941 153.275 80.873 153.088C80.7559 152.896 80.5566 152.721 80.2754 152.561C79.998 152.4 79.5742 152.219 79.0039 152.016C78.207 151.73 77.6367 151.393 77.293 151.002C76.9531 150.611 76.7832 150.102 76.7832 149.473C76.7832 148.812 77.0312 148.287 77.5273 147.896C78.0234 147.506 78.6797 147.311 79.4961 147.311C80.3477 147.311 81.1309 147.467 81.8457 147.779L81.5352 148.646C80.8281 148.35 80.1406 148.201 79.4727 148.201C78.9453 148.201 78.5332 148.314 78.2363 148.541C77.9395 148.768 77.791 149.082 77.791 149.484C77.791 149.781 77.8457 150.025 77.9551 150.217C78.0645 150.404 78.248 150.578 78.5059 150.738C78.7676 150.895 79.166 151.068 79.7012 151.26C80.5996 151.58 81.2168 151.924 81.5527 152.291C81.8926 152.658 82.0625 153.135 82.0625 153.721ZM86.3809 156.117C85.4316 156.117 84.6816 155.828 84.1309 155.25C83.584 154.672 83.3105 153.869 83.3105 152.842C83.3105 151.807 83.5645 150.984 84.0723 150.375C84.584 149.766 85.2695 149.461 86.1289 149.461C86.9336 149.461 87.5703 149.727 88.0391 150.258C88.5078 150.785 88.7422 151.482 88.7422 152.35V152.965H84.3184C84.3379 153.719 84.5273 154.291 84.8867 154.682C85.25 155.072 85.7598 155.268 86.416 155.268C87.1074 155.268 87.791 155.123 88.4668 154.834V155.701C88.123 155.85 87.7969 155.955 87.4883 156.018C87.1836 156.084 86.8145 156.117 86.3809 156.117ZM86.1172 150.275C85.6016 150.275 85.1895 150.443 84.8809 150.779C84.5762 151.115 84.3965 151.58 84.3418 152.174H87.6992C87.6992 151.561 87.5625 151.092 87.2891 150.768C87.0156 150.439 86.625 150.275 86.1172 150.275ZM95.6621 149.578V150.193L94.4727 150.334C94.582 150.471 94.6797 150.65 94.7656 150.873C94.8516 151.092 94.8945 151.34 94.8945 151.617C94.8945 152.246 94.6797 152.748 94.25 153.123C93.8203 153.498 93.2305 153.686 92.4805 153.686C92.2891 153.686 92.1094 153.67 91.9414 153.639C91.5273 153.857 91.3203 154.133 91.3203 154.465C91.3203 154.641 91.3926 154.771 91.5371 154.857C91.6816 154.939 91.9297 154.98 92.2812 154.98H93.418C94.1133 154.98 94.6465 155.127 95.0176 155.42C95.3926 155.713 95.5801 156.139 95.5801 156.697C95.5801 157.408 95.2949 157.949 94.7246 158.32C94.1543 158.695 93.3223 158.883 92.2285 158.883C91.3887 158.883 90.7402 158.727 90.2832 158.414C89.8301 158.102 89.6035 157.66 89.6035 157.09C89.6035 156.699 89.7285 156.361 89.9785 156.076C90.2285 155.791 90.5801 155.598 91.0332 155.496C90.8691 155.422 90.7305 155.307 90.6172 155.15C90.5078 154.994 90.4531 154.812 90.4531 154.605C90.4531 154.371 90.5156 154.166 90.6406 153.99C90.7656 153.814 90.9629 153.645 91.2324 153.48C90.9004 153.344 90.6289 153.111 90.418 152.783C90.2109 152.455 90.1074 152.08 90.1074 151.658C90.1074 150.955 90.3184 150.414 90.7402 150.035C91.1621 149.652 91.7598 149.461 92.5332 149.461C92.8691 149.461 93.1719 149.5 93.4414 149.578H95.6621ZM90.541 157.078C90.541 157.426 90.6875 157.689 90.9805 157.869C91.2734 158.049 91.6934 158.139 92.2402 158.139C93.0566 158.139 93.6602 158.016 94.0508 157.77C94.4453 157.527 94.6426 157.197 94.6426 156.779C94.6426 156.432 94.5352 156.189 94.3203 156.053C94.1055 155.92 93.7012 155.854 93.1074 155.854H91.9414C91.5 155.854 91.1562 155.959 90.9102 156.17C90.6641 156.381 90.541 156.684 90.541 157.078ZM91.0684 151.635C91.0684 152.084 91.1953 152.424 91.4492 152.654C91.7031 152.885 92.0566 153 92.5098 153C93.459 153 93.9336 152.539 93.9336 151.617C93.9336 150.652 93.4531 150.17 92.4922 150.17C92.0352 150.17 91.6836 150.293 91.4375 150.539C91.1914 150.785 91.0684 151.15 91.0684 151.635Z" fill="black" fill-opacity="0.56"/>
<path fill-rule="evenodd" clip-rule="evenodd" d="M41.2662 110.079C41.6715 109.704 41.6641 109.089 41.261 108.716L41.2255 108.684C40.8173 108.306 40.1559 108.306 39.755 108.677L34.7315 113.323C34.3275 113.697 34.3306 114.306 34.7315 114.677L39.755 119.323C40.159 119.697 40.8224 119.689 41.2255 119.316L41.261 119.284C41.6691 118.906 41.6737 118.298 41.2662 117.921L37.027 114L41.2662 110.079Z" fill="#FF8822"/>
<path fill-rule="evenodd" clip-rule="evenodd" d="M306.734 117.921C306.328 118.296 306.336 118.911 306.739 119.284L306.774 119.316C307.182 119.694 307.844 119.694 308.245 119.323L313.268 114.677C313.672 114.303 313.669 113.694 313.268 113.323L308.245 108.677C307.841 108.303 307.177 108.311 306.774 108.684L306.739 108.716C306.331 109.094 306.326 109.702 306.734 110.079L310.973 114L306.734 117.921Z" fill="#FF8822"/>
<path d="M131.148 120H129.305V114.672C129.305 114.01 129.18 113.518 128.93 113.195C128.68 112.867 128.289 112.703 127.758 112.703C127.049 112.703 126.529 112.935 126.195 113.398C125.867 113.857 125.703 114.622 125.703 115.695V120H123.867V111.359H125.305L125.562 112.492H125.656C125.896 112.081 126.242 111.763 126.695 111.539C127.154 111.315 127.656 111.203 128.203 111.203C129.531 111.203 130.411 111.656 130.844 112.562H130.969C131.224 112.135 131.583 111.802 132.047 111.562C132.51 111.323 133.042 111.203 133.641 111.203C134.672 111.203 135.422 111.464 135.891 111.984C136.365 112.505 136.602 113.299 136.602 114.367V120H134.766V114.672C134.766 114.01 134.638 113.518 134.383 113.195C134.133 112.867 133.742 112.703 133.211 112.703C132.497 112.703 131.974 112.927 131.641 113.375C131.312 113.818 131.148 114.5 131.148 115.422V120ZM144.57 120L144.203 118.797H144.141C143.724 119.323 143.305 119.682 142.883 119.875C142.461 120.062 141.919 120.156 141.258 120.156C140.409 120.156 139.745 119.927 139.266 119.469C138.792 119.01 138.555 118.362 138.555 117.523C138.555 116.633 138.885 115.961 139.547 115.508C140.208 115.055 141.216 114.807 142.57 114.766L144.062 114.719V114.258C144.062 113.706 143.932 113.294 143.672 113.023C143.417 112.747 143.018 112.609 142.477 112.609C142.034 112.609 141.609 112.674 141.203 112.805C140.797 112.935 140.406 113.089 140.031 113.266L139.438 111.953C139.906 111.708 140.419 111.523 140.977 111.398C141.534 111.268 142.06 111.203 142.555 111.203C143.654 111.203 144.482 111.443 145.039 111.922C145.602 112.401 145.883 113.154 145.883 114.18V120H144.57ZM141.836 118.75C142.503 118.75 143.036 118.565 143.438 118.195C143.844 117.82 144.047 117.297 144.047 116.625V115.875L142.938 115.922C142.073 115.953 141.443 116.099 141.047 116.359C140.656 116.615 140.461 117.008 140.461 117.539C140.461 117.924 140.576 118.224 140.805 118.438C141.034 118.646 141.378 118.75 141.836 118.75ZM150.281 120H148.445V111.359H150.281V120ZM148.336 109.07C148.336 108.742 148.424 108.49 148.602 108.312C148.784 108.135 149.042 108.047 149.375 108.047C149.698 108.047 149.948 108.135 150.125 108.312C150.307 108.49 150.398 108.742 150.398 109.07C150.398 109.383 150.307 109.63 150.125 109.812C149.948 109.99 149.698 110.078 149.375 110.078C149.042 110.078 148.784 109.99 148.602 109.812C148.424 109.63 148.336 109.383 148.336 109.07ZM160.578 115.664C160.578 117.076 160.216 118.177 159.492 118.969C158.768 119.76 157.76 120.156 156.469 120.156C155.661 120.156 154.948 119.974 154.328 119.609C153.708 119.245 153.232 118.721 152.898 118.039C152.565 117.357 152.398 116.565 152.398 115.664C152.398 114.263 152.758 113.169 153.477 112.383C154.195 111.596 155.208 111.203 156.516 111.203C157.766 111.203 158.755 111.607 159.484 112.414C160.214 113.216 160.578 114.299 160.578 115.664ZM154.289 115.664C154.289 117.659 155.026 118.656 156.5 118.656C157.958 118.656 158.688 117.659 158.688 115.664C158.688 113.69 157.953 112.703 156.484 112.703C155.714 112.703 155.154 112.958 154.805 113.469C154.461 113.979 154.289 114.711 154.289 115.664ZM169.766 120.156C168.688 120.156 167.846 119.766 167.242 118.984C166.638 118.203 166.336 117.107 166.336 115.695C166.336 114.279 166.641 113.177 167.25 112.391C167.865 111.599 168.714 111.203 169.797 111.203C170.932 111.203 171.797 111.622 172.391 112.461H172.484C172.396 111.841 172.352 111.352 172.352 110.992V107.844H174.195V120H172.758L172.438 118.867H172.352C171.763 119.727 170.901 120.156 169.766 120.156ZM170.258 118.672C171.013 118.672 171.562 118.461 171.906 118.039C172.25 117.612 172.427 116.922 172.438 115.969V115.711C172.438 114.622 172.26 113.849 171.906 113.391C171.552 112.932 170.997 112.703 170.242 112.703C169.596 112.703 169.099 112.966 168.75 113.492C168.401 114.013 168.227 114.758 168.227 115.727C168.227 116.685 168.396 117.417 168.734 117.922C169.073 118.422 169.581 118.672 170.258 118.672ZM180.594 120.156C179.25 120.156 178.198 119.766 177.438 118.984C176.682 118.198 176.305 117.117 176.305 115.742C176.305 114.331 176.656 113.221 177.359 112.414C178.062 111.607 179.029 111.203 180.258 111.203C181.398 111.203 182.299 111.549 182.961 112.242C183.622 112.935 183.953 113.888 183.953 115.102V116.094H178.195C178.221 116.932 178.448 117.578 178.875 118.031C179.302 118.479 179.904 118.703 180.68 118.703C181.19 118.703 181.664 118.656 182.102 118.562C182.544 118.464 183.018 118.302 183.523 118.078V119.57C183.076 119.784 182.622 119.935 182.164 120.023C181.706 120.112 181.182 120.156 180.594 120.156ZM180.258 112.594C179.674 112.594 179.206 112.779 178.852 113.148C178.503 113.518 178.294 114.057 178.227 114.766H182.148C182.138 114.052 181.966 113.513 181.633 113.148C181.299 112.779 180.841 112.594 180.258 112.594ZM197.328 120H189.586V118.609L192.531 115.648C193.401 114.758 193.977 114.128 194.258 113.758C194.544 113.383 194.753 113.031 194.883 112.703C195.013 112.375 195.078 112.023 195.078 111.648C195.078 111.133 194.922 110.727 194.609 110.43C194.302 110.133 193.875 109.984 193.328 109.984C192.891 109.984 192.466 110.065 192.055 110.227C191.648 110.388 191.177 110.68 190.641 111.102L189.648 109.891C190.284 109.354 190.901 108.974 191.5 108.75C192.099 108.526 192.737 108.414 193.414 108.414C194.477 108.414 195.328 108.693 195.969 109.25C196.609 109.802 196.93 110.547 196.93 111.484C196.93 112 196.836 112.49 196.648 112.953C196.466 113.417 196.182 113.896 195.797 114.391C195.417 114.88 194.781 115.544 193.891 116.383L191.906 118.305V118.383H197.328V120ZM206.469 114.289C206.469 116.273 206.148 117.747 205.508 118.711C204.872 119.674 203.898 120.156 202.586 120.156C201.315 120.156 200.352 119.659 199.695 118.664C199.039 117.669 198.711 116.211 198.711 114.289C198.711 112.273 199.029 110.789 199.664 109.836C200.305 108.878 201.279 108.398 202.586 108.398C203.862 108.398 204.828 108.898 205.484 109.898C206.141 110.898 206.469 112.362 206.469 114.289ZM200.57 114.289C200.57 115.846 200.729 116.958 201.047 117.625C201.37 118.292 201.883 118.625 202.586 118.625C203.289 118.625 203.802 118.286 204.125 117.609C204.453 116.932 204.617 115.826 204.617 114.289C204.617 112.758 204.453 111.651 204.125 110.969C203.802 110.281 203.289 109.938 202.586 109.938C201.883 109.938 201.37 110.273 201.047 110.945C200.729 111.617 200.57 112.732 200.57 114.289ZM213.258 120H211.422V112.625C211.422 111.745 211.443 111.047 211.484 110.531C211.365 110.656 211.216 110.794 211.039 110.945C210.867 111.096 210.284 111.576 209.289 112.383L208.367 111.219L211.727 108.578H213.258V120ZM224.734 113.453C224.734 115.703 224.281 117.383 223.375 118.492C222.469 119.602 221.104 120.156 219.281 120.156C218.589 120.156 218.091 120.115 217.789 120.031V118.492C218.253 118.622 218.719 118.688 219.188 118.688C220.427 118.688 221.352 118.354 221.961 117.688C222.57 117.021 222.904 115.974 222.961 114.547H222.867C222.56 115.016 222.188 115.354 221.75 115.562C221.318 115.771 220.81 115.875 220.227 115.875C219.216 115.875 218.422 115.56 217.844 114.93C217.266 114.299 216.977 113.435 216.977 112.336C216.977 111.143 217.31 110.195 217.977 109.492C218.648 108.784 219.562 108.43 220.719 108.43C221.531 108.43 222.24 108.628 222.844 109.023C223.448 109.419 223.914 109.995 224.242 110.75C224.57 111.5 224.734 112.401 224.734 113.453ZM220.75 109.953C220.115 109.953 219.628 110.161 219.289 110.578C218.951 110.99 218.781 111.57 218.781 112.32C218.781 112.971 218.938 113.484 219.25 113.859C219.568 114.229 220.047 114.414 220.688 114.414C221.307 114.414 221.828 114.229 222.25 113.859C222.672 113.49 222.883 113.057 222.883 112.562C222.883 112.099 222.792 111.667 222.609 111.266C222.432 110.859 222.182 110.539 221.859 110.305C221.536 110.07 221.167 109.953 220.75 109.953Z" fill="black"/>
<path d="M34.6641 44H26.9219V42.6094L29.8672 39.6484C30.737 38.7578 31.3125 38.1276 31.5938 37.7578C31.8802 37.3828 32.0885 37.0312 32.2188 36.7031C32.349 36.375 32.4141 36.0234 32.4141 35.6484C32.4141 35.1328 32.2578 34.7266 31.9453 34.4297C31.638 34.1328 31.2109 33.9844 30.6641 33.9844C30.2266 33.9844 29.8021 34.0651 29.3906 34.2266C28.9844 34.388 28.513 34.6797 27.9766 35.1016L26.9844 33.8906C27.6198 33.3542 28.237 32.974 28.8359 32.75C29.4349 32.526 30.0729 32.4141 30.75 32.4141C31.8125 32.4141 32.6641 32.6927 33.3047 33.25C33.9453 33.8021 34.2656 34.5469 34.2656 35.4844C34.2656 36 34.1719 36.4896 33.9844 36.9531C33.8021 37.4167 33.5182 37.8958 33.1328 38.3906C32.7526 38.8802 32.1172 39.5443 31.2266 40.3828L29.2422 42.3047V42.3828H34.6641V44ZM43.8047 38.2891C43.8047 40.2734 43.4844 41.7474 42.8438 42.7109C42.2083 43.6745 41.2344 44.1562 39.9219 44.1562C38.651 44.1562 37.6875 43.6589 37.0312 42.6641C36.375 41.6693 36.0469 40.2109 36.0469 38.2891C36.0469 36.2734 36.3646 34.7891 37 33.8359C37.6406 32.8776 38.6146 32.3984 39.9219 32.3984C41.1979 32.3984 42.1641 32.8984 42.8203 33.8984C43.4766 34.8984 43.8047 36.362 43.8047 38.2891ZM37.9062 38.2891C37.9062 39.8464 38.0651 40.9583 38.3828 41.625C38.7057 42.2917 39.2188 42.625 39.9219 42.625C40.625 42.625 41.138 42.2865 41.4609 41.6094C41.7891 40.9323 41.9531 39.8255 41.9531 38.2891C41.9531 36.7578 41.7891 35.651 41.4609 34.9688C41.138 34.2812 40.625 33.9375 39.9219 33.9375C39.2188 33.9375 38.7057 34.2734 38.3828 34.9453C38.0651 35.6172 37.9062 36.7318 37.9062 38.2891ZM50.5938 44H48.7578V36.625C48.7578 35.7448 48.7786 35.0469 48.8203 34.5312C48.7005 34.6562 48.5521 34.7943 48.375 34.9453C48.2031 35.0964 47.6198 35.5755 46.625 36.3828L45.7031 35.2188L49.0625 32.5781H50.5938V44ZM62.0703 37.4531C62.0703 39.7031 61.6172 41.3828 60.7109 42.4922C59.8047 43.6016 58.4401 44.1562 56.6172 44.1562C55.9245 44.1562 55.4271 44.1146 55.125 44.0312V42.4922C55.5885 42.6224 56.0547 42.6875 56.5234 42.6875C57.763 42.6875 58.6875 42.3542 59.2969 41.6875C59.9062 41.0208 60.2396 39.974 60.2969 38.5469H60.2031C59.8958 39.0156 59.5234 39.3542 59.0859 39.5625C58.6536 39.7708 58.1458 39.875 57.5625 39.875C56.5521 39.875 55.7578 39.5599 55.1797 38.9297C54.6016 38.2995 54.3125 37.4349 54.3125 36.3359C54.3125 35.1432 54.6458 34.1953 55.3125 33.4922C55.9844 32.7839 56.8984 32.4297 58.0547 32.4297C58.8672 32.4297 59.5755 32.6276 60.1797 33.0234C60.7839 33.4193 61.25 33.9948 61.5781 34.75C61.9062 35.5 62.0703 36.401 62.0703 37.4531ZM58.0859 33.9531C57.4505 33.9531 56.9635 34.1615 56.625 34.5781C56.2865 34.9896 56.1172 35.5703 56.1172 36.3203C56.1172 36.9714 56.2734 37.4844 56.5859 37.8594C56.9036 38.2292 57.3828 38.4141 58.0234 38.4141C58.6432 38.4141 59.1641 38.2292 59.5859 37.8594C60.0078 37.4896 60.2188 37.0573 60.2188 36.5625C60.2188 36.099 60.1276 35.6667 59.9453 35.2656C59.7682 34.8594 59.5182 34.5391 59.1953 34.3047C58.8724 34.0703 58.5026 33.9531 58.0859 33.9531Z" fill="black"/>
<path d="M34.6758 77H32.7773V64.7891C32.7773 63.7734 32.8086 62.8125 32.8711 61.9062C32.707 62.0703 32.5234 62.2422 32.3203 62.4219C32.1172 62.6016 31.1875 63.3633 29.5312 64.707L28.5 63.3711L33.0352 59.8672H34.6758V77ZM51.8203 63.8984C51.8203 64.9922 51.5117 65.8867 50.8945 66.582C50.2852 67.2773 49.418 67.7422 48.293 67.9766V68.0703C49.668 68.2422 50.6875 68.6797 51.3516 69.3828C52.0156 70.0859 52.3477 71.0078 52.3477 72.1484C52.3477 73.7812 51.7812 75.0391 50.6484 75.9219C49.5156 76.7969 47.9062 77.2344 45.8203 77.2344C44.9141 77.2344 44.082 77.1641 43.3242 77.0234C42.5742 76.8906 41.8438 76.6523 41.1328 76.3086V74.457C41.875 74.8242 42.6641 75.1055 43.5 75.3008C44.3438 75.4883 45.1406 75.582 45.8906 75.582C48.8516 75.582 50.332 74.4219 50.332 72.1016C50.332 70.0234 48.6992 68.9844 45.4336 68.9844H43.7461V67.3086H45.457C46.793 67.3086 47.8516 67.0156 48.6328 66.4297C49.4141 65.8359 49.8047 65.0156 49.8047 63.9688C49.8047 63.1328 49.5156 62.4766 48.9375 62C48.3672 61.5234 47.5898 61.2852 46.6055 61.2852C45.8555 61.2852 45.1484 61.3867 44.4844 61.5898C43.8203 61.793 43.0625 62.168 42.2109 62.7148L41.2266 61.4023C41.9297 60.8477 42.7383 60.4141 43.6523 60.1016C44.5742 59.7812 45.543 59.6211 46.5586 59.6211C48.2227 59.6211 49.5156 60.0039 50.4375 60.7695C51.3594 61.5273 51.8203 62.5703 51.8203 63.8984ZM70.8047 75.2773H70.6992C69.8008 76.582 68.457 77.2344 66.668 77.2344C64.9883 77.2344 63.6797 76.6602 62.7422 75.5117C61.8125 74.3633 61.3477 72.7305 61.3477 70.6133C61.3477 68.4961 61.8164 66.8516 62.7539 65.6797C63.6914 64.5078 64.9961 63.9219 66.668 63.9219C68.4102 63.9219 69.7461 64.5547 70.6758 65.8203H70.8281L70.7461 64.8945L70.6992 63.9922V58.7656H72.6445V77H71.0625L70.8047 75.2773ZM66.9141 75.6055C68.2422 75.6055 69.2031 75.2461 69.7969 74.5273C70.3984 73.8008 70.6992 72.6328 70.6992 71.0234V70.6133C70.6992 68.793 70.3945 67.4961 69.7852 66.7227C69.1836 65.9414 68.2188 65.5508 66.8906 65.5508C65.75 65.5508 64.875 65.9961 64.2656 66.8867C63.6641 67.7695 63.3633 69.0195 63.3633 70.6367C63.3633 72.2773 63.6641 73.5156 64.2656 74.3516C64.8672 75.1875 65.75 75.6055 66.9141 75.6055ZM82.207 77.2344C80.3086 77.2344 78.8086 76.6562 77.707 75.5C76.6133 74.3438 76.0664 72.7383 76.0664 70.6836C76.0664 68.6133 76.5742 66.9688 77.5898 65.75C78.6133 64.5312 79.9844 63.9219 81.7031 63.9219C83.3125 63.9219 84.5859 64.4531 85.5234 65.5156C86.4609 66.5703 86.9297 67.9648 86.9297 69.6992V70.9297H78.082C78.1211 72.4375 78.5 73.582 79.2188 74.3633C79.9453 75.1445 80.9648 75.5352 82.2773 75.5352C83.6602 75.5352 85.0273 75.2461 86.3789 74.668V76.4023C85.6914 76.6992 85.0391 76.9102 84.4219 77.0352C83.8125 77.168 83.0742 77.2344 82.207 77.2344ZM81.6797 65.5508C80.6484 65.5508 79.8242 65.8867 79.207 66.5586C78.5977 67.2305 78.2383 68.1602 78.1289 69.3477H84.8438C84.8438 68.1211 84.5703 67.1836 84.0234 66.5352C83.4766 65.8789 82.6953 65.5508 81.6797 65.5508ZM112.863 77V68.6445C112.863 67.6211 112.645 66.8555 112.207 66.3477C111.77 65.832 111.09 65.5742 110.168 65.5742C108.957 65.5742 108.062 65.9219 107.484 66.6172C106.906 67.3125 106.617 68.3828 106.617 69.8281V77H104.672V68.6445C104.672 67.6211 104.453 66.8555 104.016 66.3477C103.578 65.832 102.895 65.5742 101.965 65.5742C100.746 65.5742 99.8516 65.9414 99.2812 66.6758C98.7188 67.4023 98.4375 68.5977 98.4375 70.2617V77H96.4922V64.1562H98.0742L98.3906 65.9141H98.4844C98.8516 65.2891 99.3672 64.8008 100.031 64.4492C100.703 64.0977 101.453 63.9219 102.281 63.9219C104.289 63.9219 105.602 64.6484 106.219 66.1016H106.312C106.695 65.4297 107.25 64.8984 107.977 64.5078C108.703 64.1172 109.531 63.9219 110.461 63.9219C111.914 63.9219 113 64.2969 113.719 65.0469C114.445 65.7891 114.809 66.9805 114.809 68.6211V77H112.863ZM126.727 77L126.34 75.1719H126.246C125.605 75.9766 124.965 76.5234 124.324 76.8125C123.691 77.0938 122.898 77.2344 121.945 77.2344C120.672 77.2344 119.672 76.9062 118.945 76.25C118.227 75.5938 117.867 74.6602 117.867 73.4492C117.867 70.8555 119.941 69.4961 124.09 69.3711L126.27 69.3008V68.5039C126.27 67.4961 126.051 66.7539 125.613 66.2773C125.184 65.793 124.492 65.5508 123.539 65.5508C122.469 65.5508 121.258 65.8789 119.906 66.5352L119.309 65.0469C119.941 64.7031 120.633 64.4336 121.383 64.2383C122.141 64.043 122.898 63.9453 123.656 63.9453C125.188 63.9453 126.32 64.2852 127.055 64.9648C127.797 65.6445 128.168 66.7344 128.168 68.2344V77H126.727ZM122.332 75.6289C123.543 75.6289 124.492 75.2969 125.18 74.6328C125.875 73.9688 126.223 73.0391 126.223 71.8438V70.6836L124.277 70.7656C122.73 70.8203 121.613 71.0625 120.926 71.4922C120.246 71.9141 119.906 72.5742 119.906 73.4727C119.906 74.1758 120.117 74.7109 120.539 75.0781C120.969 75.4453 121.566 75.6289 122.332 75.6289ZM134.133 77H132.188V64.1562H134.133V77ZM132.023 60.6758C132.023 60.2305 132.133 59.9062 132.352 59.7031C132.57 59.4922 132.844 59.3867 133.172 59.3867C133.484 59.3867 133.754 59.4922 133.98 59.7031C134.207 59.9141 134.32 60.2383 134.32 60.6758C134.32 61.1133 134.207 61.4414 133.98 61.6602C133.754 61.8711 133.484 61.9766 133.172 61.9766C132.844 61.9766 132.57 61.8711 132.352 61.6602C132.133 61.4414 132.023 61.1133 132.023 60.6758ZM149.344 70.5664C149.344 72.6602 148.816 74.2969 147.762 75.4766C146.707 76.6484 145.25 77.2344 143.391 77.2344C142.242 77.2344 141.223 76.9648 140.332 76.4258C139.441 75.8867 138.754 75.1133 138.27 74.1055C137.785 73.0977 137.543 71.918 137.543 70.5664C137.543 68.4727 138.066 66.8438 139.113 65.6797C140.16 64.5078 141.613 63.9219 143.473 63.9219C145.27 63.9219 146.695 64.5195 147.75 65.7148C148.812 66.9102 149.344 68.5273 149.344 70.5664ZM139.559 70.5664C139.559 72.207 139.887 73.457 140.543 74.3164C141.199 75.1758 142.164 75.6055 143.438 75.6055C144.711 75.6055 145.676 75.1797 146.332 74.3281C146.996 73.4688 147.328 72.2148 147.328 70.5664C147.328 68.9336 146.996 67.6953 146.332 66.8516C145.676 66 144.703 65.5742 143.414 65.5742C142.141 65.5742 141.18 65.9922 140.531 66.8281C139.883 67.6641 139.559 68.9102 139.559 70.5664Z" fill="black"/>
<defs>
<filter id="filter0_d" x="0" y="0" width="348" height="418" filterUnits="userSpaceOnUse" color-interpolation-filters="sRGB">
<feFlood flood-opacity="0" result="BackgroundImageFix"/>
<feColorMatrix in="SourceAlpha" type="matrix" values="0 0 0 0 0 0 0 0 0 0 0 0 0 0 0 0 0 0 127 0"/>
<feOffset/>
<feGaussianBlur stdDeviation="5"/>
<feColorMatrix type="matrix" values="0 0 0 0 0 0 0 0 0 0 0 0 0 0 0 0 0 0 0.25 0"/>
<feBlend mode="normal" in2="BackgroundImageFix" result="effect1_dropShadow"/>
<feBlend mode="normal" in="SourceGraphic" in2="effect1_dropShadow" result="shape"/>
</filter>
</defs>
</svg>
