<svg width="317" height="248" viewBox="0 0 317 248" fill="none" xmlns="http://www.w3.org/2000/svg">
<g clip-path="url(#clip0)">
<path opacity="0.1" d="M136.003 185.315C179.625 185.315 214.988 184.053 214.988 182.497C214.988 180.94 179.625 179.678 136.003 179.678C92.3807 179.678 57.0179 180.94 57.0179 182.497C57.0179 184.053 92.3807 185.315 136.003 185.315Z" fill="#FF8822"/>
<path opacity="0.1" d="M114.84 7.91456C122.624 0.971298 134.843 -0.444199 145.964 0.104916C180.898 1.84256 212.433 18.726 239.71 37.8255C249.583 44.7395 259.305 52.1903 265.716 61.7108C278.764 81.0933 274.892 107.941 256.755 123.917C250.582 129.347 243.103 133.513 235.414 137.203C221.763 143.768 207.016 149.037 191.514 150.538C180.456 151.607 169.267 150.736 158.275 149.245C127.551 145.069 97.4197 135.849 72.1543 120.076C61.0744 113.157 50.6308 104.556 46.0697 93.3642C41.5086 82.172 44.4217 67.9902 55.7332 61.3667C60.4138 58.626 66.0086 57.3886 71.4863 56.227C79.5481 54.5186 87.7416 52.8322 95.0161 49.3545C102.532 45.7645 111.43 38.8188 109.943 30.87C108.346 22.3404 107.073 14.8505 114.84 7.91456Z" fill="#FF8822"/>
<path opacity="0.1" d="M74.8968 200C86.563 200 96.0204 198.092 96.0204 195.739C96.0204 193.386 86.563 191.478 74.8968 191.478C63.2305 191.478 53.7732 193.386 53.7732 195.739C53.7732 198.092 63.2305 200 74.8968 200Z" fill="#FF8822"/>
<path opacity="0.1" d="M252.874 186.482C264.54 186.482 273.998 185.644 273.998 184.61C273.998 183.576 264.54 182.738 252.874 182.738C241.208 182.738 231.75 183.576 231.75 184.61C231.75 185.644 241.208 186.482 252.874 186.482Z" fill="#FF8822"/>
<path d="M169.184 39.0969H106.588V52.9419H169.184V39.0969Z" fill="#464A5F"/>
<path opacity="0.1" d="M169.184 39.0969H106.588V39.456H169.184V39.0969Z" fill="black"/>
<path d="M172.509 8.43701H103.536V39.0947H172.509V8.43701Z" fill="#65617D"/>
<path d="M77.91 8.43701H104.614V73.2619H73.1806V13.1789C73.1806 11.9232 73.6789 10.719 74.5658 9.83106C75.4527 8.94315 76.6557 8.44433 77.91 8.44433V8.43701Z" fill="#65617D"/>
<path opacity="0.1" d="M100.616 12.5271H77.8953V69.8889H100.616V12.5271Z" fill="black"/>
<path d="M100.257 12.1685H77.5369V69.5303H100.257V12.1685Z" fill="#D1D9EC"/>
<path opacity="0.1" d="M100.257 68.9251C101.535 68.9251 102.571 67.8881 102.571 66.609C102.571 65.3299 101.535 64.293 100.257 64.293C98.9796 64.293 97.9438 65.3299 97.9438 66.609C97.9438 67.8881 98.9796 68.9251 100.257 68.9251Z" fill="black"/>
<path d="M100.257 68.5637C101.535 68.5637 102.571 67.5268 102.571 66.2477C102.571 64.9686 101.535 63.9316 100.257 63.9316C98.9796 63.9316 97.9438 64.9686 97.9438 66.2477C97.9438 67.5268 98.9796 68.5637 100.257 68.5637Z" fill="#464A5F"/>
<path d="M170.803 8.43701H197.265C197.919 8.43733 198.566 8.56659 199.169 8.81739C199.773 9.06819 200.321 9.43562 200.783 9.89867C201.244 10.3617 201.61 10.9113 201.86 11.516C202.109 12.1208 202.237 12.7688 202.236 13.423V73.2619H170.803V8.43701Z" fill="#65617D"/>
<path opacity="0.1" d="M198.238 12.5271H175.517V69.8889H198.238V12.5271Z" fill="black"/>
<path d="M197.879 12.1685H175.159V69.5303H197.879V12.1685Z" fill="#D1D9EC"/>
<path opacity="0.1" d="M197.882 68.9251C199.16 68.9251 200.195 67.8881 200.195 66.609C200.195 65.3299 199.16 64.293 197.882 64.293C196.604 64.293 195.568 65.3299 195.568 66.609C195.568 67.8881 196.604 68.9251 197.882 68.9251Z" fill="black"/>
<path d="M197.882 68.5637C199.16 68.5637 200.195 67.5268 200.195 66.2477C200.195 64.9686 199.16 63.9316 197.882 63.9316C196.604 63.9316 195.568 64.9686 195.568 66.2477C195.568 67.5268 196.604 68.5637 197.882 68.5637Z" fill="#464A5F"/>
<path opacity="0.1" d="M133.643 12.5271H109.104V37.0933H133.643V12.5271Z" fill="black"/>
<path d="M133.285 12.1685H108.746V36.7347H133.285V12.1685Z" fill="#D1D9EC"/>
<path opacity="0.1" d="M133.285 38.5797C134.103 38.5797 134.767 37.9154 134.767 37.0959C134.767 36.2764 134.103 35.6121 133.285 35.6121C132.466 35.6121 131.803 36.2764 131.803 37.0959C131.803 37.9154 132.466 38.5797 133.285 38.5797Z" fill="black"/>
<path d="M133.285 38.2208C134.103 38.2208 134.767 37.5565 134.767 36.737C134.767 35.9175 134.103 35.2532 133.285 35.2532C132.466 35.2532 131.803 35.9175 131.803 36.737C131.803 37.5565 132.466 38.2208 133.285 38.2208Z" fill="#464A5F"/>
<path opacity="0.1" d="M141.325 37.0957H165.864V12.5295L141.325 12.5295V37.0957Z" fill="black"/>
<path d="M141.683 36.7371H166.222V12.1709L141.683 12.1709V36.7371Z" fill="#D1D9EC"/>
<path opacity="0.1" d="M141.683 38.5797C142.502 38.5797 143.165 37.9154 143.165 37.0959C143.165 36.2764 142.502 35.6121 141.683 35.6121C140.864 35.6121 140.201 36.2764 140.201 37.0959C140.201 37.9154 140.864 38.5797 141.683 38.5797Z" fill="black"/>
<path d="M141.683 38.2208C142.502 38.2208 143.165 37.5565 143.165 36.737C143.165 35.9175 142.502 35.2532 141.683 35.2532C140.864 35.2532 140.201 35.9175 140.201 36.737C140.201 37.5565 140.864 38.2208 141.683 38.2208Z" fill="#464A5F"/>
<path opacity="0.1" d="M138.021 8.43701H137.034V39.0947H138.021V8.43701Z" fill="black"/>
<path opacity="0.1" d="M112.878 50.7847H108.746V52.044H112.878V50.7847Z" fill="black"/>
<path d="M112.878 50.4233H108.746V51.6827H112.878V50.4233Z" fill="#53526B"/>
<path opacity="0.1" d="M160.744 49.2544H139.101V52.0415H160.744V49.2544Z" fill="black"/>
<path d="M160.744 48.8955H139.101V51.6826H160.744V48.8955Z" fill="#53526B"/>
<path opacity="0.1" d="M151.464 51.1873C151.761 51.1873 152.002 50.9459 152.002 50.648C152.002 50.3501 151.761 50.1086 151.464 50.1086C151.166 50.1086 150.925 50.3501 150.925 50.648C150.925 50.9459 151.166 51.1873 151.464 51.1873Z" fill="black"/>
<path d="M151.464 50.8285C151.761 50.8285 152.002 50.587 152.002 50.2891C152.002 49.9912 151.761 49.7498 151.464 49.7498C151.166 49.7498 150.925 49.9912 150.925 50.2891C150.925 50.587 151.166 50.8285 151.464 50.8285Z" fill="#B65256"/>
<path opacity="0.1" d="M154.547 51.1873C154.845 51.1873 155.086 50.9459 155.086 50.648C155.086 50.3501 154.845 50.1086 154.547 50.1086C154.25 50.1086 154.009 50.3501 154.009 50.648C154.009 50.9459 154.25 51.1873 154.547 51.1873Z" fill="black"/>
<path d="M154.547 50.8285C154.845 50.8285 155.086 50.587 155.086 50.2891C155.086 49.9912 154.845 49.7498 154.547 49.7498C154.25 49.7498 154.009 49.9912 154.009 50.2891C154.009 50.587 154.25 50.8285 154.547 50.8285Z" fill="#FFD77C"/>
<path d="M209.376 114.782H66.0427V175.92H209.376V114.782Z" fill="#65617D"/>
<path opacity="0.1" d="M209.376 114.782H66.0427V116.042H209.376V114.782Z" fill="black"/>
<path d="M211.263 112.444H64.1558V115.68H211.263V112.444Z" fill="#65617D"/>
<path opacity="0.1" d="M211.263 112.444H64.1558V112.984H211.263V112.444Z" fill="black"/>
<path d="M213.986 111.546H61.4303V112.625H213.986V111.546Z" fill="#65617D"/>
<path opacity="0.1" d="M102.054 116.94H70.6209V126.65H102.054V116.94Z" fill="black"/>
<path d="M102.415 116.581H70.9817V126.292H102.415V116.581Z" fill="#D1D9EC"/>
<path opacity="0.1" d="M102.054 131.055H70.6209V150.745H102.054V131.055Z" fill="black"/>
<path d="M102.415 130.694H70.9817V150.384H102.415V130.694Z" fill="#D1D9EC"/>
<path opacity="0.1" d="M102.054 153.711H70.6209V173.401H102.054V153.711Z" fill="black"/>
<path d="M102.415 153.352H70.9817V173.042H102.415V153.352Z" fill="#D1D9EC"/>
<path opacity="0.1" d="M90.8279 120.896H81.847V122.694H90.8279V120.896Z" fill="black"/>
<path d="M90.8279 120.537H81.847V122.336H90.8279V120.537Z" fill="#464A5F"/>
<path opacity="0.1" d="M207.85 116.94H176.417V126.65H207.85V116.94Z" fill="black"/>
<path d="M208.208 116.581H176.775V126.292H208.208V116.581Z" fill="#D1D9EC"/>
<path d="M208.208 129.528H176.775V171.785H208.208V129.528Z" fill="#D1D9EC"/>
<path d="M196.624 120.537H187.643V122.336H196.624V120.537Z" fill="#464A5F"/>
<path opacity="0.1" d="M90.8279 140.405H81.847V142.204H90.8279V140.405Z" fill="black"/>
<path d="M90.8279 140.046H81.847V141.845H90.8279V140.046Z" fill="#464A5F"/>
<path opacity="0.1" d="M90.8279 161.264H81.847V163.063H90.8279V161.264Z" fill="black"/>
<path d="M90.8279 160.905H81.847V162.704H90.8279V160.905Z" fill="#464A5F"/>
<path opacity="0.1" d="M204.301 133.977H181.4V168.051H204.301V133.977Z" fill="black"/>
<path opacity="0.3" d="M203.942 133.618H181.042V167.693H203.942V133.618Z" fill="#FF8822"/>
<path opacity="0.1" d="M211.263 175.317H64.1558V181.43H211.263V175.317Z" fill="black"/>
<path d="M211.263 175.561H64.1558V181.674H211.263V175.561Z" fill="#65617D"/>
<path d="M174.082 119.741H105.109V164.246H174.082V119.741Z" fill="#464A5F"/>
<path opacity="0.1" d="M105.915 123.339C105.915 123.339 144.623 127.295 173.002 123.517V127.024C173.002 127.024 143.992 130.621 105.915 126.394V123.339Z" fill="black"/>
<path d="M105.915 122.978C105.915 122.978 144.623 126.934 173.002 123.158V126.665C173.002 126.665 143.992 130.26 105.915 126.035V122.978Z" fill="#D1D9EC"/>
<path opacity="0.3" d="M166.312 131.519H112.875V156.964H166.312V131.519Z" fill="#FF8822"/>
<path opacity="0.1" d="M174.082 119.741H105.109V121.091H174.082V119.741Z" fill="black"/>
<path d="M175.159 110.482H104.031V120.732H175.159V110.482Z" fill="#464A5F"/>
<path opacity="0.1" d="M109.867 117.762C111.305 117.762 112.471 116.595 112.471 115.156C112.471 113.716 111.305 112.549 109.867 112.549C108.429 112.549 107.264 113.716 107.264 115.156C107.264 116.595 108.429 117.762 109.867 117.762Z" fill="black"/>
<path d="M109.867 117.403C111.305 117.403 112.471 116.236 112.471 114.797C112.471 113.357 111.305 112.19 109.867 112.19C108.429 112.19 107.264 113.357 107.264 114.797C107.264 116.236 108.429 117.403 109.867 117.403Z" fill="#D1D9EC"/>
<path opacity="0.1" d="M116.245 117.762C117.682 117.762 118.848 116.595 118.848 115.156C118.848 113.716 117.682 112.549 116.245 112.549C114.807 112.549 113.641 113.716 113.641 115.156C113.641 116.595 114.807 117.762 116.245 117.762Z" fill="black"/>
<path d="M116.245 117.403C117.682 117.403 118.848 116.236 118.848 114.797C118.848 113.357 117.682 112.19 116.245 112.19C114.807 112.19 113.641 113.357 113.641 114.797C113.641 116.236 114.807 117.403 116.245 117.403Z" fill="#D1D9EC"/>
<path opacity="0.1" d="M163.124 117.762C164.562 117.762 165.727 116.595 165.727 115.156C165.727 113.716 164.562 112.549 163.124 112.549C161.686 112.549 160.52 113.716 160.52 115.156C160.52 116.595 161.686 117.762 163.124 117.762Z" fill="black"/>
<path d="M163.124 117.403C164.562 117.403 165.727 116.236 165.727 114.797C165.727 113.357 164.562 112.19 163.124 112.19C161.686 112.19 160.52 113.357 160.52 114.797C160.52 116.236 161.686 117.403 163.124 117.403Z" fill="#D1D9EC"/>
<path opacity="0.1" d="M169.501 117.762C170.939 117.762 172.104 116.595 172.104 115.156C172.104 113.716 170.939 112.549 169.501 112.549C168.063 112.549 166.897 113.716 166.897 115.156C166.897 116.595 168.063 117.762 169.501 117.762Z" fill="black"/>
<path d="M169.501 117.403C170.939 117.403 172.104 116.236 172.104 114.797C172.104 113.357 170.939 112.19 169.501 112.19C168.063 112.19 166.897 113.357 166.897 114.797C166.897 116.236 168.063 117.403 169.501 117.403Z" fill="#D1D9EC"/>
<path opacity="0.1" d="M149.206 112.278H129.357V118.482H149.206V112.278Z" fill="black"/>
<path d="M148.936 111.919H129.716V118.123H148.936V111.919Z" fill="#53526B"/>
<path opacity="0.1" d="M110.586 111.626H109.867V117.964H110.586V111.626Z" fill="black"/>
<path d="M110.228 111.626H109.509V117.964H110.228V111.626Z" fill="#53526B"/>
<path opacity="0.1" d="M170.22 111.626H169.501V117.964H170.22V111.626Z" fill="black"/>
<path d="M169.862 111.626H169.143V117.964H169.862V111.626Z" fill="#53526B"/>
<path opacity="0.1" d="M165.618 113.17L165.11 112.661L160.633 117.143L161.142 117.652L165.618 113.17Z" fill="black"/>
<path d="M165.618 112.81L165.109 112.301L160.632 116.783L161.141 117.292L165.618 112.81Z" fill="#53526B"/>
<path opacity="0.1" d="M119.409 115.517V114.797H113.078V115.517H119.409Z" fill="black"/>
<path d="M119.411 115.156V114.436H113.08V115.156H119.411Z" fill="#53526B"/>
<path opacity="0.1" d="M174.082 163.195H105.109V164.244H174.082V163.195Z" fill="black"/>
<path d="M175.159 163.556H104.031V181.867H175.159V163.556Z" fill="#464A5F"/>
<path d="M100.881 94.7602C100.538 94.0915 98.7191 89.9499 98.7191 89.9499L95.6742 82.0476C95.6742 82.0476 93.5119 78.7163 93.5119 78.0964C93.5119 77.4765 89.5797 75.0018 89.5797 75.0018C89.5797 75.0018 86.3862 74.05 86.14 73.9548C85.8938 73.8596 82.1103 72.6052 82.1103 72.6052C82.1103 72.6052 80.6208 70.6528 80.4038 71.158L80.3819 71.1214C80.077 70.5516 79.8842 69.9286 79.8139 69.2861C79.8139 69.23 79.7968 69.169 79.7895 69.1104C80.7711 68.4447 81.5757 67.5492 82.1335 66.5018C82.6913 65.4543 82.9854 64.2864 82.9903 63.0994C82.9927 62.7895 82.9756 62.4798 82.9391 62.172C82.9654 62.155 82.9932 62.1403 83.022 62.1281C83.083 62.1012 83.0683 62.0793 83.022 62.0573L83.0683 62.0354C83.1512 61.9987 83.0976 61.9719 83.0171 61.9402C83.1293 61.8914 82.9879 61.8596 82.8757 61.8084C82.8757 61.7767 82.8636 61.7425 82.8562 61.7108C82.8828 61.6488 82.8985 61.5828 82.9026 61.5155L82.9318 61.5302C82.961 61.4074 82.961 61.2795 82.9318 61.1568C82.9259 61.1819 82.9177 61.2064 82.9074 61.23C82.9027 61.1123 82.8762 60.9964 82.8294 60.8883C82.7724 60.8039 82.7024 60.729 82.6222 60.6662L82.6027 60.6516L82.8124 58.5161C85.884 58.3697 86.4228 53.147 85.7231 52.8468C85.0235 52.5466 85.7231 51.9243 85.7231 50.665C85.7231 49.4057 83.4047 48 83.4047 48C83.4047 48 82.4296 48.4881 80.9255 46.0622C79.4214 43.6363 73.8559 43.2507 73.4853 43.8804C73.1148 44.51 70.6282 45.3447 67.3908 46.255C64.1534 47.1653 64.7506 51.0042 65.2894 51.8291C65.7338 52.5099 65.9942 53.2945 66.0451 54.1061C66.0451 54.5942 67.069 56.6247 67.069 56.6247C66.7448 57.33 67.5565 61.1934 67.8003 62.2916C67.8003 62.3258 67.8003 62.3599 67.8003 62.3941C67.7889 62.4115 67.7783 62.4294 67.7686 62.4478C67.7162 62.5622 67.6992 62.6897 67.7199 62.8139C67.7014 62.9489 67.7199 63.0864 67.7735 63.2117C67.7925 64.246 68.0318 65.2643 68.4753 66.1986C68.9188 67.1329 69.5564 67.9617 70.3454 68.6296C70.3454 68.6955 70.3454 68.7614 70.3576 68.8297C70.4015 69.7278 70.4283 70.7821 70.382 71.8023C70.382 71.8535 70.382 71.9048 70.382 71.956C70.2037 71.9928 70.0365 72.0706 69.8935 72.1833C69.7504 72.296 69.6356 72.4404 69.558 72.6052C69.2533 73.1934 67.4859 74.0964 67.4859 74.0964C67.4859 74.0964 64.3898 74.2404 64.0949 74.8114C63.7999 75.3825 59.3289 77.2861 59.3289 77.2861C59.3289 77.2861 56.9691 78.6674 57.3129 80.2391C57.4933 81.0592 56.9886 82.3355 56.467 83.3654C55.3728 82.9513 54.2339 82.667 53.0735 82.5186L55.5796 84.9176L55.4967 85.047L54.0706 90.0939C54.0706 90.0939 53.583 91.856 53.0955 92.2904C52.6079 92.7248 53.5367 96.6223 53.5367 96.6223C53.5367 96.6223 52.998 99.385 52.5616 100.098C52.1252 100.81 53.2491 102.575 53.2491 102.575L55.5113 107.714L61.4864 109.232L62.5298 109.455C62.5103 109.577 62.4908 109.699 62.4688 109.823C62.1787 111.461 61.8009 112.966 61.3377 113.374C60.209 114.375 60.2578 118.848 60.2578 118.848L60.3065 125.181C60.3065 125.181 60.699 132.991 60.504 133.274C60.3796 133.455 60.6283 133.747 61.2841 134.006C61.267 134.126 61.2475 134.25 61.2304 134.365C61.0452 135.661 60.9623 137.137 61.3865 137.782C61.5707 138.135 61.6716 138.525 61.6814 138.924C61.6814 139.544 62.6151 140.83 62.6151 140.83C62.6151 140.83 61.8838 146.113 63.1027 147.922C64.3216 149.73 65.3625 153.015 64.7726 153.779C64.7726 153.779 63.7414 156.017 64.2338 157.018C64.7263 158.018 64.2338 158.589 63.5927 158.826C62.9515 159.063 63.01 161.023 63.01 161.023L64.1826 170.296C64.1826 170.296 64.8213 172.203 64.2826 172.869C63.7438 173.535 63.7414 176.866 64.5775 178.011C65.4137 179.156 63.3903 181.269 63.3903 181.269C63.3903 181.269 62.1714 183.031 64.1217 183.602C64.1217 183.602 64.5142 183.697 63.7779 184.459C63.0417 185.22 62.893 186.167 63.3855 186.506C63.4881 186.567 63.5948 186.62 63.7048 186.665C63.6853 186.777 63.6658 186.894 63.6414 187.019C63.4537 188.012 63.0978 189.308 62.4518 189.933C61.1982 191.218 60.1165 192.661 59.2339 194.226C58.5586 195.507 58.2587 196.703 59.012 197.267C60.7819 198.599 63.0417 199.026 64.3752 198.504C65.7087 197.982 67.5687 196.361 67.5687 196.361L68.0124 194.504C68.0124 194.504 67.7174 193.362 69.1899 192.932C70.6623 192.503 72.0397 190.98 72.0397 190.98V188.505C72.3975 188.302 72.7427 188.077 73.0733 187.832C73.0733 187.832 73.7608 185.403 73.0733 184.595C72.3859 183.788 72.1396 183.5 73.0246 182.975C73.9095 182.45 74.0289 181.311 73.378 180.31C72.7271 179.309 71.6959 177.835 72.5809 175.739C73.4658 173.642 73.7998 167.217 73.7998 167.217C73.7998 167.217 73.3878 162.838 73.7998 161.847C74.2118 160.857 73.3268 158.848 73.3268 158.848C73.3268 158.848 73.6096 156.376 74.163 155.221C74.7164 154.067 75.1381 148.032 75.1381 148.032C75.1381 148.032 76.1133 145.462 76.1133 143.795C76.1133 142.128 74.5921 138.131 76.8446 137.081C76.8446 137.081 77.8197 137.94 77.4346 141.367C77.4346 141.367 78.5633 145.367 78.5633 146.604C78.5633 147.841 79.3994 152.317 79.3994 152.317C79.3994 152.317 79.4969 153.745 79.8407 154.27C80.1844 154.794 79.8407 156.222 79.8407 156.222C79.8407 156.222 81.1181 157.413 80.7744 158.174C80.4306 158.936 80.8329 160.654 80.8329 160.654L80.5281 171.314C80.5281 171.314 79.6457 175.885 81.708 178.636C81.708 178.636 80.9767 182.682 80.5281 182.968C80.0796 183.253 82.1517 185.73 82.1517 185.73C82.1517 185.73 81.5788 187.334 82.7417 187.412V190.062C83.1443 190.776 83.6975 191.393 84.3628 191.871C85.4428 192.632 85.0015 195.251 85.0015 195.251C85.0015 195.251 86.3764 198.584 90.0136 197.869C93.6509 197.154 94.1409 196.822 93.9434 195.631C93.8727 195.197 93.7167 194.411 93.49 193.542C93.0999 192.015 92.5002 190.17 91.7835 189.259C90.6548 187.824 89.7211 184.825 89.7211 184.825C89.7211 184.825 89.2774 183.824 89.7211 183.492C90.1648 183.16 89.9649 182.541 89.9649 182.541C89.9649 182.541 90.3939 181.303 90.0063 180.542C89.6187 179.78 90.7499 178.209 90.7499 178.209L90.4061 170.887L90.7499 160.222C90.7499 160.222 89.2262 158.46 89.8649 157.413C90.5037 156.366 89.1336 154.89 89.1336 154.89C89.1336 154.89 88.9849 154.843 89.3774 153.652C89.6123 152.95 89.5767 152.186 89.2774 151.509C89.2774 151.509 88.4437 148.559 89.9161 146.321C89.9161 146.321 90.5548 143.368 90.7523 141.845C90.8888 140.786 91.7274 136.832 92.2418 134.523L92.3247 134.148C93.056 134.187 93.6021 134.233 93.6021 134.233C93.6021 134.233 92.4734 126.377 93.6021 124.759C94.7308 123.141 92.7172 110.763 92.7172 110.763C92.7172 110.763 92.2296 108.6 91.9395 106.392C91.9225 106.267 91.9078 106.148 91.8908 106.016C92.8029 105.941 93.7187 105.921 94.6333 105.955C96.9931 106.096 99.3017 105.193 99.3505 104.288C99.3992 103.383 100.679 99.8121 100.874 99.0042C101.069 98.1964 101.223 95.4264 100.881 94.7602Z" fill="url(#paint0_linear)"/>
<path d="M72.2128 186.599V191.007C72.2128 191.007 70.8866 192.525 69.4654 192.959C68.0441 193.394 68.3293 194.524 68.3293 194.524L67.9052 196.371C67.9052 196.371 66.1036 197.982 64.8262 198.504C63.5488 199.026 61.3694 198.599 59.6654 197.272C58.934 196.713 59.229 195.519 59.8799 194.245C60.7262 192.694 61.7684 191.258 62.9808 189.972C63.6024 189.35 63.9559 188.059 64.1266 187.07C64.2631 186.338 64.3045 185.755 64.3045 185.755L72.2128 186.599Z" fill="#4C495A"/>
<path opacity="0.1" d="M72.2128 189.889V191.007C72.2128 191.007 70.8866 192.525 69.4654 192.959C68.0441 193.393 68.3293 194.523 68.3293 194.523L67.9052 196.371C67.9052 196.371 66.1036 197.982 64.8262 198.504C63.5488 199.026 61.3694 198.599 59.6654 197.271C58.934 196.713 59.229 195.519 59.8799 194.245C59.8482 195.585 60.2456 197.088 62.1739 197.035C64.2581 196.964 66.2653 196.229 67.9027 194.936C67.9027 194.936 67.854 191.81 70.0334 191.097C70.8298 190.836 71.5695 190.426 72.2128 189.889Z" fill="black"/>
<path d="M89.5382 197.882C86.0351 198.592 84.709 195.273 84.709 195.273C84.709 195.273 85.1356 192.666 84.0946 191.907C83.4503 191.427 82.9172 190.812 82.532 190.106V185.747L86.7933 182.714L89.0994 184.757L89.2555 184.893C89.2555 184.893 90.155 187.88 91.2447 189.308C91.9346 190.214 92.5124 192.051 92.8902 193.574C93.1072 194.448 93.2583 195.222 93.3266 195.653C93.5167 196.837 93.0438 197.169 89.5382 197.882Z" fill="#4C495A"/>
<path opacity="0.1" d="M89.5382 197.882C86.0351 198.592 84.709 195.273 84.709 195.273C84.709 195.273 85.1356 192.666 84.0946 191.907C83.4503 191.426 82.9172 190.812 82.532 190.106V188.417C83.2073 189.132 84.4822 190.516 84.7577 191.102C85.1356 191.907 85.1843 194.848 86.9347 195.368C88.685 195.888 92.0955 196.364 92.3807 195.036C92.4978 194.531 92.6686 194.04 92.8902 193.572C93.1072 194.445 93.2583 195.219 93.3266 195.651C93.5167 196.837 93.0438 197.169 89.5382 197.882Z" fill="black"/>
<path opacity="0.1" d="M64.3021 185.747L72.2128 186.599V188.93C71.3205 189.459 70.0431 190.021 69.324 189.442C68.2635 188.593 65.1114 187.514 64.1266 187.063C64.2606 186.321 64.3021 185.747 64.3021 185.747Z" fill="black"/>
<path opacity="0.1" d="M89.2555 185.272C88.1658 184.893 86.2253 186.553 83.668 187.595C83.312 187.759 82.924 187.843 82.532 187.839V185.738L86.7933 182.704L89.0994 184.747C89.135 184.926 89.1872 185.102 89.2555 185.272Z" fill="black"/>
<path d="M92.0492 133.086C92.0492 133.086 91.8981 133.781 91.686 134.794C91.1984 137.098 90.3793 141.037 90.2501 142.091C90.06 143.607 89.4456 146.545 89.4456 146.545C88.0244 148.774 88.8289 151.712 88.8289 151.712C89.1164 152.388 89.1502 153.146 88.9239 153.845C88.5461 155.031 88.6802 155.065 88.6802 155.065C88.6802 155.065 90.0063 156.529 89.3896 157.579C88.7728 158.628 90.2428 160.376 90.2428 160.376L89.9113 170.992L90.2526 178.304C90.2526 178.304 89.1629 179.868 89.5358 180.627C89.9088 181.386 89.4944 182.619 89.4944 182.619C89.4944 182.619 89.6845 183.234 89.2506 183.565C88.8167 183.897 89.2506 184.893 89.2506 184.893C88.1609 184.515 86.2204 186.172 83.6632 187.217C81.1059 188.261 81.9567 185.794 81.9567 185.794C81.9567 185.794 79.9674 183.329 80.3941 183.043C80.8207 182.758 81.5301 178.731 81.5301 178.731C79.5408 175.983 80.3941 171.431 80.3941 171.431L80.6866 160.817C80.6866 160.817 80.299 159.109 80.6305 158.35C80.9621 157.591 79.731 156.398 79.731 156.398C79.731 156.398 80.0625 154.977 79.731 154.445C79.3994 153.913 79.3043 152.493 79.3043 152.493C79.3043 152.493 78.4999 148.037 78.4999 146.804C78.4999 145.572 77.4102 141.591 77.4102 141.591C77.7905 138.174 76.8422 137.325 76.8422 137.325C74.6652 138.367 76.1328 142.348 76.1328 144.007C76.1328 145.667 75.1869 148.227 75.1869 148.227C75.1869 148.227 74.7603 154.245 74.2386 155.382C73.7169 156.52 73.4317 159.011 73.4317 159.011C73.4317 159.011 74.2849 161.003 73.8851 161.999C73.4853 162.994 73.8851 167.368 73.8851 167.368C73.8851 167.368 73.5731 173.767 72.7223 175.851C71.8715 177.935 72.8637 179.407 73.4902 180.403C74.1167 181.398 73.9997 182.536 73.1464 183.055C72.2932 183.575 72.5321 183.863 73.1952 184.669C73.8583 185.474 73.1952 187.893 73.1952 187.893C73.1952 187.893 70.4965 190.026 69.3118 189.076C68.127 188.127 64.3411 186.897 63.8681 186.565C63.3952 186.233 63.5366 185.284 64.246 184.527C64.9554 183.77 64.5775 183.673 64.5775 183.673C62.6834 183.104 63.8681 181.35 63.8681 181.35C63.8681 181.35 65.8184 179.265 65.0042 178.128C64.1899 176.991 64.1997 173.672 64.7189 173.003C65.2382 172.334 64.6239 170.443 64.6239 170.443L63.4952 161.201C63.4952 161.201 63.4415 159.248 64.0559 159.019C64.6702 158.789 65.1456 158.213 64.6726 157.218C64.1997 156.222 65.1919 153.996 65.1919 153.996C65.7623 153.237 64.7677 149.967 63.5829 148.166C62.3981 146.365 63.11 141.103 63.11 141.103C63.11 141.103 62.2104 139.822 62.2104 139.207C62.2013 138.811 62.1038 138.422 61.9252 138.069C61.5181 137.418 61.5961 135.949 61.7741 134.653C61.9471 133.406 62.2104 132.329 62.2104 132.329L92.0492 133.086Z" fill="#5F5D7E"/>
<path d="M82.7685 79.3801L73.4317 81.562C73.4317 81.562 68.8486 77.6742 69.9846 75.5949C70.3747 74.8798 70.5478 73.6571 70.6063 72.3637C70.6526 71.3533 70.6258 70.2966 70.5843 69.4033C70.5161 68.1123 70.4112 67.1581 70.4112 67.1581C70.4112 67.1581 79.9748 61.7548 79.6432 67.1581C79.5756 68.0585 79.5968 68.9634 79.7066 69.8597C79.7747 70.4989 79.9616 71.1197 80.2575 71.6901C80.7695 72.6004 81.4009 72.615 81.4009 72.615L82.7685 79.3801Z" fill="#FDC2CC"/>
<path opacity="0.1" d="M79.7066 69.8524C78.3587 70.8206 76.7227 71.3026 75.0658 71.2197C73.4089 71.1368 71.8291 70.4939 70.5843 69.396C70.5161 68.105 70.4112 67.1507 70.4112 67.1507C70.4112 67.1507 79.9748 61.7474 79.6432 67.1507C79.5756 68.0512 79.5968 68.9561 79.7066 69.8524Z" fill="black"/>
<path d="M75.4307 71.0386C79.4832 71.0386 82.7685 67.7497 82.7685 63.6926C82.7685 59.6356 79.4832 56.3467 75.4307 56.3467C71.3781 56.3467 68.0929 59.6356 68.0929 63.6926C68.0929 67.7497 71.3781 71.0386 75.4307 71.0386Z" fill="#FDC2CC"/>
<path opacity="0.1" d="M82.7685 79.38L73.4317 81.5618C73.4317 81.5618 68.8486 77.6741 69.9846 75.5948C70.3747 74.8797 70.5478 73.657 70.6063 72.3635C70.8139 73.489 71.4197 74.5019 72.3127 75.2165C74.4434 76.6393 74.1118 78.3891 74.1118 78.3891L77.9465 78.2476C77.7027 76.6832 79.1313 75.8315 79.6042 75.6411C80.0772 75.4508 79.848 74.599 79.848 74.599L80.2575 71.6899C80.7695 72.6003 81.4009 72.6149 81.4009 72.6149L82.7685 79.38Z" fill="black"/>
<path opacity="0.1" d="M92.0492 133.086C92.0492 133.086 91.8981 133.782 91.686 134.795C90.6548 134.741 89.2921 134.699 88.6875 134.838C87.6465 135.082 83.4779 135.17 83.4779 135.17L73.1562 135.536V135.219C71.9693 135.231 70.7841 135.313 69.6067 135.463C67.854 135.707 65.109 135.368 63.3562 135.082C62.8168 135.005 62.2888 134.863 61.7838 134.658C61.9569 133.411 62.2202 132.334 62.2202 132.334L92.0492 133.086Z" fill="black"/>
<path d="M91.2448 102.985C91.0936 103.871 91.2033 105.34 91.3935 106.787C91.6787 108.983 92.1443 111.138 92.1443 111.138C92.1443 111.138 94.0946 123.463 92.9951 125.074C91.8957 126.685 92.9951 134.506 92.9951 134.506C92.9951 134.506 89.7284 134.223 88.6875 134.46C87.6466 134.697 83.4779 134.792 83.4779 134.792L73.1562 135.158V134.838C71.9693 134.85 70.7841 134.932 69.6068 135.082C67.854 135.326 65.109 134.987 63.3562 134.704C61.6034 134.421 60.894 133.85 61.0842 133.567C61.2743 133.284 60.894 125.513 60.894 125.513L60.8477 119.209C60.8477 119.209 60.799 114.753 61.8887 113.757C62.3323 113.352 62.698 111.854 62.9784 110.221C63.3782 107.861 63.5927 105.225 63.5927 105.225L56.3963 85.945L56.2549 85.5643C56.2549 85.5643 58.3368 82.3404 58.0052 80.776C57.6737 79.2117 59.9555 77.8474 59.9555 77.8474C59.9555 77.8474 64.2631 75.9511 64.5483 75.3825C64.8335 74.8138 67.815 74.6723 67.815 74.6723C67.815 74.6723 69.5214 73.7718 69.8115 73.1885C69.8834 73.0253 69.9929 72.8816 70.131 72.7692C70.2692 72.6568 70.4321 72.5788 70.6063 72.5417C70.8069 73.68 71.4132 74.7067 72.3127 75.4313C74.4434 76.8517 74.1118 78.604 74.1118 78.604L77.9465 78.4624C77.7027 76.898 79.1313 76.0439 79.6042 75.8559C80.0772 75.668 79.848 74.8114 79.848 74.8114L80.2917 71.7437C80.4965 71.2336 81.9299 73.186 81.9299 73.186C81.9299 73.186 85.5866 74.4331 85.8133 74.5283C86.04 74.6235 89.1287 75.5704 89.1287 75.5704C89.1287 75.5704 92.9147 78.0353 92.9147 78.6503C92.9147 79.2653 94.999 82.5869 94.999 82.5869C94.999 82.5869 94.9746 82.7187 94.9283 82.9603C94.4334 85.5448 91.5909 100.947 91.2448 102.985Z" fill="#FF8822"/>
<path d="M76.0938 95.3068C76.0938 95.3068 67.9027 93.1274 67.0958 92.6052C66.2889 92.0829 61.5571 95.1165 67.3396 99.2409C67.3396 99.2409 74.4093 100.705 76.2937 99.2409C78.1781 97.7766 76.0938 95.3068 76.0938 95.3068Z" fill="#FDC2CC"/>
<path opacity="0.1" d="M93.7996 82.3184L94.7942 82.3672L97.7196 90.2354C97.7196 90.2354 99.4724 94.3599 99.8039 95.0237C100.135 95.6875 99.9941 98.4404 99.8039 99.2409C99.6138 100.041 98.3827 103.602 98.3412 104.503C98.2998 105.403 96.0692 106.304 93.7947 106.162C91.5202 106.021 86.2204 106.731 86.2204 106.731C86.2204 106.731 80.5574 106.138 77.0811 107.914C77.0811 107.914 74.8578 103.317 75.0943 94.7357C75.0943 94.7357 79.024 94.4917 80.0186 94.8773C81.0133 95.2629 85.8426 96.3416 86.4569 95.7778C87.0712 95.214 89.8698 96.8223 89.8698 96.8223C90.0124 96.5098 90.0862 96.1702 90.0862 95.8266C90.0862 95.483 90.0124 95.1434 89.8698 94.8309C89.3969 93.6936 88.5924 90.1378 89.626 89.0005C90.6597 87.8632 93.7996 82.3184 93.7996 82.3184Z" fill="black"/>
<path opacity="0.1" d="M91.3934 106.787C89.0434 106.946 86.4154 107.299 86.4154 107.299C86.4154 107.299 80.7524 106.706 77.2761 108.483C77.2761 108.483 75.0503 103.885 75.2868 95.3043C75.2868 95.3043 79.2166 95.0602 80.2112 95.4458C81.2058 95.8314 86.0351 96.9101 86.6519 96.3464C87.2687 95.7826 90.0648 97.3909 90.0648 97.3909C90.2068 97.0782 90.2803 96.7387 90.2803 96.3952C90.2803 96.0517 90.2068 95.7122 90.0648 95.3995C89.5919 94.2622 88.7874 90.7064 89.821 89.5691C90.8547 88.4318 93.9873 82.8845 93.9873 82.8845L94.9112 82.9284C94.4236 85.5422 91.5885 100.944 91.2423 102.982C91.0936 103.87 91.2033 105.34 91.3934 106.787Z" fill="black"/>
<path d="M93.9897 82.5088L94.9844 82.5576L97.9097 90.4258C97.9097 90.4258 99.6625 94.5478 99.9941 95.2116C100.326 95.8755 100.182 98.6284 99.9941 99.4313C99.8064 100.234 98.5728 103.792 98.5314 104.693C98.4899 105.594 96.2569 106.494 93.9849 106.35C91.7128 106.206 86.4106 106.921 86.4106 106.921C86.4106 106.921 80.7451 106.328 77.2712 108.105C77.2712 108.105 75.0455 103.507 75.282 94.9261C75.282 94.9261 79.2117 94.6821 80.2064 95.0677C81.201 95.4533 86.0303 96.532 86.6471 95.9682C87.2638 95.4044 90.06 97.0103 90.06 97.0103C90.2021 96.6981 90.2756 96.3589 90.2756 96.0158C90.2756 95.6727 90.2021 95.3335 90.06 95.0213C89.5871 93.8816 88.7826 90.3282 89.8162 89.1909C90.8498 88.0536 93.9897 82.5088 93.9897 82.5088Z" fill="#FF8822"/>
<path d="M83.9985 99.9187L85.1799 100.651L91.7644 90.0071L90.583 89.2747L83.9985 99.9187Z" fill="#DFE6F5"/>
<path d="M95.1294 88.5757C96.2933 86.6942 96.1689 84.5067 94.8514 83.6898C93.5339 82.873 91.5223 83.7362 90.3584 85.6178C89.1944 87.4993 89.3188 89.6868 90.6363 90.5036C91.9538 91.3205 93.9654 90.4573 95.1294 88.5757Z" fill="#DFE6F5"/>
<path opacity="0.1" d="M94.4558 88.1578C95.2909 86.808 95.2013 85.2385 94.2559 84.6523C93.3104 84.0661 91.867 84.6852 91.032 86.0351C90.1969 87.385 90.2864 88.9544 91.2319 89.5406C92.1774 90.1268 93.6208 89.5077 94.4558 88.1578Z" fill="black"/>
<path d="M80.633 105.36L81.8143 106.093L85.9114 99.4699L84.73 98.7374L80.633 105.36Z" fill="#53526B"/>
<path d="M73.6754 105.83L76.5643 105.025C76.5643 105.025 90.8157 105.403 86.0327 99.5265C86.0327 99.5265 83.5242 97.108 78.2683 99.0506C73.0124 100.993 71.5448 101.232 71.5448 101.232L73.6754 105.83Z" fill="#FDC2CC"/>
<path opacity="0.1" d="M71.5473 81.0396C71.861 81.0396 72.1153 80.785 72.1153 80.471C72.1153 80.1569 71.861 79.9023 71.5473 79.9023C71.2336 79.9023 70.9792 80.1569 70.9792 80.471C70.9792 80.785 71.2336 81.0396 71.5473 81.0396Z" fill="black"/>
<path opacity="0.1" d="M81.3009 80.7076C81.6146 80.7076 81.8689 80.453 81.8689 80.1389C81.8689 79.8249 81.6146 79.5703 81.3009 79.5703C80.9872 79.5703 80.7329 79.8249 80.7329 80.1389C80.7329 80.453 80.9872 80.7076 81.3009 80.7076Z" fill="black"/>
<path d="M71.5473 80.8492C71.861 80.8492 72.1153 80.5946 72.1153 80.2806C72.1153 79.9665 71.861 79.7119 71.5473 79.7119C71.2336 79.7119 70.9792 79.9665 70.9792 80.2806C70.9792 80.5946 71.2336 80.8492 71.5473 80.8492Z" fill="white"/>
<path opacity="0.1" d="M72.3541 88.9078C72.6678 88.9078 72.9222 88.6532 72.9222 88.3391C72.9222 88.0251 72.6678 87.7705 72.3541 87.7705C72.0404 87.7705 71.7861 88.0251 71.7861 88.3391C71.7861 88.6532 72.0404 88.9078 72.3541 88.9078Z" fill="black"/>
<path opacity="0.1" d="M81.5861 88.3392C81.8998 88.3392 82.1541 88.0846 82.1541 87.7705C82.1541 87.4565 81.8998 87.2019 81.5861 87.2019C81.2724 87.2019 81.0181 87.4565 81.0181 87.7705C81.0181 88.0846 81.2724 88.3392 81.5861 88.3392Z" fill="black"/>
<path d="M72.3541 88.7176C72.6678 88.7176 72.9222 88.463 72.9222 88.149C72.9222 87.8349 72.6678 87.5803 72.3541 87.5803C72.0404 87.5803 71.7861 87.8349 71.7861 88.149C71.7861 88.463 72.0404 88.7176 72.3541 88.7176Z" fill="white"/>
<path opacity="0.1" d="M81.3497 115.788C81.6634 115.788 81.9177 115.533 81.9177 115.219C81.9177 114.905 81.6634 114.65 81.3497 114.65C81.036 114.65 80.7817 114.905 80.7817 115.219C80.7817 115.533 81.036 115.788 81.3497 115.788Z" fill="black"/>
<path opacity="0.1" d="M73.8705 115.788C74.1842 115.788 74.4385 115.533 74.4385 115.219C74.4385 114.905 74.1842 114.65 73.8705 114.65C73.5568 114.65 73.3025 114.905 73.3025 115.219C73.3025 115.533 73.5568 115.788 73.8705 115.788Z" fill="black"/>
<path d="M81.3497 115.597C81.6634 115.597 81.9177 115.343 81.9177 115.029C81.9177 114.715 81.6634 114.46 81.3497 114.46C81.036 114.46 80.7817 114.715 80.7817 115.029C80.7817 115.343 81.036 115.597 81.3497 115.597Z" fill="white"/>
<path opacity="0.1" d="M74.4385 125.311C74.7522 125.311 75.0065 125.056 75.0065 124.742C75.0065 124.428 74.7522 124.173 74.4385 124.173C74.1248 124.173 73.8705 124.428 73.8705 124.742C73.8705 125.056 74.1248 125.311 74.4385 125.311Z" fill="black"/>
<path opacity="0.1" d="M81.5861 124.742C81.8998 124.742 82.1541 124.487 82.1541 124.173C82.1541 123.859 81.8998 123.605 81.5861 123.605C81.2724 123.605 81.0181 123.859 81.0181 124.173C81.0181 124.487 81.2724 124.742 81.5861 124.742Z" fill="black"/>
<path d="M74.4385 125.123C74.7522 125.123 75.0065 124.868 75.0065 124.554C75.0065 124.24 74.7522 123.985 74.4385 123.985C74.1248 123.985 73.8705 124.24 73.8705 124.554C73.8705 124.868 74.1248 125.123 74.4385 125.123Z" fill="white"/>
<path d="M73.8705 115.597C74.1842 115.597 74.4385 115.343 74.4385 115.029C74.4385 114.715 74.1842 114.46 73.8705 114.46C73.5568 114.46 73.3025 114.715 73.3025 115.029C73.3025 115.343 73.5568 115.597 73.8705 115.597Z" fill="white"/>
<path d="M81.5861 124.552C81.8998 124.552 82.1541 124.297 82.1541 123.983C82.1541 123.669 81.8998 123.414 81.5861 123.414C81.2724 123.414 81.0181 123.669 81.0181 123.983C81.0181 124.297 81.2724 124.552 81.5861 124.552Z" fill="white"/>
<path d="M81.3009 80.5174C81.6146 80.5174 81.8689 80.2628 81.8689 79.9488C81.8689 79.6347 81.6146 79.3801 81.3009 79.3801C80.9872 79.3801 80.7329 79.6347 80.7329 79.9488C80.7329 80.2628 80.9872 80.5174 81.3009 80.5174Z" fill="white"/>
<path d="M81.5861 88.1488C81.8998 88.1488 82.1541 87.8942 82.1541 87.5801C82.1541 87.2661 81.8998 87.0115 81.5861 87.0115C81.2724 87.0115 81.0181 87.2661 81.0181 87.5801C81.0181 87.8942 81.2724 88.1488 81.5861 88.1488Z" fill="white"/>
<path opacity="0.1" d="M82.437 107.536C82.437 107.536 82.5322 120.525 82.818 122.846C82.818 122.846 82.9206 108.149 82.437 107.536Z" fill="black"/>
<path opacity="0.1" d="M84.8528 113.557C84.6578 113.557 88.7338 128.771 88.924 129.862C89.1141 130.953 85.9889 113.557 84.8528 113.557Z" fill="black"/>
<path opacity="0.1" d="M88.0707 111.092C88.0707 111.234 90.3452 119.339 91.4837 119.766C92.6221 120.193 88.0707 111.092 88.0707 111.092Z" fill="black"/>
<path opacity="0.1" d="M97.0199 95.3069C97.0199 95.3069 92.1906 95.5217 92.0492 96.2197C91.9078 96.9177 97.0199 95.3069 97.0199 95.3069Z" fill="black"/>
<path opacity="0.1" d="M88.4973 157.108C88.4973 157.108 85.0405 158.572 85.572 158.67C86.1034 158.767 88.4973 157.108 88.4973 157.108Z" fill="black"/>
<path opacity="0.1" d="M81.3472 154.936C81.2131 154.633 83.668 156.156 83.668 156.359C83.668 156.561 81.5374 155.363 81.3472 154.936Z" fill="black"/>
<path opacity="0.1" d="M84.5676 159.912C84.5676 159.912 87.2663 159.778 87.4564 160.818C87.6466 161.857 84.5676 159.912 84.5676 159.912Z" fill="black"/>
<path opacity="0.1" d="M65.1553 159.907C65.1553 159.907 68.0807 159.333 68.3245 159.907C68.5682 160.481 65.1553 159.907 65.1553 159.907Z" fill="black"/>
<path opacity="0.1" d="M66.245 177.784C66.245 177.784 66.4376 180.2 65.7258 180.769C65.0139 181.337 66.245 177.784 66.245 177.784Z" fill="black"/>
<path opacity="0.1" d="M65.8867 182.902C66.813 182.997 71.6886 182.142 71.6423 182.902C71.596 183.662 65.8867 182.902 65.8867 182.902Z" fill="black"/>
<path opacity="0.1" d="M88.2608 179.963C88.2608 179.963 86.5983 179.719 87.0029 180.831L88.2608 179.963Z" fill="black"/>
<path opacity="0.1" d="M57.3421 85.3568H56.4426L55.0701 90.3818C55.0701 90.3818 54.5971 92.1365 54.1242 92.5636C53.6513 92.9907 54.5484 96.876 54.5484 96.876C54.5484 96.876 54.0291 99.6264 53.6025 100.337C53.1759 101.047 54.2656 102.802 54.2656 102.802L56.4426 107.927L62.2202 109.445C62.2202 109.445 72.4005 111.673 72.8734 112.005C73.3463 112.337 73.773 111.861 74.0923 108.781C74.4117 105.701 75.3234 99.7265 76.0426 99.4434C76.0426 99.4434 70.36 100.058 69.8871 99.9632C69.4142 99.868 67.1421 100.012 67.1421 100.012C67.1421 100.012 64.1582 99.8217 63.6853 100.107C63.2124 100.393 64.2996 98.7308 64.2996 98.7308C64.499 97.97 64.499 97.1706 64.2996 96.4098C63.9705 95.1188 63.7828 80.6124 57.3421 85.3568Z" fill="black"/>
<path opacity="0.1" d="M75.8549 100C75.1455 100.283 74.2459 106.258 73.9046 109.337C73.5633 112.417 73.1465 112.893 72.6857 112.561C72.3005 112.29 65.5161 110.77 62.9808 110.209C63.3806 107.849 63.5951 105.213 63.5951 105.213L56.3987 85.9329H57.1569C63.5951 81.191 63.7853 95.695 64.1168 96.9763C64.3162 97.737 64.3162 98.5364 64.1168 99.2972C64.1168 99.2972 63.0271 100.957 63.5 100.674C63.973 100.391 66.9569 100.578 66.9569 100.578C66.9569 100.578 69.2289 100.437 69.7043 100.532C70.1797 100.627 75.8549 100 75.8549 100Z" fill="black"/>
<path d="M57.1544 85.5424H56.2549L54.88 90.5674C54.88 90.5674 54.407 92.3197 53.9341 92.7468C53.4612 93.1738 54.3607 97.0713 54.3607 97.0713C54.3607 97.0713 53.839 99.8194 53.4124 100.532C52.9858 101.245 54.0755 102.994 54.0755 102.994L56.2549 108.12L62.03 109.638C62.03 109.638 72.2103 111.863 72.6833 112.195C73.1562 112.527 73.5828 112.054 73.9022 108.974C74.2215 105.894 75.1211 99.9194 75.8524 99.6363C75.8524 99.6363 70.1723 100.251 69.6994 100.156C69.2265 100.061 66.952 100.205 66.952 100.205C66.952 100.205 63.9681 100.015 63.4952 100.298C63.0222 100.581 64.1119 98.9212 64.1119 98.9212C64.3114 98.1605 64.3114 97.3611 64.1119 96.6003C63.7828 95.3069 63.5927 80.8029 57.1544 85.5424Z" fill="#FF8822"/>
<path opacity="0.1" d="M60.2309 102.702C60.2309 102.702 57.6273 107.632 57.1544 107.063C56.6815 106.494 60.2309 102.702 60.2309 102.702Z" fill="black"/>
<path opacity="0.1" d="M57.5323 99.895C57.5323 99.895 55.1188 101.896 56.2549 102.416C57.3909 102.936 57.5323 99.895 57.5323 99.895Z" fill="black"/>
<path opacity="0.1" d="M59.8043 97.4399C59.9945 97.4888 63.3099 98.1477 63.3562 98.4332C63.4025 98.7188 59.8043 97.4399 59.8043 97.4399Z" fill="black"/>
<path opacity="0.1" d="M82.7904 62.7162C82.6874 62.7523 82.5995 62.8219 82.5407 62.914C82.4819 63.006 82.4557 63.1151 82.4662 63.2238C82.2736 63.3947 82.0006 63.1946 81.8445 62.9798C81.6885 62.765 81.5057 62.4917 81.2643 62.5259C81.15 62.5624 81.039 62.6089 80.9328 62.665C80.5549 62.7845 80.2356 62.3404 80.0235 61.9499L78.9143 59.8974C78.183 60.3294 77.298 59.8779 76.5643 59.4313C75.8305 58.9847 74.9553 58.5332 74.2118 58.9627C73.1221 59.5924 73.0831 61.6912 71.9544 62.2086C71.5911 62.377 71.1694 62.3404 70.8305 62.5698C70.4917 62.7992 70.3186 63.236 70.1674 63.6534C70.1134 63.8923 69.9834 64.1073 69.7969 64.2659C69.679 64.3283 69.5475 64.3602 69.4142 64.3587C69.0826 64.4142 68.7419 64.3656 68.439 64.2196C68.2805 64.1193 68.1605 63.9682 68.0985 63.791C68.0366 63.6138 68.0363 63.4208 68.0977 63.2434C68.1068 63.2239 68.1174 63.2051 68.1294 63.1872C68.2504 63.0404 68.3588 62.8836 68.4537 62.7187C68.5682 62.4185 68.4049 62.067 68.4537 61.7424C68.5122 61.186 69.1021 60.8907 69.2021 60.344C69.2435 60.1293 69.2021 59.8999 69.2386 59.6851C69.2453 59.6562 69.2534 59.6277 69.263 59.5997L68.9168 59.8437C69.3045 59.3922 69.4995 58.7626 69.7823 58.211C70.098 57.6092 70.5323 57.0776 71.059 56.6485C71.5857 56.2194 72.1938 55.9016 72.8466 55.7144C74.0826 55.3556 75.3868 55.4532 76.6325 55.7583C77.818 56.0539 78.9539 56.5218 80.004 57.147C80.3764 57.3501 80.7072 57.6217 80.9791 57.9475C81.2078 58.2851 81.4022 58.6449 81.5593 59.0213C81.9274 59.7827 82.9318 60.4856 82.1322 60.5954C81.4667 60.6833 82.0737 61.1494 82.4223 61.4642C82.5007 61.5267 82.5683 61.6018 82.6222 61.6863C82.6804 61.8059 82.7072 61.9384 82.7 62.0712C82.6927 62.204 82.6517 62.3328 82.5808 62.4453C82.4296 62.5991 82.9757 62.6332 82.7904 62.7162Z" fill="black"/>
<path d="M82.7904 62.5282C82.6875 62.5643 82.5995 62.6339 82.5408 62.726C82.482 62.818 82.4557 62.9271 82.4662 63.0358C82.2736 63.2067 82.0006 63.0041 81.8446 62.7918C81.6886 62.5795 81.5057 62.3037 81.2644 62.3379C81.15 62.3744 81.039 62.4209 80.9328 62.477C80.555 62.599 80.2356 62.1524 80.0235 61.7619C79.653 61.0786 79.2922 60.3928 78.9143 59.7119C78.183 60.1414 77.2981 59.6899 76.5643 59.2433C75.8305 58.7967 74.9553 58.3452 74.2118 58.7747C73.1221 59.4044 73.0831 61.5032 71.9544 62.023C71.5911 62.189 71.1694 62.1524 70.8306 62.3818C70.4917 62.6112 70.3186 63.048 70.1675 63.4678C70.1134 63.7061 69.9833 63.9202 69.7969 64.0779C69.6792 64.1411 69.5477 64.1738 69.4142 64.1731C69.0826 64.2275 68.7423 64.179 68.4391 64.034C68.2812 63.9331 68.1617 63.782 68.0998 63.605C68.0379 63.428 68.0372 63.2353 68.0978 63.0578C68.1069 63.0383 68.1175 63.0195 68.1295 63.0017C68.2245 62.8357 68.3732 62.7186 68.4537 62.5331C68.5683 62.2329 68.4049 61.8815 68.4537 61.5569C68.5122 60.998 69.1021 60.7052 69.2021 60.156C69.2435 59.9413 69.2021 59.7119 69.2387 59.4971C69.2453 59.469 69.2535 59.4413 69.263 59.4141L68.9169 59.6582C69.3045 59.2042 69.4995 58.5746 69.7823 58.0255C70.098 57.4233 70.5323 56.8915 71.0589 56.4619C71.5856 56.0324 72.1937 55.7142 72.8466 55.5264C74.0826 55.1676 75.3868 55.2653 76.6325 55.5703C77.8186 55.8656 78.9546 56.3343 80.004 56.9614C80.3768 57.1629 80.7078 57.4337 80.9791 57.7595C81.2078 58.0972 81.4022 58.4569 81.5593 58.8333C81.9275 59.5972 82.9318 60.2976 82.1322 60.4074C81.4667 60.4977 82.0737 60.9638 82.4223 61.2787C82.5011 61.3399 82.5687 61.4142 82.6222 61.4983C82.6805 61.6179 82.7072 61.7504 82.7 61.8832C82.6927 62.016 82.6517 62.1448 82.5808 62.2573C82.4296 62.416 82.9757 62.4428 82.7904 62.5282Z" fill="#865A61"/>
<path opacity="0.1" d="M82.4053 61.2594L82.3297 62.0574C82.3297 62.0574 74.3824 51.9733 68.1904 63.3606C68.1904 63.3606 68.1611 63.2215 68.11 62.9872C68.205 62.8213 68.3537 62.7042 68.4342 62.5187C68.5488 62.2185 68.3854 61.8671 68.4342 61.5425C68.4927 60.9836 69.0826 60.6907 69.1826 60.1416C69.224 59.9269 69.1826 59.6975 69.2192 59.4827C69.2258 59.4546 69.234 59.4269 69.2435 59.3997L68.8974 59.6438C69.285 59.1898 69.48 58.5602 69.7628 58.0111C70.0785 57.4089 70.5128 56.877 71.0394 56.4475C71.5661 56.018 72.1742 55.6998 72.8271 55.512C74.0631 55.1532 75.3673 55.2509 76.613 55.5559C77.799 55.8512 78.9351 56.3199 79.9845 56.947C80.3573 57.1484 80.6883 57.4193 80.9596 57.745C81.1883 58.0827 81.3827 58.4425 81.5398 58.8189C81.908 59.5827 82.9123 60.2832 82.1127 60.393C81.4496 60.4784 82.0567 60.9519 82.4053 61.2594Z" fill="black"/>
<g opacity="0.1">
<path opacity="0.1" d="M82.6003 62.416C82.5614 62.4606 82.5332 62.5134 82.5175 62.5704C82.5019 62.6275 82.4994 62.6873 82.5101 62.7455C82.3175 62.9163 82.0469 62.7138 81.8909 62.5014C81.7349 62.2891 81.5496 62.0133 81.3107 62.0475C81.1961 62.0835 81.0851 62.1301 80.9791 62.1866C80.5988 62.3086 80.2795 61.862 80.0674 61.4715L78.9606 59.4191C78.2293 59.851 77.3444 59.3995 76.6106 58.9529C75.8768 58.5063 74.9992 58.0548 74.2581 58.4844C73.1684 59.114 73.1294 61.2128 72.0007 61.7302C71.635 61.8986 71.2133 61.862 70.8768 62.0914C70.5404 62.3208 70.3625 62.7577 70.2138 63.175C70.1587 63.4135 70.0289 63.6282 69.8432 63.7876C69.7256 63.8505 69.5939 63.8825 69.4605 63.8803C69.1291 63.9369 68.7884 63.8892 68.4854 63.7436C68.3021 63.6209 68.1702 63.435 68.1148 63.2214C68.0776 63.3914 68.0931 63.5688 68.1593 63.7297C68.2255 63.8906 68.3393 64.0275 68.4854 64.1219C68.7885 64.267 69.1289 64.3156 69.4605 64.261C69.5936 64.2608 69.7247 64.229 69.8432 64.1683C70.0283 64.0085 70.1581 63.794 70.2138 63.5557C70.3625 63.136 70.5429 62.6991 70.8768 62.4697C71.2108 62.2403 71.635 62.2769 72.0007 62.1109C73.1294 61.5936 73.1684 59.4947 74.2581 58.8651C74.9894 58.4331 75.8744 58.887 76.6106 59.3336C77.3468 59.7803 78.2195 60.2293 78.9606 59.7998L80.0674 61.8498C80.2795 62.2403 80.5988 62.6869 80.9791 62.5649C81.0857 62.5102 81.1966 62.4645 81.3107 62.4282C81.5545 62.3965 81.73 62.6723 81.8909 62.8797C82.0518 63.0871 82.3175 63.2995 82.5101 63.1238C82.4996 63.015 82.5258 62.9059 82.5846 62.8139C82.6434 62.7218 82.7313 62.6522 82.8343 62.6161C82.983 62.5576 82.6685 62.5209 82.6003 62.416Z" fill="black"/>
<path opacity="0.1" d="M81.9811 60.53C82.0389 60.5071 82.0996 60.4923 82.1615 60.4861C82.5125 60.4372 82.5149 60.2736 82.376 60.0415C82.3095 60.0769 82.2365 60.0985 82.1615 60.105C81.7812 60.1563 81.8153 60.3322 81.9811 60.53Z" fill="black"/>
<path opacity="0.1" d="M82.7078 62.1186C82.7346 61.9963 82.7346 61.8696 82.7078 61.7473C82.6907 61.8224 82.6583 61.893 82.6125 61.9549C82.549 62.0306 82.6223 62.0795 82.7078 62.1186Z" fill="black"/>
<path opacity="0.1" d="M68.4886 61.5715C68.4874 61.5935 68.4874 61.6155 68.4886 61.6375C68.4803 61.8085 68.4926 61.9799 68.5252 62.148C68.5433 61.9551 68.5309 61.7606 68.4886 61.5715Z" fill="black"/>
<path opacity="0.1" d="M69.2588 59.2588C69.1678 59.4276 69.0607 59.5871 68.9388 59.7351L69.2466 59.525C69.2432 59.4361 69.2473 59.347 69.2588 59.2588Z" fill="black"/>
</g>
<path d="M68.2001 63.1703C68.2001 63.1703 67.0568 58.0452 67.42 57.235C67.42 57.235 66.4449 55.2094 66.4449 54.7261C66.3952 53.9209 66.1437 53.1412 65.7136 52.4589C65.1943 51.6389 64.6239 47.8219 67.7394 46.9116C70.8549 46.0013 73.2464 45.174 73.6096 44.5468C73.9729 43.9195 79.3239 44.3027 80.7792 46.7188C82.2346 49.1349 83.1683 48.6468 83.1683 48.6468C83.1683 48.6468 85.4013 50.0477 85.4013 51.3021C85.4013 52.5565 84.726 53.1837 85.4013 53.4717C86.0766 53.7597 85.5573 58.9726 82.5954 59.1166L82.337 61.8671C82.337 61.8671 74.3824 51.7829 68.2001 63.1703Z" fill="#FF8822"/>
<path opacity="0.1" d="M68.5414 47.9072C68.5414 47.9072 67.854 51.9365 69.1094 53.2763L68.5414 47.9072Z" fill="black"/>
<path opacity="0.1" d="M71.7593 46.9822C71.7593 46.9822 70.009 51.297 70.4356 52.1268L71.7593 46.9822Z" fill="black"/>
<path opacity="0.1" d="M73.2757 45.6084C73.2757 45.6084 72.0909 51.2216 72.6589 51.6755L73.2757 45.6084Z" fill="black"/>
<path opacity="0.1" d="M75.3112 47.1238C75.3112 47.1238 73.8485 50.7284 74.436 51.2238L75.3112 47.1238Z" fill="black"/>
<path opacity="0.1" d="M78.0806 47.5508C78.0806 47.5508 76.3522 50.4794 76.7081 51.0114L78.0806 47.5508Z" fill="black"/>
<path opacity="0.1" d="M81.6325 50.4185C81.6325 50.4185 79.7846 50.9066 80.1698 51.5094L81.6325 50.4185Z" fill="black"/>
<path opacity="0.1" d="M83.3853 53.4766C83.3853 53.4766 81.7276 54.2819 82.0347 54.709L83.3853 53.4766Z" fill="black"/>
<path opacity="0.1" d="M67.42 57.235C67.42 57.235 78.005 52.9323 82.5881 59.1166C82.5881 59.1166 77.025 54.382 67.42 57.235Z" fill="black"/>
<path d="M63.5975 92.6003L65.0724 91.1067L69.2411 95.2336L67.7662 96.7272L63.9315 92.9322L63.5975 92.6003Z" fill="#53526B"/>
<path d="M53.9292 83.0264C53.9292 83.0264 60.3821 83.5755 66.3913 90.3479L63.8877 92.8836L53.9292 83.0264Z" fill="#DFE6F5"/>
<path d="M73.283 95.1312C73.283 95.1312 67.0787 92.8664 66.4693 92.3246C65.8598 91.7828 62.2714 94.9335 66.6472 99.2166C66.6472 99.2166 72.0104 100.742 73.4292 99.2166C74.848 97.6913 73.283 95.1312 73.283 95.1312Z" fill="#FDC2CC"/>
<path d="M254.437 124.74H253.176V153.157H254.437V124.74Z" fill="#535461"/>
<path d="M262.362 153.069L262.281 154.35L262.172 156.156L262.125 156.908L262.013 158.716L261.965 159.471L261.852 161.277L260.582 181.823C260.527 182.707 260.137 183.537 259.492 184.144C258.848 184.751 257.996 185.089 257.111 185.089H250.504C249.62 185.088 248.768 184.751 248.124 184.144C247.479 183.537 247.09 182.707 247.035 181.823L245.763 161.277L245.651 159.471L245.604 158.716L245.49 156.908L245.446 156.156L245.334 154.35L245.253 153.069C245.238 152.824 245.273 152.577 245.357 152.346C245.44 152.114 245.57 151.903 245.738 151.723C245.906 151.544 246.11 151.401 246.335 151.303C246.561 151.206 246.804 151.156 247.05 151.156H260.568C260.813 151.156 261.056 151.206 261.282 151.304C261.507 151.402 261.71 151.545 261.878 151.724C262.046 151.903 262.176 152.115 262.259 152.346C262.342 152.578 262.377 152.824 262.362 153.069Z" fill="#65617D"/>
<path d="M262.281 154.35L262.169 156.156H245.444L245.331 154.35H262.281Z" fill="#9D9CB5"/>
<path d="M262.123 156.908L262.011 158.716H245.602L245.49 156.908H262.123Z" fill="#9D9CB5"/>
<path d="M261.962 159.47L261.852 161.276H245.76L245.648 159.47H261.962Z" fill="#9D9CB5"/>
<path d="M243.405 135.387C250.748 140.705 253.805 149.023 253.805 149.023C253.805 149.023 244.958 148.72 237.616 143.409C230.273 138.099 227.216 129.774 227.216 129.774C227.216 129.774 236.063 130.072 243.405 135.387Z" fill="#FF8822"/>
<path d="M227.216 129.774C227.216 129.774 236.399 134.877 239.344 139.102C242.289 143.326 253.805 149.03 253.805 149.03" stroke="#535461" stroke-width="2" stroke-miterlimit="10"/>
<path d="M248.145 124.676C252.14 127.57 253.805 132.097 253.805 132.097C253.805 132.097 248.99 131.932 244.992 129.04C240.994 126.148 239.332 121.618 239.332 121.618C239.332 121.618 244.149 121.781 248.145 124.676Z" fill="#FF8822"/>
<path d="M239.332 121.618C239.332 121.618 244.322 124.405 245.933 126.694C247.545 128.983 253.805 132.097 253.805 132.097" stroke="#535461" stroke-width="2" stroke-miterlimit="10"/>
<path d="M259.612 131.868C255.022 136.918 254.051 143.519 254.051 143.519C254.051 143.519 260.524 141.928 265.114 136.879C269.705 131.829 270.675 125.228 270.675 125.228C270.675 125.228 264.202 126.816 259.612 131.868Z" fill="#FF8822"/>
<path d="M270.675 125.228C270.675 125.228 264.695 130.404 263.176 133.972C261.657 137.54 254.051 143.519 254.051 143.519" stroke="#535461" stroke-width="2" stroke-miterlimit="10"/>
</g>
<path d="M8.75 242L7.32812 238.367H2.75L1.34375 242H0L4.51562 230.531H5.63281L10.125 242H8.75ZM6.91406 237.172L5.58594 233.633C5.41406 233.185 5.23698 232.635 5.05469 231.984C4.9401 232.484 4.77604 233.034 4.5625 233.633L3.21875 237.172H6.91406ZM14.9219 242.156C13.6823 242.156 12.7214 241.776 12.0391 241.016C11.362 240.25 11.0234 239.169 11.0234 237.773C11.0234 236.341 11.3672 235.234 12.0547 234.453C12.7474 233.672 13.7318 233.281 15.0078 233.281C15.4193 233.281 15.8307 233.326 16.2422 233.414C16.6536 233.503 16.9766 233.607 17.2109 233.727L16.8125 234.828C16.526 234.714 16.2135 234.62 15.875 234.547C15.5365 234.469 15.237 234.43 14.9766 234.43C13.237 234.43 12.3672 235.539 12.3672 237.758C12.3672 238.81 12.5781 239.617 13 240.18C13.4271 240.742 14.0573 241.023 14.8906 241.023C15.6042 241.023 16.3359 240.87 17.0859 240.562V241.711C16.513 242.008 15.7917 242.156 14.9219 242.156ZM26.5156 237.711C26.5156 239.107 26.1641 240.198 25.4609 240.984C24.7578 241.766 23.7865 242.156 22.5469 242.156C21.7812 242.156 21.1016 241.977 20.5078 241.617C19.9141 241.258 19.4557 240.742 19.1328 240.07C18.8099 239.398 18.6484 238.612 18.6484 237.711C18.6484 236.315 18.9974 235.229 19.6953 234.453C20.3932 233.672 21.362 233.281 22.6016 233.281C23.7995 233.281 24.75 233.68 25.4531 234.477C26.1615 235.273 26.5156 236.352 26.5156 237.711ZM19.9922 237.711C19.9922 238.805 20.2109 239.638 20.6484 240.211C21.0859 240.784 21.7292 241.07 22.5781 241.07C23.4271 241.07 24.0703 240.786 24.5078 240.219C24.9505 239.646 25.1719 238.81 25.1719 237.711C25.1719 236.622 24.9505 235.797 24.5078 235.234C24.0703 234.667 23.4219 234.383 22.5625 234.383C21.7135 234.383 21.0729 234.661 20.6406 235.219C20.2083 235.776 19.9922 236.607 19.9922 237.711ZM39.7109 242V236.43C39.7109 235.747 39.5651 235.237 39.2734 234.898C38.9818 234.555 38.5286 234.383 37.9141 234.383C37.1068 234.383 36.5104 234.615 36.125 235.078C35.7396 235.542 35.5469 236.255 35.5469 237.219V242H34.25V236.43C34.25 235.747 34.1042 235.237 33.8125 234.898C33.5208 234.555 33.0651 234.383 32.4453 234.383C31.6328 234.383 31.0365 234.628 30.6562 235.117C30.2812 235.602 30.0938 236.398 30.0938 237.508V242H28.7969V233.438H29.8516L30.0625 234.609H30.125C30.3698 234.193 30.7135 233.867 31.1562 233.633C31.6042 233.398 32.1042 233.281 32.6562 233.281C33.9948 233.281 34.8698 233.766 35.2812 234.734H35.3438C35.599 234.286 35.9688 233.932 36.4531 233.672C36.9375 233.411 37.4896 233.281 38.1094 233.281C39.0781 233.281 39.8021 233.531 40.2812 234.031C40.7656 234.526 41.0078 235.32 41.0078 236.414V242H39.7109ZM47.6719 242.156C47.1146 242.156 46.6042 242.055 46.1406 241.852C45.6823 241.643 45.2969 241.326 44.9844 240.898H44.8906C44.9531 241.398 44.9844 241.872 44.9844 242.32V245.844H43.6875V233.438H44.7422L44.9219 234.609H44.9844C45.3177 234.141 45.7057 233.802 46.1484 233.594C46.5911 233.385 47.099 233.281 47.6719 233.281C48.8073 233.281 49.6823 233.669 50.2969 234.445C50.9167 235.221 51.2266 236.31 51.2266 237.711C51.2266 239.117 50.9115 240.211 50.2812 240.992C49.6562 241.768 48.7865 242.156 47.6719 242.156ZM47.4844 234.383C46.6094 234.383 45.9766 234.625 45.5859 235.109C45.1953 235.594 44.9948 236.365 44.9844 237.422V237.711C44.9844 238.914 45.1849 239.776 45.5859 240.297C45.987 240.812 46.6302 241.07 47.5156 241.07C48.2552 241.07 48.8333 240.771 49.25 240.172C49.6719 239.573 49.8828 238.747 49.8828 237.695C49.8828 236.628 49.6719 235.81 49.25 235.242C48.8333 234.669 48.2448 234.383 47.4844 234.383ZM58.7656 242L58.5078 240.781H58.4453C58.0182 241.318 57.5911 241.682 57.1641 241.875C56.7422 242.062 56.2135 242.156 55.5781 242.156C54.7292 242.156 54.0625 241.938 53.5781 241.5C53.099 241.062 52.8594 240.44 52.8594 239.633C52.8594 237.904 54.2422 236.997 57.0078 236.914L58.4609 236.867V236.336C58.4609 235.664 58.3151 235.169 58.0234 234.852C57.737 234.529 57.276 234.367 56.6406 234.367C55.9271 234.367 55.1198 234.586 54.2188 235.023L53.8203 234.031C54.2422 233.802 54.7031 233.622 55.2031 233.492C55.7083 233.362 56.2135 233.297 56.7188 233.297C57.7396 233.297 58.4948 233.523 58.9844 233.977C59.4792 234.43 59.7266 235.156 59.7266 236.156V242H58.7656ZM55.8359 241.086C56.6432 241.086 57.276 240.865 57.7344 240.422C58.1979 239.979 58.4297 239.359 58.4297 238.562V237.789L57.1328 237.844C56.1016 237.88 55.3568 238.042 54.8984 238.328C54.4453 238.609 54.2188 239.049 54.2188 239.648C54.2188 240.117 54.3594 240.474 54.6406 240.719C54.9271 240.964 55.3255 241.086 55.8359 241.086ZM68.2656 242V236.461C68.2656 235.763 68.1068 235.242 67.7891 234.898C67.4714 234.555 66.974 234.383 66.2969 234.383C65.401 234.383 64.7448 234.625 64.3281 235.109C63.9115 235.594 63.7031 236.393 63.7031 237.508V242H62.4062V233.438H63.4609L63.6719 234.609H63.7344C64 234.188 64.3724 233.862 64.8516 233.633C65.3307 233.398 65.8646 233.281 66.4531 233.281C67.4844 233.281 68.2604 233.531 68.7812 234.031C69.3021 234.526 69.5625 235.32 69.5625 236.414V242H68.2656ZM78.0938 242V236.461C78.0938 235.763 77.9349 235.242 77.6172 234.898C77.2995 234.555 76.8021 234.383 76.125 234.383C75.224 234.383 74.5651 234.628 74.1484 235.117C73.737 235.607 73.5312 236.409 73.5312 237.523V242H72.2344V229.844H73.5312V233.523C73.5312 233.966 73.5104 234.333 73.4688 234.625H73.5469C73.8021 234.214 74.1641 233.891 74.6328 233.656C75.1068 233.417 75.6458 233.297 76.25 233.297C77.2969 233.297 78.0807 233.547 78.6016 234.047C79.1276 234.542 79.3906 235.331 79.3906 236.414V242H78.0938ZM85.6797 242.156C84.4141 242.156 83.4141 241.771 82.6797 241C81.9505 240.229 81.5859 239.159 81.5859 237.789C81.5859 236.409 81.9245 235.312 82.6016 234.5C83.2839 233.688 84.1979 233.281 85.3438 233.281C86.4167 233.281 87.2656 233.635 87.8906 234.344C88.5156 235.047 88.8281 235.977 88.8281 237.133V237.953H82.9297C82.9557 238.958 83.2083 239.721 83.6875 240.242C84.1719 240.763 84.8516 241.023 85.7266 241.023C86.6484 241.023 87.5599 240.831 88.4609 240.445V241.602C88.0026 241.799 87.5677 241.94 87.1562 242.023C86.75 242.112 86.2578 242.156 85.6797 242.156ZM85.3281 234.367C84.6406 234.367 84.0911 234.591 83.6797 235.039C83.2734 235.487 83.0339 236.107 82.9609 236.898H87.4375C87.4375 236.081 87.2552 235.456 86.8906 235.023C86.526 234.586 86.0052 234.367 85.3281 234.367ZM100.469 242L100.211 240.781H100.148C99.7214 241.318 99.2943 241.682 98.8672 241.875C98.4453 242.062 97.9167 242.156 97.2812 242.156C96.4323 242.156 95.7656 241.938 95.2812 241.5C94.8021 241.062 94.5625 240.44 94.5625 239.633C94.5625 237.904 95.9453 236.997 98.7109 236.914L100.164 236.867V236.336C100.164 235.664 100.018 235.169 99.7266 234.852C99.4401 234.529 98.9792 234.367 98.3438 234.367C97.6302 234.367 96.8229 234.586 95.9219 235.023L95.5234 234.031C95.9453 233.802 96.4062 233.622 96.9062 233.492C97.4115 233.362 97.9167 233.297 98.4219 233.297C99.4427 233.297 100.198 233.523 100.688 233.977C101.182 234.43 101.43 235.156 101.43 236.156V242H100.469ZM97.5391 241.086C98.3464 241.086 98.9792 240.865 99.4375 240.422C99.901 239.979 100.133 239.359 100.133 238.562V237.789L98.8359 237.844C97.8047 237.88 97.0599 238.042 96.6016 238.328C96.1484 238.609 95.9219 239.049 95.9219 239.648C95.9219 240.117 96.0625 240.474 96.3438 240.719C96.6302 240.964 97.0286 241.086 97.5391 241.086ZM107.344 241.07C108.208 241.07 108.839 240.839 109.234 240.375C109.63 239.911 109.841 239.13 109.867 238.031V237.742C109.867 236.544 109.664 235.682 109.258 235.156C108.852 234.63 108.208 234.367 107.328 234.367C106.568 234.367 105.984 234.664 105.578 235.258C105.177 235.846 104.977 236.68 104.977 237.758C104.977 238.836 105.174 239.659 105.57 240.227C105.971 240.789 106.562 241.07 107.344 241.07ZM107.148 242.156C106.044 242.156 105.182 241.768 104.562 240.992C103.943 240.216 103.633 239.133 103.633 237.742C103.633 236.341 103.945 235.247 104.57 234.461C105.195 233.674 106.065 233.281 107.18 233.281C108.352 233.281 109.253 233.724 109.883 234.609H109.953L110.141 233.438H111.164V245.844H109.867V242.18C109.867 241.659 109.896 241.216 109.953 240.852H109.852C109.253 241.721 108.352 242.156 107.148 242.156ZM115.141 233.438V238.992C115.141 239.69 115.299 240.211 115.617 240.555C115.935 240.898 116.432 241.07 117.109 241.07C118.005 241.07 118.659 240.826 119.07 240.336C119.487 239.846 119.695 239.047 119.695 237.938V233.438H120.992V242H119.922L119.734 240.852H119.664C119.398 241.273 119.029 241.596 118.555 241.82C118.086 242.044 117.549 242.156 116.945 242.156C115.904 242.156 115.122 241.909 114.602 241.414C114.086 240.919 113.828 240.128 113.828 239.039V233.438H115.141ZM125.047 242H123.75V233.438H125.047V242ZM123.641 231.117C123.641 230.82 123.714 230.604 123.859 230.469C124.005 230.328 124.188 230.258 124.406 230.258C124.615 230.258 124.794 230.328 124.945 230.469C125.096 230.609 125.172 230.826 125.172 231.117C125.172 231.409 125.096 231.628 124.945 231.773C124.794 231.914 124.615 231.984 124.406 231.984C124.188 231.984 124.005 231.914 123.859 231.773C123.714 231.628 123.641 231.409 123.641 231.117ZM133.172 233.438V238.992C133.172 239.69 133.331 240.211 133.648 240.555C133.966 240.898 134.464 241.07 135.141 241.07C136.036 241.07 136.69 240.826 137.102 240.336C137.518 239.846 137.727 239.047 137.727 237.938V233.438H139.023V242H137.953L137.766 240.852H137.695C137.43 241.273 137.06 241.596 136.586 241.82C136.117 242.044 135.581 242.156 134.977 242.156C133.935 242.156 133.154 241.909 132.633 241.414C132.117 240.919 131.859 240.128 131.859 239.039V233.438H133.172ZM152.695 242V236.43C152.695 235.747 152.549 235.237 152.258 234.898C151.966 234.555 151.513 234.383 150.898 234.383C150.091 234.383 149.495 234.615 149.109 235.078C148.724 235.542 148.531 236.255 148.531 237.219V242H147.234V236.43C147.234 235.747 147.089 235.237 146.797 234.898C146.505 234.555 146.049 234.383 145.43 234.383C144.617 234.383 144.021 234.628 143.641 235.117C143.266 235.602 143.078 236.398 143.078 237.508V242H141.781V233.438H142.836L143.047 234.609H143.109C143.354 234.193 143.698 233.867 144.141 233.633C144.589 233.398 145.089 233.281 145.641 233.281C146.979 233.281 147.854 233.766 148.266 234.734H148.328C148.583 234.286 148.953 233.932 149.438 233.672C149.922 233.411 150.474 233.281 151.094 233.281C152.062 233.281 152.786 233.531 153.266 234.031C153.75 234.526 153.992 235.32 153.992 236.414V242H152.695ZM164.734 233.281C165.115 233.281 165.456 233.312 165.758 233.375L165.578 234.578C165.224 234.5 164.911 234.461 164.641 234.461C163.948 234.461 163.354 234.742 162.859 235.305C162.37 235.867 162.125 236.568 162.125 237.406V242H160.828V233.438H161.898L162.047 235.023H162.109C162.427 234.466 162.81 234.036 163.258 233.734C163.706 233.432 164.198 233.281 164.734 233.281ZM170.977 242.156C169.711 242.156 168.711 241.771 167.977 241C167.247 240.229 166.883 239.159 166.883 237.789C166.883 236.409 167.221 235.312 167.898 234.5C168.581 233.688 169.495 233.281 170.641 233.281C171.714 233.281 172.562 233.635 173.188 234.344C173.812 235.047 174.125 235.977 174.125 237.133V237.953H168.227C168.253 238.958 168.505 239.721 168.984 240.242C169.469 240.763 170.148 241.023 171.023 241.023C171.945 241.023 172.857 240.831 173.758 240.445V241.602C173.299 241.799 172.865 241.94 172.453 242.023C172.047 242.112 171.555 242.156 170.977 242.156ZM170.625 234.367C169.938 234.367 169.388 234.591 168.977 235.039C168.57 235.487 168.331 236.107 168.258 236.898H172.734C172.734 236.081 172.552 235.456 172.188 235.023C171.823 234.586 171.302 234.367 170.625 234.367ZM181.867 239.664C181.867 240.461 181.57 241.076 180.977 241.508C180.383 241.94 179.549 242.156 178.477 242.156C177.341 242.156 176.456 241.977 175.82 241.617V240.414C176.232 240.622 176.672 240.786 177.141 240.906C177.615 241.026 178.07 241.086 178.508 241.086C179.185 241.086 179.706 240.979 180.07 240.766C180.435 240.547 180.617 240.216 180.617 239.773C180.617 239.44 180.471 239.156 180.18 238.922C179.893 238.682 179.331 238.401 178.492 238.078C177.695 237.781 177.128 237.523 176.789 237.305C176.456 237.081 176.206 236.828 176.039 236.547C175.878 236.266 175.797 235.93 175.797 235.539C175.797 234.841 176.081 234.292 176.648 233.891C177.216 233.484 177.995 233.281 178.984 233.281C179.906 233.281 180.807 233.469 181.688 233.844L181.227 234.898C180.367 234.544 179.589 234.367 178.891 234.367C178.276 234.367 177.812 234.464 177.5 234.656C177.188 234.849 177.031 235.115 177.031 235.453C177.031 235.682 177.089 235.878 177.203 236.039C177.323 236.201 177.513 236.354 177.773 236.5C178.034 236.646 178.534 236.857 179.273 237.133C180.289 237.503 180.974 237.875 181.328 238.25C181.688 238.625 181.867 239.096 181.867 239.664ZM185.203 233.438V238.992C185.203 239.69 185.362 240.211 185.68 240.555C185.997 240.898 186.495 241.07 187.172 241.07C188.068 241.07 188.721 240.826 189.133 240.336C189.549 239.846 189.758 239.047 189.758 237.938V233.438H191.055V242H189.984L189.797 240.852H189.727C189.461 241.273 189.091 241.596 188.617 241.82C188.148 242.044 187.612 242.156 187.008 242.156C185.966 242.156 185.185 241.909 184.664 241.414C184.148 240.919 183.891 240.128 183.891 239.039V233.438H185.203ZM204.727 242V236.43C204.727 235.747 204.581 235.237 204.289 234.898C203.997 234.555 203.544 234.383 202.93 234.383C202.122 234.383 201.526 234.615 201.141 235.078C200.755 235.542 200.562 236.255 200.562 237.219V242H199.266V236.43C199.266 235.747 199.12 235.237 198.828 234.898C198.536 234.555 198.081 234.383 197.461 234.383C196.648 234.383 196.052 234.628 195.672 235.117C195.297 235.602 195.109 236.398 195.109 237.508V242H193.812V233.438H194.867L195.078 234.609H195.141C195.385 234.193 195.729 233.867 196.172 233.633C196.62 233.398 197.12 233.281 197.672 233.281C199.01 233.281 199.885 233.766 200.297 234.734H200.359C200.615 234.286 200.984 233.932 201.469 233.672C201.953 233.411 202.505 233.281 203.125 233.281C204.094 233.281 204.818 233.531 205.297 234.031C205.781 234.526 206.023 235.32 206.023 236.414V242H204.727ZM216.094 237.711C216.094 239.107 215.742 240.198 215.039 240.984C214.336 241.766 213.365 242.156 212.125 242.156C211.359 242.156 210.68 241.977 210.086 241.617C209.492 241.258 209.034 240.742 208.711 240.07C208.388 239.398 208.227 238.612 208.227 237.711C208.227 236.315 208.576 235.229 209.273 234.453C209.971 233.672 210.94 233.281 212.18 233.281C213.378 233.281 214.328 233.68 215.031 234.477C215.74 235.273 216.094 236.352 216.094 237.711ZM209.57 237.711C209.57 238.805 209.789 239.638 210.227 240.211C210.664 240.784 211.307 241.07 212.156 241.07C213.005 241.07 213.648 240.786 214.086 240.219C214.529 239.646 214.75 238.81 214.75 237.711C214.75 236.622 214.529 235.797 214.086 235.234C213.648 234.667 213 234.383 212.141 234.383C211.292 234.383 210.651 234.661 210.219 235.219C209.786 235.776 209.57 236.607 209.57 237.711ZM228.359 240.852H228.289C227.69 241.721 226.794 242.156 225.602 242.156C224.482 242.156 223.609 241.773 222.984 241.008C222.365 240.242 222.055 239.154 222.055 237.742C222.055 236.331 222.367 235.234 222.992 234.453C223.617 233.672 224.487 233.281 225.602 233.281C226.763 233.281 227.654 233.703 228.273 234.547H228.375L228.32 233.93L228.289 233.328V229.844H229.586V242H228.531L228.359 240.852ZM225.766 241.07C226.651 241.07 227.292 240.831 227.688 240.352C228.089 239.867 228.289 239.089 228.289 238.016V237.742C228.289 236.529 228.086 235.664 227.68 235.148C227.279 234.628 226.635 234.367 225.75 234.367C224.99 234.367 224.406 234.664 224 235.258C223.599 235.846 223.398 236.68 223.398 237.758C223.398 238.852 223.599 239.677 224 240.234C224.401 240.792 224.99 241.07 225.766 241.07ZM235.961 242.156C234.695 242.156 233.695 241.771 232.961 241C232.232 240.229 231.867 239.159 231.867 237.789C231.867 236.409 232.206 235.312 232.883 234.5C233.565 233.688 234.479 233.281 235.625 233.281C236.698 233.281 237.547 233.635 238.172 234.344C238.797 235.047 239.109 235.977 239.109 237.133V237.953H233.211C233.237 238.958 233.49 239.721 233.969 240.242C234.453 240.763 235.133 241.023 236.008 241.023C236.93 241.023 237.841 240.831 238.742 240.445V241.602C238.284 241.799 237.849 241.94 237.438 242.023C237.031 242.112 236.539 242.156 235.961 242.156ZM235.609 234.367C234.922 234.367 234.372 234.591 233.961 235.039C233.555 235.487 233.315 236.107 233.242 236.898H237.719C237.719 236.081 237.536 235.456 237.172 235.023C236.807 234.586 236.286 234.367 235.609 234.367ZM246.852 239.664C246.852 240.461 246.555 241.076 245.961 241.508C245.367 241.94 244.534 242.156 243.461 242.156C242.326 242.156 241.44 241.977 240.805 241.617V240.414C241.216 240.622 241.656 240.786 242.125 240.906C242.599 241.026 243.055 241.086 243.492 241.086C244.169 241.086 244.69 240.979 245.055 240.766C245.419 240.547 245.602 240.216 245.602 239.773C245.602 239.44 245.456 239.156 245.164 238.922C244.878 238.682 244.315 238.401 243.477 238.078C242.68 237.781 242.112 237.523 241.773 237.305C241.44 237.081 241.19 236.828 241.023 236.547C240.862 236.266 240.781 235.93 240.781 235.539C240.781 234.841 241.065 234.292 241.633 233.891C242.201 233.484 242.979 233.281 243.969 233.281C244.891 233.281 245.792 233.469 246.672 233.844L246.211 234.898C245.352 234.544 244.573 234.367 243.875 234.367C243.26 234.367 242.797 234.464 242.484 234.656C242.172 234.849 242.016 235.115 242.016 235.453C242.016 235.682 242.073 235.878 242.188 236.039C242.307 236.201 242.497 236.354 242.758 236.5C243.018 236.646 243.518 236.857 244.258 237.133C245.273 237.503 245.958 237.875 246.312 238.25C246.672 238.625 246.852 239.096 246.852 239.664ZM251.734 241.086C251.964 241.086 252.185 241.07 252.398 241.039C252.612 241.003 252.781 240.966 252.906 240.93V241.922C252.766 241.99 252.557 242.044 252.281 242.086C252.01 242.133 251.766 242.156 251.547 242.156C249.891 242.156 249.062 241.284 249.062 239.539V234.445H247.836V233.82L249.062 233.281L249.609 231.453H250.359V233.438H252.844V234.445H250.359V239.484C250.359 240 250.482 240.396 250.727 240.672C250.971 240.948 251.307 241.086 251.734 241.086ZM259.891 242L259.633 240.781H259.57C259.143 241.318 258.716 241.682 258.289 241.875C257.867 242.062 257.339 242.156 256.703 242.156C255.854 242.156 255.188 241.938 254.703 241.5C254.224 241.062 253.984 240.44 253.984 239.633C253.984 237.904 255.367 236.997 258.133 236.914L259.586 236.867V236.336C259.586 235.664 259.44 235.169 259.148 234.852C258.862 234.529 258.401 234.367 257.766 234.367C257.052 234.367 256.245 234.586 255.344 235.023L254.945 234.031C255.367 233.802 255.828 233.622 256.328 233.492C256.833 233.362 257.339 233.297 257.844 233.297C258.865 233.297 259.62 233.523 260.109 233.977C260.604 234.43 260.852 235.156 260.852 236.156V242H259.891ZM256.961 241.086C257.768 241.086 258.401 240.865 258.859 240.422C259.323 239.979 259.555 239.359 259.555 238.562V237.789L258.258 237.844C257.227 237.88 256.482 238.042 256.023 238.328C255.57 238.609 255.344 239.049 255.344 239.648C255.344 240.117 255.484 240.474 255.766 240.719C256.052 240.964 256.451 241.086 256.961 241.086ZM269.562 242L266.312 233.438H267.703L269.547 238.516C269.964 239.703 270.208 240.474 270.281 240.828H270.344C270.401 240.552 270.581 239.982 270.883 239.117C271.19 238.247 271.875 236.354 272.938 233.438H274.328L271.078 242H269.562ZM279.32 242.156C278.055 242.156 277.055 241.771 276.32 241C275.591 240.229 275.227 239.159 275.227 237.789C275.227 236.409 275.565 235.312 276.242 234.5C276.924 233.688 277.839 233.281 278.984 233.281C280.057 233.281 280.906 233.635 281.531 234.344C282.156 235.047 282.469 235.977 282.469 237.133V237.953H276.57C276.596 238.958 276.849 239.721 277.328 240.242C277.812 240.763 278.492 241.023 279.367 241.023C280.289 241.023 281.201 240.831 282.102 240.445V241.602C281.643 241.799 281.208 241.94 280.797 242.023C280.391 242.112 279.898 242.156 279.32 242.156ZM278.969 234.367C278.281 234.367 277.732 234.591 277.32 235.039C276.914 235.487 276.674 236.107 276.602 236.898H281.078C281.078 236.081 280.896 235.456 280.531 235.023C280.167 234.586 279.646 234.367 278.969 234.367ZM290.547 242V236.461C290.547 235.763 290.388 235.242 290.07 234.898C289.753 234.555 289.255 234.383 288.578 234.383C287.682 234.383 287.026 234.625 286.609 235.109C286.193 235.594 285.984 236.393 285.984 237.508V242H284.688V233.438H285.742L285.953 234.609H286.016C286.281 234.188 286.654 233.862 287.133 233.633C287.612 233.398 288.146 233.281 288.734 233.281C289.766 233.281 290.542 233.531 291.062 234.031C291.583 234.526 291.844 235.32 291.844 236.414V242H290.547ZM300.344 240.852H300.273C299.674 241.721 298.779 242.156 297.586 242.156C296.466 242.156 295.594 241.773 294.969 241.008C294.349 240.242 294.039 239.154 294.039 237.742C294.039 236.331 294.352 235.234 294.977 234.453C295.602 233.672 296.471 233.281 297.586 233.281C298.747 233.281 299.638 233.703 300.258 234.547H300.359L300.305 233.93L300.273 233.328V229.844H301.57V242H300.516L300.344 240.852ZM297.75 241.07C298.635 241.07 299.276 240.831 299.672 240.352C300.073 239.867 300.273 239.089 300.273 238.016V237.742C300.273 236.529 300.07 235.664 299.664 235.148C299.263 234.628 298.62 234.367 297.734 234.367C296.974 234.367 296.391 234.664 295.984 235.258C295.583 235.846 295.383 236.68 295.383 237.758C295.383 238.852 295.583 239.677 295.984 240.234C296.385 240.792 296.974 241.07 297.75 241.07ZM309.594 242L309.336 240.781H309.273C308.846 241.318 308.419 241.682 307.992 241.875C307.57 242.062 307.042 242.156 306.406 242.156C305.557 242.156 304.891 241.938 304.406 241.5C303.927 241.062 303.688 240.44 303.688 239.633C303.688 237.904 305.07 236.997 307.836 236.914L309.289 236.867V236.336C309.289 235.664 309.143 235.169 308.852 234.852C308.565 234.529 308.104 234.367 307.469 234.367C306.755 234.367 305.948 234.586 305.047 235.023L304.648 234.031C305.07 233.802 305.531 233.622 306.031 233.492C306.536 233.362 307.042 233.297 307.547 233.297C308.568 233.297 309.323 233.523 309.812 233.977C310.307 234.43 310.555 235.156 310.555 236.156V242H309.594ZM306.664 241.086C307.471 241.086 308.104 240.865 308.562 240.422C309.026 239.979 309.258 239.359 309.258 238.562V237.789L307.961 237.844C306.93 237.88 306.185 238.042 305.727 238.328C305.273 238.609 305.047 239.049 305.047 239.648C305.047 240.117 305.188 240.474 305.469 240.719C305.755 240.964 306.154 241.086 306.664 241.086ZM313.047 241.172C313.047 240.823 313.125 240.56 313.281 240.383C313.443 240.201 313.672 240.109 313.969 240.109C314.271 240.109 314.505 240.201 314.672 240.383C314.844 240.56 314.93 240.823 314.93 241.172C314.93 241.51 314.844 241.771 314.672 241.953C314.5 242.135 314.266 242.227 313.969 242.227C313.703 242.227 313.482 242.146 313.305 241.984C313.133 241.818 313.047 241.547 313.047 241.172Z" fill="black" fill-opacity="0.54"/>
<defs>
<linearGradient id="paint0_linear" x1="76.7593" y1="198.714" x2="76.7593" y2="43.6046" gradientUnits="userSpaceOnUse">
<stop stop-color="#808080" stop-opacity="0.25"/>
<stop offset="0.54" stop-color="#808080" stop-opacity="0.12"/>
<stop offset="1" stop-color="#808080" stop-opacity="0.1"/>
</linearGradient>
<clipPath id="clip0">
<rect width="230" height="200" fill="white" transform="translate(44)"/>
</clipPath>
</defs>
</svg>
