<svg width="230" height="200" viewBox="0 0 230 200" fill="none" xmlns="http://www.w3.org/2000/svg">
<g clip-path="url(#clip0)">
<path opacity="0.1" d="M92.0029 185.315C135.625 185.315 170.988 184.053 170.988 182.497C170.988 180.94 135.625 179.678 92.0029 179.678C48.3807 179.678 13.0179 180.94 13.0179 182.497C13.0179 184.053 48.3807 185.315 92.0029 185.315Z" fill="#FF8822"/>
<path opacity="0.1" d="M70.8403 7.91456C78.6242 0.971298 90.8426 -0.444199 101.964 0.104916C136.898 1.84256 168.433 18.726 195.71 37.8255C205.583 44.7395 215.305 52.1903 221.716 61.7108C234.764 81.0933 230.892 107.941 212.755 123.917C206.582 129.347 199.103 133.513 191.414 137.203C177.763 143.768 163.016 149.037 147.514 150.538C136.456 151.607 125.267 150.736 114.275 149.245C83.5511 145.069 53.4197 135.849 28.1543 120.076C17.0744 113.157 6.63085 104.556 2.06971 93.3642C-2.49143 82.172 0.421749 67.9902 11.7332 61.3667C16.4138 58.626 22.0086 57.3886 27.4863 56.227C35.5481 54.5186 43.7416 52.8322 51.0161 49.3545C58.5318 45.7645 67.4298 38.8188 65.9428 30.87C64.346 22.3404 63.0735 14.8505 70.8403 7.91456Z" fill="#FF8822"/>
<path opacity="0.1" d="M30.8968 200C42.563 200 52.0204 198.092 52.0204 195.739C52.0204 193.386 42.563 191.478 30.8968 191.478C19.2305 191.478 9.77316 193.386 9.77316 195.739C9.77316 198.092 19.2305 200 30.8968 200Z" fill="#FF8822"/>
<path opacity="0.1" d="M208.874 186.482C220.54 186.482 229.998 185.644 229.998 184.61C229.998 183.576 220.54 182.738 208.874 182.738C197.208 182.738 187.75 183.576 187.75 184.61C187.75 185.644 197.208 186.482 208.874 186.482Z" fill="#FF8822"/>
<path d="M125.184 39.0969H62.5883V52.9419H125.184V39.0969Z" fill="#464A5F"/>
<path opacity="0.1" d="M125.184 39.0969H62.5883V39.456H125.184V39.0969Z" fill="black"/>
<path d="M128.509 8.43701H59.5362V39.0947H128.509V8.43701Z" fill="#65617D"/>
<path d="M33.91 8.43701H60.6137V73.2619H29.1806V13.1789C29.1806 11.9232 29.6789 10.719 30.5658 9.83106C31.4527 8.94315 32.6557 8.44433 33.91 8.44433V8.43701Z" fill="#65617D"/>
<path opacity="0.1" d="M56.6157 12.5271H33.8953V69.8889H56.6157V12.5271Z" fill="black"/>
<path d="M56.2573 12.1685H33.5369V69.5303H56.2573V12.1685Z" fill="#D1D9EC"/>
<path opacity="0.1" d="M56.2573 68.9251C57.535 68.9251 58.5708 67.8881 58.5708 66.609C58.5708 65.3299 57.535 64.293 56.2573 64.293C54.9796 64.293 53.9438 65.3299 53.9438 66.609C53.9438 67.8881 54.9796 68.9251 56.2573 68.9251Z" fill="black"/>
<path d="M56.2573 68.5637C57.535 68.5637 58.5708 67.5268 58.5708 66.2477C58.5708 64.9686 57.535 63.9316 56.2573 63.9316C54.9796 63.9316 53.9438 64.9686 53.9438 66.2477C53.9438 67.5268 54.9796 68.5637 56.2573 68.5637Z" fill="#464A5F"/>
<path d="M126.803 8.43701H153.265C153.919 8.43733 154.566 8.56659 155.169 8.81739C155.773 9.06819 156.321 9.43562 156.783 9.89867C157.244 10.3617 157.61 10.9113 157.86 11.516C158.109 12.1208 158.237 12.7688 158.236 13.423V73.2619H126.803V8.43701Z" fill="#65617D"/>
<path opacity="0.1" d="M154.238 12.5271H131.517V69.8889H154.238V12.5271Z" fill="black"/>
<path d="M153.879 12.1685H131.159V69.5303H153.879V12.1685Z" fill="#D1D9EC"/>
<path opacity="0.1" d="M153.882 68.9251C155.16 68.9251 156.195 67.8881 156.195 66.609C156.195 65.3299 155.16 64.293 153.882 64.293C152.604 64.293 151.568 65.3299 151.568 66.609C151.568 67.8881 152.604 68.9251 153.882 68.9251Z" fill="black"/>
<path d="M153.882 68.5637C155.16 68.5637 156.195 67.5268 156.195 66.2477C156.195 64.9686 155.16 63.9316 153.882 63.9316C152.604 63.9316 151.568 64.9686 151.568 66.2477C151.568 67.5268 152.604 68.5637 153.882 68.5637Z" fill="#464A5F"/>
<path opacity="0.1" d="M89.6431 12.5271H65.1041V37.0933H89.6431V12.5271Z" fill="black"/>
<path d="M89.2848 12.1685H64.7458V36.7347H89.2848V12.1685Z" fill="#D1D9EC"/>
<path opacity="0.1" d="M89.2848 38.5797C90.1034 38.5797 90.767 37.9154 90.767 37.0959C90.767 36.2764 90.1034 35.6121 89.2848 35.6121C88.4662 35.6121 87.8026 36.2764 87.8026 37.0959C87.8026 37.9154 88.4662 38.5797 89.2848 38.5797Z" fill="black"/>
<path d="M89.2848 38.2208C90.1034 38.2208 90.767 37.5565 90.767 36.737C90.767 35.9175 90.1034 35.2532 89.2848 35.2532C88.4662 35.2532 87.8026 35.9175 87.8026 36.737C87.8026 37.5565 88.4662 38.2208 89.2848 38.2208Z" fill="#464A5F"/>
<path opacity="0.1" d="M97.3247 37.0957H121.864V12.5295L97.3247 12.5295V37.0957Z" fill="black"/>
<path d="M97.683 36.7371H122.222V12.1709L97.683 12.1709V36.7371Z" fill="#D1D9EC"/>
<path opacity="0.1" d="M97.683 38.5797C98.5016 38.5797 99.1652 37.9154 99.1652 37.0959C99.1652 36.2764 98.5016 35.6121 97.683 35.6121C96.8644 35.6121 96.2008 36.2764 96.2008 37.0959C96.2008 37.9154 96.8644 38.5797 97.683 38.5797Z" fill="black"/>
<path d="M97.683 38.2208C98.5016 38.2208 99.1652 37.5565 99.1652 36.737C99.1652 35.9175 98.5016 35.2532 97.683 35.2532C96.8644 35.2532 96.2008 35.9175 96.2008 36.737C96.2008 37.5565 96.8644 38.2208 97.683 38.2208Z" fill="#464A5F"/>
<path opacity="0.1" d="M94.0214 8.43701H93.0341V39.0947H94.0214V8.43701Z" fill="black"/>
<path opacity="0.1" d="M68.8779 50.7847H64.7458V52.044H68.8779V50.7847Z" fill="black"/>
<path d="M68.8779 50.4233H64.7458V51.6827H68.8779V50.4233Z" fill="#53526B"/>
<path opacity="0.1" d="M116.744 49.2544H95.1014V52.0415H116.744V49.2544Z" fill="black"/>
<path d="M116.744 48.8955H95.1014V51.6826H116.744V48.8955Z" fill="#53526B"/>
<path opacity="0.1" d="M107.464 51.1873C107.761 51.1873 108.002 50.9459 108.002 50.648C108.002 50.3501 107.761 50.1086 107.464 50.1086C107.166 50.1086 106.925 50.3501 106.925 50.648C106.925 50.9459 107.166 51.1873 107.464 51.1873Z" fill="black"/>
<path d="M107.464 50.8285C107.761 50.8285 108.002 50.587 108.002 50.2891C108.002 49.9912 107.761 49.7498 107.464 49.7498C107.166 49.7498 106.925 49.9912 106.925 50.2891C106.925 50.587 107.166 50.8285 107.464 50.8285Z" fill="#B65256"/>
<path opacity="0.1" d="M110.547 51.1873C110.845 51.1873 111.086 50.9459 111.086 50.648C111.086 50.3501 110.845 50.1086 110.547 50.1086C110.25 50.1086 110.009 50.3501 110.009 50.648C110.009 50.9459 110.25 51.1873 110.547 51.1873Z" fill="black"/>
<path d="M110.547 50.8285C110.845 50.8285 111.086 50.587 111.086 50.2891C111.086 49.9912 110.845 49.7498 110.547 49.7498C110.25 49.7498 110.009 49.9912 110.009 50.2891C110.009 50.587 110.25 50.8285 110.547 50.8285Z" fill="#FFD77C"/>
<path d="M165.376 114.782H22.0427V175.92H165.376V114.782Z" fill="#65617D"/>
<path opacity="0.1" d="M165.376 114.782H22.0427V116.042H165.376V114.782Z" fill="black"/>
<path d="M167.263 112.444H20.1558V115.68H167.263V112.444Z" fill="#65617D"/>
<path opacity="0.1" d="M167.263 112.444H20.1558V112.984H167.263V112.444Z" fill="black"/>
<path d="M169.986 111.546H17.4303V112.625H169.986V111.546Z" fill="#65617D"/>
<path opacity="0.1" d="M58.054 116.94H26.6209V126.65H58.054V116.94Z" fill="black"/>
<path d="M58.4148 116.581H26.9817V126.292H58.4148V116.581Z" fill="#D1D9EC"/>
<path opacity="0.1" d="M58.054 131.055H26.6209V150.745H58.054V131.055Z" fill="black"/>
<path d="M58.4148 130.694H26.9817V150.384H58.4148V130.694Z" fill="#D1D9EC"/>
<path opacity="0.1" d="M58.054 153.711H26.6209V173.401H58.054V153.711Z" fill="black"/>
<path d="M58.4148 153.352H26.9817V173.042H58.4148V153.352Z" fill="#D1D9EC"/>
<path opacity="0.1" d="M46.8279 120.896H37.847V122.694H46.8279V120.896Z" fill="black"/>
<path d="M46.8279 120.537H37.847V122.336H46.8279V120.537Z" fill="#464A5F"/>
<path opacity="0.1" d="M163.85 116.94H132.417V126.65H163.85V116.94Z" fill="black"/>
<path d="M164.208 116.581H132.775V126.292H164.208V116.581Z" fill="#D1D9EC"/>
<path d="M164.208 129.528H132.775V171.785H164.208V129.528Z" fill="#D1D9EC"/>
<path d="M152.624 120.537H143.643V122.336H152.624V120.537Z" fill="#464A5F"/>
<path opacity="0.1" d="M46.8279 140.405H37.847V142.204H46.8279V140.405Z" fill="black"/>
<path d="M46.8279 140.046H37.847V141.845H46.8279V140.046Z" fill="#464A5F"/>
<path opacity="0.1" d="M46.8279 161.264H37.847V163.063H46.8279V161.264Z" fill="black"/>
<path d="M46.8279 160.905H37.847V162.704H46.8279V160.905Z" fill="#464A5F"/>
<path opacity="0.1" d="M160.301 133.977H137.4V168.051H160.301V133.977Z" fill="black"/>
<path opacity="0.3" d="M159.942 133.618H137.042V167.693H159.942V133.618Z" fill="#FF8822"/>
<path opacity="0.1" d="M167.263 175.317H20.1558V181.43H167.263V175.317Z" fill="black"/>
<path d="M167.263 175.561H20.1558V181.674H167.263V175.561Z" fill="#65617D"/>
<path d="M130.082 119.741H61.1086V164.246H130.082V119.741Z" fill="#464A5F"/>
<path opacity="0.1" d="M61.9155 123.339C61.9155 123.339 100.623 127.295 129.002 123.517V127.024C129.002 127.024 99.9916 130.621 61.9155 126.394V123.339Z" fill="black"/>
<path d="M61.9155 122.978C61.9155 122.978 100.623 126.934 129.002 123.158V126.665C129.002 126.665 99.9916 130.26 61.9155 126.035V122.978Z" fill="#D1D9EC"/>
<path opacity="0.3" d="M122.312 131.519H68.8754V156.964H122.312V131.519Z" fill="#FF8822"/>
<path opacity="0.1" d="M130.082 119.741H61.1086V121.091H130.082V119.741Z" fill="black"/>
<path d="M131.159 110.482H60.0311V120.732H131.159V110.482Z" fill="#464A5F"/>
<path opacity="0.1" d="M65.8672 117.762C67.3051 117.762 68.4708 116.595 68.4708 115.156C68.4708 113.716 67.3051 112.549 65.8672 112.549C64.4293 112.549 63.2636 113.716 63.2636 115.156C63.2636 116.595 64.4293 117.762 65.8672 117.762Z" fill="black"/>
<path d="M65.8672 117.403C67.3051 117.403 68.4708 116.236 68.4708 114.797C68.4708 113.357 67.3051 112.19 65.8672 112.19C64.4293 112.19 63.2636 113.357 63.2636 114.797C63.2636 116.236 64.4293 117.403 65.8672 117.403Z" fill="#D1D9EC"/>
<path opacity="0.1" d="M72.2445 117.762C73.6824 117.762 74.8481 116.595 74.8481 115.156C74.8481 113.716 73.6824 112.549 72.2445 112.549C70.8066 112.549 69.6409 113.716 69.6409 115.156C69.6409 116.595 70.8066 117.762 72.2445 117.762Z" fill="black"/>
<path d="M72.2445 117.403C73.6824 117.403 74.8481 116.236 74.8481 114.797C74.8481 113.357 73.6824 112.19 72.2445 112.19C70.8066 112.19 69.6409 113.357 69.6409 114.797C69.6409 116.236 70.8066 117.403 72.2445 117.403Z" fill="#D1D9EC"/>
<path opacity="0.1" d="M119.124 117.762C120.562 117.762 121.727 116.595 121.727 115.156C121.727 113.716 120.562 112.549 119.124 112.549C117.686 112.549 116.52 113.716 116.52 115.156C116.52 116.595 117.686 117.762 119.124 117.762Z" fill="black"/>
<path d="M119.124 117.403C120.562 117.403 121.727 116.236 121.727 114.797C121.727 113.357 120.562 112.19 119.124 112.19C117.686 112.19 116.52 113.357 116.52 114.797C116.52 116.236 117.686 117.403 119.124 117.403Z" fill="#D1D9EC"/>
<path opacity="0.1" d="M125.501 117.762C126.939 117.762 128.104 116.595 128.104 115.156C128.104 113.716 126.939 112.549 125.501 112.549C124.063 112.549 122.897 113.716 122.897 115.156C122.897 116.595 124.063 117.762 125.501 117.762Z" fill="black"/>
<path d="M125.501 117.403C126.939 117.403 128.104 116.236 128.104 114.797C128.104 113.357 126.939 112.19 125.501 112.19C124.063 112.19 122.897 113.357 122.897 114.797C122.897 116.236 124.063 117.403 125.501 117.403Z" fill="#D1D9EC"/>
<path opacity="0.1" d="M105.206 112.278H85.3575V118.482H105.206V112.278Z" fill="black"/>
<path d="M104.936 111.919H85.7158V118.123H104.936V111.919Z" fill="#53526B"/>
<path opacity="0.1" d="M66.5863 111.626H65.8672V117.964H66.5863V111.626Z" fill="black"/>
<path d="M66.2279 111.626H65.5088V117.964H66.2279V111.626Z" fill="#53526B"/>
<path opacity="0.1" d="M126.22 111.626H125.501V117.964H126.22V111.626Z" fill="black"/>
<path d="M125.862 111.626H125.143V117.964H125.862V111.626Z" fill="#53526B"/>
<path opacity="0.1" d="M121.618 113.17L121.11 112.661L116.633 117.143L117.142 117.652L121.618 113.17Z" fill="black"/>
<path d="M121.618 112.81L121.109 112.301L116.632 116.783L117.141 117.292L121.618 112.81Z" fill="#53526B"/>
<path opacity="0.1" d="M75.4088 115.517V114.797H69.0778V115.517H75.4088Z" fill="black"/>
<path d="M75.4112 115.156V114.436H69.0802V115.156H75.4112Z" fill="#53526B"/>
<path opacity="0.1" d="M130.082 163.195H61.1086V164.244H130.082V163.195Z" fill="black"/>
<path d="M131.159 163.556H60.0311V181.867H131.159V163.556Z" fill="#464A5F"/>
<path d="M56.8814 94.7602C56.5377 94.0915 54.7191 89.9499 54.7191 89.9499L51.6742 82.0476C51.6742 82.0476 49.5119 78.7163 49.5119 78.0964C49.5119 77.4765 45.5797 75.0018 45.5797 75.0018C45.5797 75.0018 42.3862 74.05 42.14 73.9548C41.8938 73.8596 38.1103 72.6052 38.1103 72.6052C38.1103 72.6052 36.6208 70.6528 36.4038 71.158L36.3819 71.1214C36.077 70.5516 35.8842 69.9286 35.8139 69.2861C35.8139 69.23 35.7968 69.169 35.7895 69.1104C36.7711 68.4447 37.5757 67.5492 38.1335 66.5018C38.6913 65.4543 38.9854 64.2864 38.9903 63.0994C38.9927 62.7895 38.9756 62.4798 38.9391 62.172C38.9654 62.155 38.9932 62.1403 39.022 62.1281C39.083 62.1012 39.0683 62.0793 39.022 62.0573L39.0683 62.0354C39.1512 61.9987 39.0976 61.9719 39.0171 61.9402C39.1293 61.8914 38.9879 61.8596 38.8757 61.8084C38.8757 61.7767 38.8636 61.7425 38.8562 61.7108C38.8828 61.6488 38.8985 61.5828 38.9026 61.5155L38.9318 61.5302C38.961 61.4074 38.961 61.2795 38.9318 61.1568C38.9259 61.1819 38.9177 61.2064 38.9074 61.23C38.9027 61.1123 38.8762 60.9964 38.8294 60.8883C38.7724 60.8039 38.7024 60.729 38.6222 60.6662L38.6027 60.6516L38.8124 58.5161C41.884 58.3697 42.4228 53.147 41.7231 52.8468C41.0235 52.5466 41.7231 51.9243 41.7231 50.665C41.7231 49.4057 39.4047 48 39.4047 48C39.4047 48 38.4296 48.4881 36.9255 46.0622C35.4214 43.6363 29.8559 43.2507 29.4853 43.8804C29.1148 44.51 26.6282 45.3447 23.3908 46.255C20.1534 47.1653 20.7506 51.0042 21.2894 51.8291C21.7338 52.5099 21.9942 53.2945 22.0451 54.1061C22.0451 54.5942 23.069 56.6247 23.069 56.6247C22.7448 57.33 23.5565 61.1934 23.8003 62.2916C23.8003 62.3258 23.8003 62.3599 23.8003 62.3941C23.7889 62.4115 23.7783 62.4294 23.7686 62.4478C23.7162 62.5622 23.6992 62.6897 23.7199 62.8139C23.7014 62.9489 23.7199 63.0864 23.7735 63.2117C23.7925 64.246 24.0318 65.2643 24.4753 66.1986C24.9188 67.1329 25.5564 67.9617 26.3454 68.6296C26.3454 68.6955 26.3454 68.7614 26.3576 68.8297C26.4015 69.7278 26.4283 70.7821 26.382 71.8023C26.382 71.8535 26.382 71.9048 26.382 71.956C26.2037 71.9928 26.0365 72.0706 25.8935 72.1833C25.7504 72.296 25.6356 72.4404 25.558 72.6052C25.2533 73.1934 23.4859 74.0964 23.4859 74.0964C23.4859 74.0964 20.3898 74.2404 20.0949 74.8114C19.7999 75.3825 15.3289 77.2861 15.3289 77.2861C15.3289 77.2861 12.9691 78.6674 13.3129 80.2391C13.4933 81.0592 12.9886 82.3355 12.467 83.3654C11.3728 82.9513 10.2339 82.667 9.07353 82.5186L11.5796 84.9176L11.4967 85.047L10.0706 90.0939C10.0706 90.0939 9.58303 91.856 9.09547 92.2904C8.60791 92.7248 9.53671 96.6223 9.53671 96.6223C9.53671 96.6223 8.99795 99.385 8.56159 100.098C8.12522 100.81 9.24905 102.575 9.24905 102.575L11.5113 107.714L17.4864 109.232L18.5298 109.455C18.5103 109.577 18.4908 109.699 18.4688 109.823C18.1787 111.461 17.8009 112.966 17.3377 113.374C16.209 114.375 16.2578 118.848 16.2578 118.848L16.3065 125.181C16.3065 125.181 16.699 132.991 16.504 133.274C16.3796 133.455 16.6283 133.747 17.2841 134.006C17.267 134.126 17.2475 134.25 17.2304 134.365C17.0452 135.661 16.9623 137.137 17.3865 137.782C17.5707 138.135 17.6716 138.525 17.6814 138.924C17.6814 139.544 18.6151 140.83 18.6151 140.83C18.6151 140.83 17.8838 146.113 19.1027 147.922C20.3216 149.73 21.3625 153.015 20.7726 153.779C20.7726 153.779 19.7414 156.017 20.2338 157.018C20.7263 158.018 20.2338 158.589 19.5927 158.826C18.9515 159.063 19.01 161.023 19.01 161.023L20.1826 170.296C20.1826 170.296 20.8213 172.203 20.2826 172.869C19.7438 173.535 19.7414 176.866 20.5775 178.011C21.4137 179.156 19.3903 181.269 19.3903 181.269C19.3903 181.269 18.1714 183.031 20.1217 183.602C20.1217 183.602 20.5142 183.697 19.7779 184.459C19.0417 185.22 18.893 186.167 19.3855 186.506C19.4881 186.567 19.5948 186.62 19.7048 186.665C19.6853 186.777 19.6658 186.894 19.6414 187.019C19.4537 188.012 19.0978 189.308 18.4518 189.933C17.1982 191.218 16.1165 192.661 15.2339 194.226C14.5586 195.507 14.2587 196.703 15.012 197.267C16.7819 198.599 19.0417 199.026 20.3752 198.504C21.7087 197.982 23.5687 196.361 23.5687 196.361L24.0124 194.504C24.0124 194.504 23.7174 193.362 25.1899 192.932C26.6623 192.503 28.0397 190.98 28.0397 190.98V188.505C28.3975 188.302 28.7427 188.077 29.0733 187.832C29.0733 187.832 29.7608 185.403 29.0733 184.595C28.3859 183.788 28.1396 183.5 29.0246 182.975C29.9095 182.45 30.0289 181.311 29.378 180.31C28.7271 179.309 27.6959 177.835 28.5809 175.739C29.4658 173.642 29.7998 167.217 29.7998 167.217C29.7998 167.217 29.3878 162.838 29.7998 161.847C30.2118 160.857 29.3268 158.848 29.3268 158.848C29.3268 158.848 29.6096 156.376 30.163 155.221C30.7164 154.067 31.1381 148.032 31.1381 148.032C31.1381 148.032 32.1133 145.462 32.1133 143.795C32.1133 142.128 30.5921 138.131 32.8446 137.081C32.8446 137.081 33.8197 137.94 33.4346 141.367C33.4346 141.367 34.5633 145.367 34.5633 146.604C34.5633 147.841 35.3994 152.317 35.3994 152.317C35.3994 152.317 35.4969 153.745 35.8407 154.27C36.1844 154.794 35.8407 156.222 35.8407 156.222C35.8407 156.222 37.1181 157.413 36.7744 158.174C36.4306 158.936 36.8329 160.654 36.8329 160.654L36.5281 171.314C36.5281 171.314 35.6457 175.885 37.708 178.636C37.708 178.636 36.9767 182.682 36.5281 182.968C36.0796 183.253 38.1517 185.73 38.1517 185.73C38.1517 185.73 37.5788 187.334 38.7417 187.412V190.062C39.1443 190.776 39.6975 191.393 40.3628 191.871C41.4428 192.632 41.0015 195.251 41.0015 195.251C41.0015 195.251 42.3764 198.584 46.0136 197.869C49.6509 197.154 50.1409 196.822 49.9434 195.631C49.8727 195.197 49.7167 194.411 49.49 193.542C49.0999 192.015 48.5002 190.17 47.7835 189.259C46.6548 187.824 45.7211 184.825 45.7211 184.825C45.7211 184.825 45.2774 183.824 45.7211 183.492C46.1648 183.16 45.9649 182.541 45.9649 182.541C45.9649 182.541 46.3939 181.303 46.0063 180.542C45.6187 179.78 46.7499 178.209 46.7499 178.209L46.4061 170.887L46.7499 160.222C46.7499 160.222 45.2262 158.46 45.8649 157.413C46.5037 156.366 45.1336 154.89 45.1336 154.89C45.1336 154.89 44.9849 154.843 45.3774 153.652C45.6123 152.95 45.5767 152.186 45.2774 151.509C45.2774 151.509 44.4437 148.559 45.9161 146.321C45.9161 146.321 46.5548 143.368 46.7523 141.845C46.8888 140.786 47.7274 136.832 48.2418 134.523L48.3247 134.148C49.056 134.187 49.6021 134.233 49.6021 134.233C49.6021 134.233 48.4734 126.377 49.6021 124.759C50.7308 123.141 48.7172 110.763 48.7172 110.763C48.7172 110.763 48.2296 108.6 47.9395 106.392C47.9225 106.267 47.9078 106.148 47.8908 106.016C48.8029 105.941 49.7187 105.921 50.6333 105.955C52.9931 106.096 55.3017 105.193 55.3505 104.288C55.3992 103.383 56.6791 99.8121 56.8741 99.0042C57.0691 98.1964 57.2227 95.4264 56.8814 94.7602Z" fill="url(#paint0_linear)"/>
<path d="M28.2128 186.599V191.007C28.2128 191.007 26.8866 192.525 25.4654 192.959C24.0441 193.394 24.3293 194.524 24.3293 194.524L23.9052 196.371C23.9052 196.371 22.1036 197.982 20.8262 198.504C19.5488 199.026 17.3694 198.599 15.6654 197.272C14.934 196.713 15.229 195.519 15.8799 194.245C16.7262 192.694 17.7684 191.258 18.9808 189.972C19.6024 189.35 19.9559 188.059 20.1266 187.07C20.2631 186.338 20.3045 185.755 20.3045 185.755L28.2128 186.599Z" fill="#4C495A"/>
<path opacity="0.1" d="M28.2128 189.889V191.007C28.2128 191.007 26.8866 192.525 25.4654 192.959C24.0441 193.393 24.3293 194.523 24.3293 194.523L23.9052 196.371C23.9052 196.371 22.1036 197.982 20.8262 198.504C19.5488 199.026 17.3694 198.599 15.6654 197.271C14.934 196.713 15.229 195.519 15.8799 194.245C15.8482 195.585 16.2456 197.088 18.1739 197.035C20.2581 196.964 22.2653 196.229 23.9027 194.936C23.9027 194.936 23.854 191.81 26.0334 191.097C26.8298 190.836 27.5695 190.426 28.2128 189.889Z" fill="black"/>
<path d="M45.5382 197.882C42.0351 198.592 40.709 195.273 40.709 195.273C40.709 195.273 41.1356 192.666 40.0946 191.907C39.4503 191.427 38.9172 190.812 38.532 190.106V185.747L42.7933 182.714L45.0994 184.757L45.2555 184.893C45.2555 184.893 46.155 187.88 47.2447 189.308C47.9346 190.214 48.5124 192.051 48.8902 193.574C49.1072 194.448 49.2583 195.222 49.3266 195.653C49.5167 196.837 49.0438 197.169 45.5382 197.882Z" fill="#4C495A"/>
<path opacity="0.1" d="M45.5382 197.882C42.0351 198.592 40.709 195.273 40.709 195.273C40.709 195.273 41.1356 192.666 40.0946 191.907C39.4503 191.426 38.9172 190.812 38.532 190.106V188.417C39.2073 189.132 40.4822 190.516 40.7577 191.102C41.1356 191.907 41.1843 194.848 42.9347 195.368C44.685 195.888 48.0955 196.364 48.3807 195.036C48.4978 194.531 48.6686 194.04 48.8902 193.572C49.1072 194.445 49.2583 195.219 49.3266 195.651C49.5167 196.837 49.0438 197.169 45.5382 197.882Z" fill="black"/>
<path opacity="0.1" d="M20.3021 185.747L28.2128 186.599V188.93C27.3205 189.459 26.0431 190.021 25.324 189.442C24.2635 188.593 21.1114 187.514 20.1266 187.063C20.2606 186.321 20.3021 185.747 20.3021 185.747Z" fill="black"/>
<path opacity="0.1" d="M45.2555 185.272C44.1658 184.893 42.2253 186.553 39.668 187.595C39.312 187.759 38.924 187.843 38.532 187.839V185.738L42.7933 182.704L45.0994 184.747C45.135 184.926 45.1872 185.102 45.2555 185.272Z" fill="black"/>
<path d="M48.0492 133.086C48.0492 133.086 47.8981 133.781 47.686 134.794C47.1984 137.098 46.3793 141.037 46.2501 142.091C46.06 143.607 45.4456 146.545 45.4456 146.545C44.0244 148.774 44.8289 151.712 44.8289 151.712C45.1164 152.388 45.1502 153.146 44.9239 153.845C44.5461 155.031 44.6802 155.065 44.6802 155.065C44.6802 155.065 46.0063 156.529 45.3896 157.579C44.7728 158.628 46.2428 160.376 46.2428 160.376L45.9113 170.992L46.2526 178.304C46.2526 178.304 45.1629 179.868 45.5358 180.627C45.9088 181.386 45.4944 182.619 45.4944 182.619C45.4944 182.619 45.6845 183.234 45.2506 183.565C44.8167 183.897 45.2506 184.893 45.2506 184.893C44.1609 184.515 42.2204 186.172 39.6632 187.217C37.1059 188.261 37.9567 185.794 37.9567 185.794C37.9567 185.794 35.9674 183.329 36.3941 183.043C36.8207 182.758 37.5301 178.731 37.5301 178.731C35.5408 175.983 36.3941 171.431 36.3941 171.431L36.6866 160.817C36.6866 160.817 36.299 159.109 36.6305 158.35C36.9621 157.591 35.731 156.398 35.731 156.398C35.731 156.398 36.0625 154.977 35.731 154.445C35.3994 153.913 35.3043 152.493 35.3043 152.493C35.3043 152.493 34.4999 148.037 34.4999 146.804C34.4999 145.572 33.4102 141.591 33.4102 141.591C33.7905 138.174 32.8422 137.325 32.8422 137.325C30.6652 138.367 32.1328 142.348 32.1328 144.007C32.1328 145.667 31.1869 148.227 31.1869 148.227C31.1869 148.227 30.7603 154.245 30.2386 155.382C29.7169 156.52 29.4317 159.011 29.4317 159.011C29.4317 159.011 30.2849 161.003 29.8851 161.999C29.4853 162.994 29.8851 167.368 29.8851 167.368C29.8851 167.368 29.5731 173.767 28.7223 175.851C27.8715 177.935 28.8637 179.407 29.4902 180.403C30.1167 181.398 29.9997 182.536 29.1464 183.055C28.2932 183.575 28.5321 183.863 29.1952 184.669C29.8583 185.474 29.1952 187.893 29.1952 187.893C29.1952 187.893 26.4965 190.026 25.3118 189.076C24.127 188.127 20.3411 186.897 19.8681 186.565C19.3952 186.233 19.5366 185.284 20.246 184.527C20.9554 183.77 20.5775 183.673 20.5775 183.673C18.6834 183.104 19.8681 181.35 19.8681 181.35C19.8681 181.35 21.8184 179.265 21.0042 178.128C20.1899 176.991 20.1997 173.672 20.7189 173.003C21.2382 172.334 20.6239 170.443 20.6239 170.443L19.4952 161.201C19.4952 161.201 19.4415 159.248 20.0559 159.019C20.6702 158.789 21.1456 158.213 20.6726 157.218C20.1997 156.222 21.1919 153.996 21.1919 153.996C21.7623 153.237 20.7677 149.967 19.5829 148.166C18.3981 146.365 19.11 141.103 19.11 141.103C19.11 141.103 18.2104 139.822 18.2104 139.207C18.2013 138.811 18.1038 138.422 17.9252 138.069C17.5181 137.418 17.5961 135.949 17.7741 134.653C17.9471 133.406 18.2104 132.329 18.2104 132.329L48.0492 133.086Z" fill="#5F5D7E"/>
<path d="M38.7685 79.3801L29.4317 81.562C29.4317 81.562 24.8486 77.6742 25.9846 75.5949C26.3747 74.8798 26.5478 73.6571 26.6063 72.3637C26.6526 71.3533 26.6258 70.2966 26.5843 69.4033C26.5161 68.1123 26.4112 67.1581 26.4112 67.1581C26.4112 67.1581 35.9748 61.7548 35.6432 67.1581C35.5756 68.0585 35.5968 68.9634 35.7066 69.8597C35.7747 70.4989 35.9616 71.1197 36.2575 71.6901C36.7695 72.6004 37.4009 72.615 37.4009 72.615L38.7685 79.3801Z" fill="#FDC2CC"/>
<path opacity="0.1" d="M35.7066 69.8524C34.3587 70.8206 32.7227 71.3026 31.0658 71.2197C29.4089 71.1368 27.8291 70.4939 26.5843 69.396C26.5161 68.105 26.4112 67.1507 26.4112 67.1507C26.4112 67.1507 35.9748 61.7474 35.6432 67.1507C35.5756 68.0512 35.5968 68.9561 35.7066 69.8524Z" fill="black"/>
<path d="M31.4307 71.0386C35.4832 71.0386 38.7685 67.7497 38.7685 63.6926C38.7685 59.6356 35.4832 56.3467 31.4307 56.3467C27.3781 56.3467 24.0929 59.6356 24.0929 63.6926C24.0929 67.7497 27.3781 71.0386 31.4307 71.0386Z" fill="#FDC2CC"/>
<path opacity="0.1" d="M38.7685 79.38L29.4317 81.5618C29.4317 81.5618 24.8486 77.6741 25.9846 75.5948C26.3747 74.8797 26.5478 73.657 26.6063 72.3635C26.8139 73.489 27.4197 74.5019 28.3127 75.2165C30.4434 76.6393 30.1118 78.3891 30.1118 78.3891L33.9465 78.2476C33.7027 76.6832 35.1313 75.8315 35.6042 75.6411C36.0772 75.4508 35.848 74.599 35.848 74.599L36.2575 71.6899C36.7695 72.6003 37.4009 72.6149 37.4009 72.6149L38.7685 79.38Z" fill="black"/>
<path opacity="0.1" d="M48.0492 133.086C48.0492 133.086 47.8981 133.782 47.686 134.795C46.6548 134.741 45.2921 134.699 44.6875 134.838C43.6465 135.082 39.4779 135.17 39.4779 135.17L29.1562 135.536V135.219C27.9693 135.231 26.7841 135.313 25.6067 135.463C23.854 135.707 21.109 135.368 19.3562 135.082C18.8168 135.005 18.2888 134.863 17.7838 134.658C17.9569 133.411 18.2202 132.334 18.2202 132.334L48.0492 133.086Z" fill="black"/>
<path d="M47.2448 102.985C47.0936 103.871 47.2033 105.34 47.3935 106.787C47.6787 108.983 48.1443 111.138 48.1443 111.138C48.1443 111.138 50.0946 123.463 48.9951 125.074C47.8957 126.685 48.9951 134.506 48.9951 134.506C48.9951 134.506 45.7284 134.223 44.6875 134.46C43.6466 134.697 39.4779 134.792 39.4779 134.792L29.1562 135.158V134.838C27.9693 134.85 26.7841 134.932 25.6068 135.082C23.854 135.326 21.109 134.987 19.3562 134.704C17.6034 134.421 16.894 133.85 17.0842 133.567C17.2743 133.284 16.894 125.513 16.894 125.513L16.8477 119.209C16.8477 119.209 16.799 114.753 17.8887 113.757C18.3323 113.352 18.698 111.854 18.9784 110.221C19.3782 107.861 19.5927 105.225 19.5927 105.225L12.3963 85.945L12.2549 85.5643C12.2549 85.5643 14.3368 82.3404 14.0052 80.776C13.6737 79.2117 15.9555 77.8474 15.9555 77.8474C15.9555 77.8474 20.2631 75.9511 20.5483 75.3825C20.8335 74.8138 23.815 74.6723 23.815 74.6723C23.815 74.6723 25.5214 73.7718 25.8115 73.1885C25.8834 73.0253 25.9929 72.8816 26.131 72.7692C26.2692 72.6568 26.4321 72.5788 26.6063 72.5417C26.8069 73.68 27.4132 74.7067 28.3127 75.4313C30.4434 76.8517 30.1118 78.604 30.1118 78.604L33.9465 78.4624C33.7027 76.898 35.1313 76.0439 35.6042 75.8559C36.0772 75.668 35.848 74.8114 35.848 74.8114L36.2917 71.7437C36.4965 71.2336 37.9299 73.186 37.9299 73.186C37.9299 73.186 41.5866 74.4331 41.8133 74.5283C42.04 74.6235 45.1287 75.5704 45.1287 75.5704C45.1287 75.5704 48.9147 78.0353 48.9147 78.6503C48.9147 79.2653 50.999 82.5869 50.999 82.5869C50.999 82.5869 50.9746 82.7187 50.9283 82.9603C50.4334 85.5448 47.5909 100.947 47.2448 102.985Z" fill="#FF8822"/>
<path d="M32.0938 95.3068C32.0938 95.3068 23.9027 93.1274 23.0958 92.6052C22.2889 92.0829 17.5571 95.1165 23.3396 99.2409C23.3396 99.2409 30.4093 100.705 32.2937 99.2409C34.1781 97.7766 32.0938 95.3068 32.0938 95.3068Z" fill="#FDC2CC"/>
<path opacity="0.1" d="M49.7996 82.3184L50.7942 82.3672L53.7196 90.2354C53.7196 90.2354 55.4724 94.3599 55.8039 95.0237C56.1354 95.6875 55.9941 98.4404 55.8039 99.2409C55.6138 100.041 54.3827 103.602 54.3412 104.503C54.2998 105.403 52.0692 106.304 49.7947 106.162C47.5202 106.021 42.2204 106.731 42.2204 106.731C42.2204 106.731 36.5574 106.138 33.0811 107.914C33.0811 107.914 30.8578 103.317 31.0943 94.7357C31.0943 94.7357 35.024 94.4917 36.0186 94.8773C37.0133 95.2629 41.8426 96.3416 42.4569 95.7778C43.0712 95.214 45.8698 96.8223 45.8698 96.8223C46.0124 96.5098 46.0862 96.1702 46.0862 95.8266C46.0862 95.483 46.0124 95.1434 45.8698 94.8309C45.3969 93.6936 44.5924 90.1378 45.626 89.0005C46.6597 87.8632 49.7996 82.3184 49.7996 82.3184Z" fill="black"/>
<path opacity="0.1" d="M47.3934 106.787C45.0434 106.946 42.4154 107.299 42.4154 107.299C42.4154 107.299 36.7524 106.706 33.2761 108.483C33.2761 108.483 31.0503 103.885 31.2868 95.3043C31.2868 95.3043 35.2166 95.0602 36.2112 95.4458C37.2058 95.8314 42.0351 96.9101 42.6519 96.3464C43.2687 95.7826 46.0648 97.3909 46.0648 97.3909C46.2068 97.0782 46.2803 96.7387 46.2803 96.3952C46.2803 96.0517 46.2068 95.7122 46.0648 95.3995C45.5919 94.2622 44.7874 90.7064 45.821 89.5691C46.8547 88.4318 49.9873 82.8845 49.9873 82.8845L50.9112 82.9284C50.4236 85.5422 47.5885 100.944 47.2423 102.982C47.0936 103.87 47.2033 105.34 47.3934 106.787Z" fill="black"/>
<path d="M49.9897 82.5088L50.9844 82.5576L53.9097 90.4258C53.9097 90.4258 55.6625 94.5478 55.9941 95.2116C56.3256 95.8755 56.1818 98.6284 55.9941 99.4313C55.8064 100.234 54.5728 103.792 54.5314 104.693C54.4899 105.594 52.2569 106.494 49.9849 106.35C47.7128 106.206 42.4106 106.921 42.4106 106.921C42.4106 106.921 36.7451 106.328 33.2712 108.105C33.2712 108.105 31.0455 103.507 31.282 94.9261C31.282 94.9261 35.2117 94.6821 36.2064 95.0677C37.201 95.4533 42.0303 96.532 42.6471 95.9682C43.2638 95.4044 46.06 97.0103 46.06 97.0103C46.2021 96.6981 46.2756 96.3589 46.2756 96.0158C46.2756 95.6727 46.2021 95.3335 46.06 95.0213C45.5871 93.8816 44.7826 90.3282 45.8162 89.1909C46.8498 88.0536 49.9897 82.5088 49.9897 82.5088Z" fill="#FF8822"/>
<path d="M39.9985 99.9187L41.1799 100.651L47.7644 90.0071L46.583 89.2747L39.9985 99.9187Z" fill="#DFE6F5"/>
<path d="M51.1294 88.5757C52.2933 86.6942 52.1689 84.5067 50.8514 83.6898C49.5339 82.873 47.5223 83.7362 46.3584 85.6178C45.1944 87.4993 45.3188 89.6868 46.6363 90.5036C47.9538 91.3205 49.9654 90.4573 51.1294 88.5757Z" fill="#DFE6F5"/>
<path opacity="0.1" d="M50.4558 88.1578C51.2909 86.808 51.2013 85.2385 50.2559 84.6523C49.3104 84.0661 47.867 84.6852 47.032 86.0351C46.1969 87.385 46.2864 88.9544 47.2319 89.5406C48.1774 90.1268 49.6208 89.5077 50.4558 88.1578Z" fill="black"/>
<path d="M36.633 105.36L37.8143 106.093L41.9114 99.4699L40.73 98.7374L36.633 105.36Z" fill="#53526B"/>
<path d="M29.6754 105.83L32.5643 105.025C32.5643 105.025 46.8157 105.403 42.0327 99.5265C42.0327 99.5265 39.5242 97.108 34.2683 99.0506C29.0124 100.993 27.5448 101.232 27.5448 101.232L29.6754 105.83Z" fill="#FDC2CC"/>
<path opacity="0.1" d="M27.5473 81.0396C27.861 81.0396 28.1153 80.785 28.1153 80.471C28.1153 80.1569 27.861 79.9023 27.5473 79.9023C27.2336 79.9023 26.9792 80.1569 26.9792 80.471C26.9792 80.785 27.2336 81.0396 27.5473 81.0396Z" fill="black"/>
<path opacity="0.1" d="M37.3009 80.7076C37.6146 80.7076 37.8689 80.453 37.8689 80.1389C37.8689 79.8249 37.6146 79.5703 37.3009 79.5703C36.9872 79.5703 36.7329 79.8249 36.7329 80.1389C36.7329 80.453 36.9872 80.7076 37.3009 80.7076Z" fill="black"/>
<path d="M27.5473 80.8492C27.861 80.8492 28.1153 80.5946 28.1153 80.2806C28.1153 79.9665 27.861 79.7119 27.5473 79.7119C27.2336 79.7119 26.9792 79.9665 26.9792 80.2806C26.9792 80.5946 27.2336 80.8492 27.5473 80.8492Z" fill="white"/>
<path opacity="0.1" d="M28.3541 88.9078C28.6678 88.9078 28.9222 88.6532 28.9222 88.3391C28.9222 88.0251 28.6678 87.7705 28.3541 87.7705C28.0404 87.7705 27.7861 88.0251 27.7861 88.3391C27.7861 88.6532 28.0404 88.9078 28.3541 88.9078Z" fill="black"/>
<path opacity="0.1" d="M37.5861 88.3392C37.8998 88.3392 38.1541 88.0846 38.1541 87.7705C38.1541 87.4565 37.8998 87.2019 37.5861 87.2019C37.2724 87.2019 37.0181 87.4565 37.0181 87.7705C37.0181 88.0846 37.2724 88.3392 37.5861 88.3392Z" fill="black"/>
<path d="M28.3541 88.7176C28.6678 88.7176 28.9222 88.463 28.9222 88.149C28.9222 87.8349 28.6678 87.5803 28.3541 87.5803C28.0404 87.5803 27.7861 87.8349 27.7861 88.149C27.7861 88.463 28.0404 88.7176 28.3541 88.7176Z" fill="white"/>
<path opacity="0.1" d="M37.3497 115.788C37.6634 115.788 37.9177 115.533 37.9177 115.219C37.9177 114.905 37.6634 114.65 37.3497 114.65C37.036 114.65 36.7817 114.905 36.7817 115.219C36.7817 115.533 37.036 115.788 37.3497 115.788Z" fill="black"/>
<path opacity="0.1" d="M29.8705 115.788C30.1842 115.788 30.4385 115.533 30.4385 115.219C30.4385 114.905 30.1842 114.65 29.8705 114.65C29.5568 114.65 29.3025 114.905 29.3025 115.219C29.3025 115.533 29.5568 115.788 29.8705 115.788Z" fill="black"/>
<path d="M37.3497 115.597C37.6634 115.597 37.9177 115.343 37.9177 115.029C37.9177 114.715 37.6634 114.46 37.3497 114.46C37.036 114.46 36.7817 114.715 36.7817 115.029C36.7817 115.343 37.036 115.597 37.3497 115.597Z" fill="white"/>
<path opacity="0.1" d="M30.4385 125.311C30.7522 125.311 31.0065 125.056 31.0065 124.742C31.0065 124.428 30.7522 124.173 30.4385 124.173C30.1248 124.173 29.8705 124.428 29.8705 124.742C29.8705 125.056 30.1248 125.311 30.4385 125.311Z" fill="black"/>
<path opacity="0.1" d="M37.5861 124.742C37.8998 124.742 38.1541 124.487 38.1541 124.173C38.1541 123.859 37.8998 123.605 37.5861 123.605C37.2724 123.605 37.0181 123.859 37.0181 124.173C37.0181 124.487 37.2724 124.742 37.5861 124.742Z" fill="black"/>
<path d="M30.4385 125.123C30.7522 125.123 31.0065 124.868 31.0065 124.554C31.0065 124.24 30.7522 123.985 30.4385 123.985C30.1248 123.985 29.8705 124.24 29.8705 124.554C29.8705 124.868 30.1248 125.123 30.4385 125.123Z" fill="white"/>
<path d="M29.8705 115.597C30.1842 115.597 30.4385 115.343 30.4385 115.029C30.4385 114.715 30.1842 114.46 29.8705 114.46C29.5568 114.46 29.3025 114.715 29.3025 115.029C29.3025 115.343 29.5568 115.597 29.8705 115.597Z" fill="white"/>
<path d="M37.5861 124.552C37.8998 124.552 38.1541 124.297 38.1541 123.983C38.1541 123.669 37.8998 123.414 37.5861 123.414C37.2724 123.414 37.0181 123.669 37.0181 123.983C37.0181 124.297 37.2724 124.552 37.5861 124.552Z" fill="white"/>
<path d="M37.3009 80.5174C37.6146 80.5174 37.8689 80.2628 37.8689 79.9488C37.8689 79.6347 37.6146 79.3801 37.3009 79.3801C36.9872 79.3801 36.7329 79.6347 36.7329 79.9488C36.7329 80.2628 36.9872 80.5174 37.3009 80.5174Z" fill="white"/>
<path d="M37.5861 88.1488C37.8998 88.1488 38.1541 87.8942 38.1541 87.5801C38.1541 87.2661 37.8998 87.0115 37.5861 87.0115C37.2724 87.0115 37.0181 87.2661 37.0181 87.5801C37.0181 87.8942 37.2724 88.1488 37.5861 88.1488Z" fill="white"/>
<path opacity="0.1" d="M38.437 107.536C38.437 107.536 38.5322 120.525 38.818 122.846C38.818 122.846 38.9206 108.149 38.437 107.536Z" fill="black"/>
<path opacity="0.1" d="M40.8528 113.557C40.6578 113.557 44.7338 128.771 44.924 129.862C45.1141 130.953 41.9889 113.557 40.8528 113.557Z" fill="black"/>
<path opacity="0.1" d="M44.0707 111.092C44.0707 111.234 46.3452 119.339 47.4837 119.766C48.6221 120.193 44.0707 111.092 44.0707 111.092Z" fill="black"/>
<path opacity="0.1" d="M53.0199 95.3069C53.0199 95.3069 48.1906 95.5217 48.0492 96.2197C47.9078 96.9177 53.0199 95.3069 53.0199 95.3069Z" fill="black"/>
<path opacity="0.1" d="M44.4973 157.108C44.4973 157.108 41.0405 158.572 41.572 158.67C42.1034 158.767 44.4973 157.108 44.4973 157.108Z" fill="black"/>
<path opacity="0.1" d="M37.3472 154.936C37.2131 154.633 39.668 156.156 39.668 156.359C39.668 156.561 37.5374 155.363 37.3472 154.936Z" fill="black"/>
<path opacity="0.1" d="M40.5676 159.912C40.5676 159.912 43.2663 159.778 43.4564 160.818C43.6466 161.857 40.5676 159.912 40.5676 159.912Z" fill="black"/>
<path opacity="0.1" d="M21.1553 159.907C21.1553 159.907 24.0807 159.333 24.3245 159.907C24.5682 160.481 21.1553 159.907 21.1553 159.907Z" fill="black"/>
<path opacity="0.1" d="M22.245 177.784C22.245 177.784 22.4376 180.2 21.7258 180.769C21.0139 181.337 22.245 177.784 22.245 177.784Z" fill="black"/>
<path opacity="0.1" d="M21.8867 182.902C22.813 182.997 27.6886 182.142 27.6423 182.902C27.596 183.662 21.8867 182.902 21.8867 182.902Z" fill="black"/>
<path opacity="0.1" d="M44.2608 179.963C44.2608 179.963 42.5983 179.719 43.0029 180.831L44.2608 179.963Z" fill="black"/>
<path opacity="0.1" d="M13.3421 85.3568H12.4426L11.0701 90.3818C11.0701 90.3818 10.5971 92.1365 10.1242 92.5636C9.65128 92.9907 10.5484 96.876 10.5484 96.876C10.5484 96.876 10.0291 99.6264 9.60252 100.337C9.1759 101.047 10.2656 102.802 10.2656 102.802L12.4426 107.927L18.2202 109.445C18.2202 109.445 28.4005 111.673 28.8734 112.005C29.3463 112.337 29.773 111.861 30.0923 108.781C30.4117 105.701 31.3234 99.7265 32.0426 99.4434C32.0426 99.4434 26.36 100.058 25.8871 99.9632C25.4142 99.868 23.1421 100.012 23.1421 100.012C23.1421 100.012 20.1582 99.8217 19.6853 100.107C19.2124 100.393 20.2996 98.7308 20.2996 98.7308C20.499 97.97 20.499 97.1706 20.2996 96.4098C19.9705 95.1188 19.7828 80.6124 13.3421 85.3568Z" fill="black"/>
<path opacity="0.1" d="M31.8549 100C31.1455 100.283 30.2459 106.258 29.9046 109.337C29.5633 112.417 29.1465 112.893 28.6857 112.561C28.3005 112.29 21.5161 110.77 18.9808 110.209C19.3806 107.849 19.5951 105.213 19.5951 105.213L12.3987 85.9329H13.1569C19.5951 81.191 19.7853 95.695 20.1168 96.9763C20.3162 97.737 20.3162 98.5364 20.1168 99.2972C20.1168 99.2972 19.0271 100.957 19.5 100.674C19.973 100.391 22.9569 100.578 22.9569 100.578C22.9569 100.578 25.2289 100.437 25.7043 100.532C26.1797 100.627 31.8549 100 31.8549 100Z" fill="black"/>
<path d="M13.1544 85.5424H12.2549L10.88 90.5674C10.88 90.5674 10.407 92.3197 9.93409 92.7468C9.46115 93.1738 10.3607 97.0713 10.3607 97.0713C10.3607 97.0713 9.83901 99.8194 9.4124 100.532C8.98578 101.245 10.0755 102.994 10.0755 102.994L12.2549 108.12L18.03 109.638C18.03 109.638 28.2103 111.863 28.6833 112.195C29.1562 112.527 29.5828 112.054 29.9022 108.974C30.2215 105.894 31.1211 99.9194 31.8524 99.6363C31.8524 99.6363 26.1723 100.251 25.6994 100.156C25.2265 100.061 22.952 100.205 22.952 100.205C22.952 100.205 19.9681 100.015 19.4952 100.298C19.0222 100.581 20.1119 98.9212 20.1119 98.9212C20.3114 98.1605 20.3114 97.3611 20.1119 96.6003C19.7828 95.3069 19.5927 80.8029 13.1544 85.5424Z" fill="#FF8822"/>
<path opacity="0.1" d="M16.2309 102.702C16.2309 102.702 13.6273 107.632 13.1544 107.063C12.6815 106.494 16.2309 102.702 16.2309 102.702Z" fill="black"/>
<path opacity="0.1" d="M13.5323 99.895C13.5323 99.895 11.1188 101.896 12.2549 102.416C13.3909 102.936 13.5323 99.895 13.5323 99.895Z" fill="black"/>
<path opacity="0.1" d="M15.8043 97.4399C15.9945 97.4888 19.3099 98.1477 19.3562 98.4332C19.4025 98.7188 15.8043 97.4399 15.8043 97.4399Z" fill="black"/>
<path opacity="0.1" d="M38.7904 62.7162C38.6874 62.7523 38.5995 62.8219 38.5407 62.914C38.4819 63.006 38.4557 63.1151 38.4662 63.2238C38.2736 63.3947 38.0006 63.1946 37.8445 62.9798C37.6885 62.765 37.5057 62.4917 37.2643 62.5259C37.15 62.5624 37.039 62.6089 36.9328 62.665C36.5549 62.7845 36.2356 62.3404 36.0235 61.9499L34.9143 59.8974C34.183 60.3294 33.298 59.8779 32.5643 59.4313C31.8305 58.9847 30.9553 58.5332 30.2118 58.9627C29.1221 59.5924 29.0831 61.6912 27.9544 62.2086C27.5911 62.377 27.1694 62.3404 26.8305 62.5698C26.4917 62.7992 26.3186 63.236 26.1674 63.6534C26.1134 63.8923 25.9834 64.1073 25.7969 64.2659C25.679 64.3283 25.5475 64.3602 25.4142 64.3587C25.0826 64.4142 24.7419 64.3656 24.439 64.2196C24.2805 64.1193 24.1605 63.9682 24.0985 63.791C24.0366 63.6138 24.0363 63.4208 24.0977 63.2434C24.1068 63.2239 24.1174 63.2051 24.1294 63.1872C24.2504 63.0404 24.3588 62.8836 24.4537 62.7187C24.5682 62.4185 24.4049 62.067 24.4537 61.7424C24.5122 61.186 25.1021 60.8907 25.2021 60.344C25.2435 60.1293 25.2021 59.8999 25.2386 59.6851C25.2453 59.6562 25.2534 59.6277 25.263 59.5997L24.9168 59.8437C25.3045 59.3922 25.4995 58.7626 25.7823 58.211C26.098 57.6092 26.5323 57.0776 27.059 56.6485C27.5857 56.2194 28.1938 55.9016 28.8466 55.7144C30.0826 55.3556 31.3868 55.4532 32.6325 55.7583C33.818 56.0539 34.9539 56.5218 36.004 57.147C36.3764 57.3501 36.7072 57.6217 36.9791 57.9475C37.2078 58.2851 37.4022 58.6449 37.5593 59.0213C37.9274 59.7827 38.9318 60.4856 38.1322 60.5954C37.4667 60.6833 38.0737 61.1494 38.4223 61.4642C38.5007 61.5267 38.5683 61.6018 38.6222 61.6863C38.6804 61.8059 38.7072 61.9384 38.7 62.0712C38.6927 62.204 38.6517 62.3328 38.5808 62.4453C38.4296 62.5991 38.9757 62.6332 38.7904 62.7162Z" fill="black"/>
<path d="M38.7904 62.5282C38.6875 62.5643 38.5995 62.6339 38.5408 62.726C38.482 62.818 38.4557 62.9271 38.4662 63.0358C38.2736 63.2067 38.0006 63.0041 37.8446 62.7918C37.6886 62.5795 37.5057 62.3037 37.2644 62.3379C37.15 62.3744 37.039 62.4209 36.9328 62.477C36.555 62.599 36.2356 62.1524 36.0235 61.7619C35.653 61.0786 35.2922 60.3928 34.9143 59.7119C34.183 60.1414 33.2981 59.6899 32.5643 59.2433C31.8305 58.7967 30.9553 58.3452 30.2118 58.7747C29.1221 59.4044 29.0831 61.5032 27.9544 62.023C27.5911 62.189 27.1694 62.1524 26.8306 62.3818C26.4917 62.6112 26.3186 63.048 26.1675 63.4678C26.1134 63.7061 25.9833 63.9202 25.7969 64.0779C25.6792 64.1411 25.5477 64.1738 25.4142 64.1731C25.0826 64.2275 24.7423 64.179 24.4391 64.034C24.2812 63.9331 24.1617 63.782 24.0998 63.605C24.0379 63.428 24.0372 63.2353 24.0978 63.0578C24.1069 63.0383 24.1175 63.0195 24.1295 63.0017C24.2245 62.8357 24.3732 62.7186 24.4537 62.5331C24.5683 62.2329 24.4049 61.8815 24.4537 61.5569C24.5122 60.998 25.1021 60.7052 25.2021 60.156C25.2435 59.9413 25.2021 59.7119 25.2387 59.4971C25.2453 59.469 25.2535 59.4413 25.263 59.4141L24.9169 59.6582C25.3045 59.2042 25.4995 58.5746 25.7823 58.0255C26.098 57.4233 26.5323 56.8915 27.0589 56.4619C27.5856 56.0324 28.1937 55.7142 28.8466 55.5264C30.0826 55.1676 31.3868 55.2653 32.6325 55.5703C33.8186 55.8656 34.9546 56.3343 36.004 56.9614C36.3768 57.1629 36.7078 57.4337 36.9791 57.7595C37.2078 58.0972 37.4022 58.4569 37.5593 58.8333C37.9275 59.5972 38.9318 60.2976 38.1322 60.4074C37.4667 60.4977 38.0737 60.9638 38.4223 61.2787C38.5011 61.3399 38.5687 61.4142 38.6222 61.4983C38.6805 61.6179 38.7072 61.7504 38.7 61.8832C38.6927 62.016 38.6517 62.1448 38.5808 62.2573C38.4296 62.416 38.9757 62.4428 38.7904 62.5282Z" fill="#865A61"/>
<path opacity="0.1" d="M38.4053 61.2594L38.3297 62.0574C38.3297 62.0574 30.3824 51.9733 24.1904 63.3606C24.1904 63.3606 24.1611 63.2215 24.11 62.9872C24.205 62.8213 24.3537 62.7042 24.4342 62.5187C24.5488 62.2185 24.3854 61.8671 24.4342 61.5425C24.4927 60.9836 25.0826 60.6907 25.1826 60.1416C25.224 59.9269 25.1826 59.6975 25.2192 59.4827C25.2258 59.4546 25.234 59.4269 25.2435 59.3997L24.8974 59.6438C25.285 59.1898 25.48 58.5602 25.7628 58.0111C26.0785 57.4089 26.5128 56.877 27.0394 56.4475C27.5661 56.018 28.1742 55.6998 28.8271 55.512C30.0631 55.1532 31.3673 55.2509 32.613 55.5559C33.799 55.8512 34.9351 56.3199 35.9845 56.947C36.3573 57.1484 36.6883 57.4193 36.9596 57.745C37.1883 58.0827 37.3827 58.4425 37.5398 58.8189C37.908 59.5827 38.9123 60.2832 38.1127 60.393C37.4496 60.4784 38.0567 60.9519 38.4053 61.2594Z" fill="black"/>
<g opacity="0.1">
<path opacity="0.1" d="M38.6003 62.416C38.5614 62.4606 38.5332 62.5134 38.5175 62.5704C38.5019 62.6275 38.4994 62.6873 38.5101 62.7455C38.3175 62.9163 38.0469 62.7138 37.8909 62.5014C37.7349 62.2891 37.5496 62.0133 37.3107 62.0475C37.1961 62.0835 37.0851 62.1301 36.9791 62.1866C36.5988 62.3086 36.2795 61.862 36.0674 61.4715L34.9606 59.4191C34.2293 59.851 33.3444 59.3995 32.6106 58.9529C31.8768 58.5063 30.9992 58.0548 30.2581 58.4844C29.1684 59.114 29.1294 61.2128 28.0007 61.7302C27.635 61.8986 27.2133 61.862 26.8768 62.0914C26.5404 62.3208 26.3625 62.7577 26.2138 63.175C26.1587 63.4135 26.0289 63.6282 25.8432 63.7876C25.7256 63.8505 25.5939 63.8825 25.4605 63.8803C25.1291 63.9369 24.7884 63.8892 24.4854 63.7436C24.3021 63.6209 24.1702 63.435 24.1148 63.2214C24.0776 63.3914 24.0931 63.5688 24.1593 63.7297C24.2255 63.8906 24.3393 64.0275 24.4854 64.1219C24.7885 64.267 25.1289 64.3156 25.4605 64.261C25.5936 64.2608 25.7247 64.229 25.8432 64.1683C26.0283 64.0085 26.1581 63.794 26.2138 63.5557C26.3625 63.136 26.5429 62.6991 26.8768 62.4697C27.2108 62.2403 27.635 62.2769 28.0007 62.1109C29.1294 61.5936 29.1684 59.4947 30.2581 58.8651C30.9894 58.4331 31.8744 58.887 32.6106 59.3336C33.3468 59.7803 34.2195 60.2293 34.9606 59.7998L36.0674 61.8498C36.2795 62.2403 36.5988 62.6869 36.9791 62.5649C37.0857 62.5102 37.1966 62.4645 37.3107 62.4282C37.5545 62.3965 37.73 62.6723 37.8909 62.8797C38.0518 63.0871 38.3175 63.2995 38.5101 63.1238C38.4996 63.015 38.5258 62.9059 38.5846 62.8139C38.6434 62.7218 38.7313 62.6522 38.8343 62.6161C38.983 62.5576 38.6685 62.5209 38.6003 62.416Z" fill="black"/>
<path opacity="0.1" d="M37.9811 60.53C38.0389 60.5071 38.0996 60.4923 38.1615 60.4861C38.5125 60.4372 38.5149 60.2736 38.376 60.0415C38.3095 60.0769 38.2365 60.0985 38.1615 60.105C37.7812 60.1563 37.8153 60.3322 37.9811 60.53Z" fill="black"/>
<path opacity="0.1" d="M38.7078 62.1186C38.7346 61.9963 38.7346 61.8696 38.7078 61.7473C38.6907 61.8224 38.6583 61.893 38.6125 61.9549C38.549 62.0306 38.6223 62.0795 38.7078 62.1186Z" fill="black"/>
<path opacity="0.1" d="M24.4886 61.5715C24.4874 61.5935 24.4874 61.6155 24.4886 61.6375C24.4803 61.8085 24.4926 61.9799 24.5252 62.148C24.5433 61.9551 24.5309 61.7606 24.4886 61.5715Z" fill="black"/>
<path opacity="0.1" d="M25.2588 59.2588C25.1678 59.4276 25.0607 59.5871 24.9388 59.7351L25.2466 59.525C25.2432 59.4361 25.2473 59.347 25.2588 59.2588Z" fill="black"/>
</g>
<path d="M24.2001 63.1703C24.2001 63.1703 23.0568 58.0452 23.42 57.235C23.42 57.235 22.4449 55.2094 22.4449 54.7261C22.3952 53.9209 22.1437 53.1412 21.7136 52.4589C21.1943 51.6389 20.6239 47.8219 23.7394 46.9116C26.8549 46.0013 29.2464 45.174 29.6096 44.5468C29.9729 43.9195 35.3239 44.3027 36.7792 46.7188C38.2346 49.1349 39.1683 48.6468 39.1683 48.6468C39.1683 48.6468 41.4013 50.0477 41.4013 51.3021C41.4013 52.5565 40.726 53.1837 41.4013 53.4717C42.0766 53.7597 41.5573 58.9726 38.5954 59.1166L38.337 61.8671C38.337 61.8671 30.3824 51.7829 24.2001 63.1703Z" fill="#FF8822"/>
<path opacity="0.1" d="M24.5414 47.9072C24.5414 47.9072 23.854 51.9365 25.1094 53.2763L24.5414 47.9072Z" fill="black"/>
<path opacity="0.1" d="M27.7593 46.9822C27.7593 46.9822 26.009 51.297 26.4356 52.1268L27.7593 46.9822Z" fill="black"/>
<path opacity="0.1" d="M29.2757 45.6084C29.2757 45.6084 28.0909 51.2216 28.6589 51.6755L29.2757 45.6084Z" fill="black"/>
<path opacity="0.1" d="M31.3112 47.1238C31.3112 47.1238 29.8485 50.7284 30.436 51.2238L31.3112 47.1238Z" fill="black"/>
<path opacity="0.1" d="M34.0806 47.5508C34.0806 47.5508 32.3522 50.4794 32.7081 51.0114L34.0806 47.5508Z" fill="black"/>
<path opacity="0.1" d="M37.6325 50.4185C37.6325 50.4185 35.7846 50.9066 36.1698 51.5094L37.6325 50.4185Z" fill="black"/>
<path opacity="0.1" d="M39.3853 53.4766C39.3853 53.4766 37.7276 54.2819 38.0347 54.709L39.3853 53.4766Z" fill="black"/>
<path opacity="0.1" d="M23.42 57.235C23.42 57.235 34.005 52.9323 38.5881 59.1166C38.5881 59.1166 33.025 54.382 23.42 57.235Z" fill="black"/>
<path d="M19.5975 92.6003L21.0724 91.1067L25.2411 95.2336L23.7662 96.7272L19.9315 92.9322L19.5975 92.6003Z" fill="#53526B"/>
<path d="M9.9292 83.0264C9.9292 83.0264 16.3821 83.5755 22.3913 90.3479L19.8877 92.8836L9.9292 83.0264Z" fill="#DFE6F5"/>
<path d="M29.283 95.1312C29.283 95.1312 23.0787 92.8664 22.4693 92.3246C21.8598 91.7828 18.2714 94.9335 22.6472 99.2166C22.6472 99.2166 28.0104 100.742 29.4292 99.2166C30.848 97.6913 29.283 95.1312 29.283 95.1312Z" fill="#FDC2CC"/>
<path d="M210.437 124.74H209.176V153.157H210.437V124.74Z" fill="#535461"/>
<path d="M218.362 153.069L218.281 154.35L218.172 156.156L218.125 156.908L218.013 158.716L217.965 159.471L217.852 161.277L216.582 181.823C216.527 182.707 216.137 183.537 215.492 184.144C214.848 184.751 213.996 185.089 213.111 185.089H206.504C205.62 185.088 204.768 184.751 204.124 184.144C203.479 183.537 203.09 182.707 203.035 181.823L201.763 161.277L201.651 159.471L201.604 158.716L201.49 156.908L201.446 156.156L201.334 154.35L201.253 153.069C201.238 152.824 201.273 152.577 201.357 152.346C201.44 152.114 201.57 151.903 201.738 151.723C201.906 151.544 202.11 151.401 202.335 151.303C202.561 151.206 202.804 151.156 203.05 151.156H216.568C216.813 151.156 217.056 151.206 217.282 151.304C217.507 151.402 217.71 151.545 217.878 151.724C218.046 151.903 218.176 152.115 218.259 152.346C218.342 152.578 218.377 152.824 218.362 153.069Z" fill="#65617D"/>
<path d="M218.281 154.35L218.169 156.156H201.444L201.331 154.35H218.281Z" fill="#9D9CB5"/>
<path d="M218.123 156.908L218.011 158.716H201.602L201.49 156.908H218.123Z" fill="#9D9CB5"/>
<path d="M217.962 159.47L217.852 161.276H201.76L201.648 159.47H217.962Z" fill="#9D9CB5"/>
<path d="M199.405 135.387C206.748 140.705 209.805 149.023 209.805 149.023C209.805 149.023 200.958 148.72 193.616 143.409C186.273 138.099 183.216 129.774 183.216 129.774C183.216 129.774 192.063 130.072 199.405 135.387Z" fill="#FF8822"/>
<path d="M183.216 129.774C183.216 129.774 192.399 134.877 195.344 139.102C198.289 143.326 209.805 149.03 209.805 149.03" stroke="#535461" stroke-width="2" stroke-miterlimit="10"/>
<path d="M204.145 124.676C208.14 127.57 209.805 132.097 209.805 132.097C209.805 132.097 204.99 131.932 200.992 129.04C196.994 126.148 195.332 121.618 195.332 121.618C195.332 121.618 200.149 121.781 204.145 124.676Z" fill="#FF8822"/>
<path d="M195.332 121.618C195.332 121.618 200.322 124.405 201.933 126.694C203.545 128.983 209.805 132.097 209.805 132.097" stroke="#535461" stroke-width="2" stroke-miterlimit="10"/>
<path d="M215.612 131.868C211.022 136.918 210.051 143.519 210.051 143.519C210.051 143.519 216.524 141.928 221.114 136.879C225.705 131.829 226.675 125.228 226.675 125.228C226.675 125.228 220.202 126.816 215.612 131.868Z" fill="#FF8822"/>
<path d="M226.675 125.228C226.675 125.228 220.695 130.404 219.176 133.972C217.657 137.54 210.051 143.519 210.051 143.519" stroke="#535461" stroke-width="2" stroke-miterlimit="10"/>
</g>
<defs>
<linearGradient id="paint0_linear" x1="32.7593" y1="198.714" x2="32.7593" y2="43.6046" gradientUnits="userSpaceOnUse">
<stop stop-color="#808080" stop-opacity="0.25"/>
<stop offset="0.54" stop-color="#808080" stop-opacity="0.12"/>
<stop offset="1" stop-color="#808080" stop-opacity="0.1"/>
</linearGradient>
<clipPath id="clip0">
<rect width="230" height="200" fill="white"/>
</clipPath>
</defs>
</svg>
