<svg width="360" height="259" viewBox="0 0 360 259" fill="none" xmlns="http://www.w3.org/2000/svg">
<path fill-rule="evenodd" clip-rule="evenodd" d="M204.976 122.293C204.698 122.482 202.838 119.254 202.716 119.029C201.615 116.967 201.123 114.745 201.125 112.405C201.132 108.623 202.025 104.846 203.712 101.46C203.625 101.635 200.697 102.38 200.245 102.541C199.174 102.921 198.097 103.283 197.015 103.627C194.577 104.403 192.111 105.09 189.625 105.697C183.524 107.186 177.31 108.198 171.062 108.819C163.798 109.54 156.484 109.732 149.189 109.496C149.189 109.496 102.142 109.916 90.1167 98.5614C90.1167 98.5614 85.0525 91.6228 92.0156 86.7873C92.0156 86.7873 97.0787 84.8947 104.252 88.0483C104.252 88.0483 125.138 93.9364 156.784 93.9364C172.267 93.9364 187.752 92.5354 203.065 90.3197C204.735 90.0776 206.736 90.0576 208.334 89.5198C209.405 89.1587 209.634 88.3209 210.289 87.3651C211.042 86.2673 211.882 85.2284 212.798 84.2611C213.365 83.6643 213.964 83.0917 214.632 82.6064C216.917 80.9381 219.851 80.3939 222.686 80.3697C224.528 80.355 226.396 80.5465 228.12 81.197C229.843 81.8475 231.421 82.9885 232.359 84.5705C232.864 85.42 233.172 86.3736 233.374 87.3409C233.854 89.6555 233.706 92.1638 232.569 94.2395C230.589 97.8562 227.064 97.7362 223.481 98.2404C220.258 98.694 217.564 99.5835 214.592 100.857C214.055 101.088 213.512 101.321 213.044 101.671C212.384 102.164 211.912 102.859 211.452 103.541C209.307 106.723 206.699 110.296 206.135 114.184C205.906 115.762 205.939 117.454 206.403 118.995C206.568 119.536 207.354 120.461 207.179 121.042C207.017 121.578 205.544 121.903 204.976 122.293ZM205.52 14.1457C206.616 15.5488 205.52 18.1981 205.52 18.1981L183.937 33.4742H182.294L174.801 39.3202L174.474 40.3328C174.474 40.3328 175.491 43.2169 175.178 47.8935C174.865 52.569 171.268 55.1415 171.268 55.1415C171.268 55.1415 163.056 61.5328 161.258 62.8569C159.459 64.1821 157.348 62.8569 157.348 62.8569L144.053 45.5546C143.116 43.4505 144.914 41.9696 144.914 41.9696L156.331 33.2405L159.381 32.149C164.855 30.9806 170.251 34.8773 170.251 34.8773L171.424 34.7215L179.245 28.7197L179.792 27.2387C179.792 27.2387 196.527 13.2879 198.561 11.8069C200.594 10.3259 202.47 11.2616 202.47 11.2616C202.47 11.2616 204.425 12.7426 205.52 14.1457ZM153.647 27.4733C153.647 27.4733 143.992 23.2651 149.204 13.7951C154.416 4.32504 153.817 3.27352 153.647 0C153.647 0 162.509 3.15668 158.755 11.8078C155.002 20.459 152.526 22.2126 153.647 27.4733ZM167.565 27.4733C167.565 27.4733 157.91 23.2651 163.122 13.7951C168.334 4.32504 167.735 3.27352 167.565 0C167.565 0 176.427 3.15668 172.673 11.8078C168.92 20.459 166.444 22.2126 167.565 27.4733ZM237.114 47.2088C239.577 51.6296 235.823 52.1411 235.823 52.1411L227.965 52.6748C217.29 53.2095 198.693 64.2626 198.693 64.2626L198.702 64.2363C191.99 75.5663 178.072 83.3553 161.981 83.3553C143.141 83.3553 127.27 72.6812 122.471 58.1408H122.489C122.202 57.3272 122.049 56.4936 122.049 55.6462C122.049 49.8034 129.129 44.6594 139.87 41.6448V45.8762C131.725 48.254 126.502 51.9085 126.502 56.0115C126.502 63.1764 142.414 68.9855 162.042 68.9855C181.671 68.9855 197.583 63.1764 197.583 56.0115C197.583 51.1307 190.196 46.8814 179.284 44.6668V40.4859C191.702 43.0016 200.548 48.1445 201.772 54.201L201.774 54.1958C213.942 46.7804 227.731 44.4247 227.731 44.4247C227.731 44.4247 234.651 42.7879 237.114 47.2088ZM169.881 50.5396C170.595 49.9839 170.723 48.9481 170.165 48.2377L169.852 47.8377C169.295 47.1261 168.255 46.9988 167.542 47.5545L158.22 54.81C157.507 55.3657 157.379 56.4015 157.936 57.113L158.249 57.5119C158.807 58.2235 159.846 58.3508 160.56 57.7951L169.881 50.5396ZM156.617 52.329L167.812 43.6147C168.526 43.06 168.654 42.0232 168.096 41.3127L167.784 40.9128C167.226 40.2023 166.187 40.0749 165.473 40.6296L154.278 49.3439C153.564 49.8997 153.436 50.9354 153.994 51.6459L154.307 52.0459C154.864 52.7574 155.903 52.8848 156.617 52.329ZM149.864 46.5798C150.421 47.2903 151.46 47.4177 152.174 46.863L161.496 39.6076C162.209 39.0518 162.337 38.0161 161.78 37.3045L161.467 36.9045C160.909 36.1941 159.87 36.0667 159.156 36.6214L149.835 43.8779C149.121 44.4326 148.993 45.4694 149.551 46.1799L149.864 46.5798Z" fill="white"/>
<path fill-rule="evenodd" clip-rule="evenodd" d="M168.991 227.423C173.579 244.274 183.79 237.547 183.79 237.547C185.931 236.605 192.439 237.757 185.336 244.907C178.232 252.056 166.911 246.377 166.911 246.377C160.266 243.444 156.311 234.209 153.972 224.937L125.982 220.305C125.982 220.305 124.096 219.804 121.073 219.106C120.853 223.429 120.471 227.703 119.864 231.66C116.7 252.265 99.3993 256.47 99.3993 256.47C79.9896 262.777 66.487 248.271 66.487 248.271C66.487 248.271 54.2506 236.917 61.6351 218.202C69.0185 199.488 85.8966 199.91 91.8046 200.121C94.0711 200.2 99.977 201.087 107.226 202.278C107.214 201.834 107.205 201.591 107.205 201.591L104.674 143.558C104.674 143.558 113.746 134.518 120.708 134.096C129.15 133.586 138.084 141.705 140.848 149.187C144.001 157.724 144.23 168.068 142.947 177.031C142.813 177.972 142.671 178.912 142.438 179.833C139.538 191.296 130.518 191.296 126.374 188.422C124.742 187.291 120.178 182.846 120.075 181.827C120.077 181.849 121.107 192.058 121.297 204.654C129.36 206.036 137.387 207.42 143.071 208.306C145.313 208.654 148.084 208.987 151.244 209.304C150.777 205.056 150.666 202.221 150.666 202.221L146.501 143.559C146.501 143.559 155.572 134.516 162.534 134.095C167.669 133.786 172.564 137.327 176.166 140.589C181.549 145.464 184.094 151.879 184.862 158.959C185.076 160.933 185.243 162.953 185.339 164.99C186.169 165.451 187.29 165.868 188.569 165.795C188.569 165.795 193.653 136.461 208.051 131.415C208.051 131.415 219.286 129.524 220.236 142.927C221.185 156.331 210.584 172.418 202.038 178.41C202.038 178.41 198.242 186.609 209.317 184.717C209.317 184.717 216.615 185.41 223.413 169.552C223.367 168.766 223.34 167.965 223.34 167.145C223.346 146.539 225.45 109.743 225.45 109.743C225.45 109.743 226.505 102.56 231.146 100.79C235.787 99.0202 241.484 100.28 240.85 104.486C240.218 108.692 240.007 122.147 240.007 122.147L260.05 116.472C260.05 116.472 264.269 116.472 261.315 120.888C258.362 125.302 239.585 134.134 239.585 134.134L237.054 160.174C236.294 166.694 234.507 180.405 241.52 184.2C244.297 185.702 247.763 185.187 250.683 183.985C251.625 183.597 252.565 183.135 253.581 183.056C254.597 182.978 255.737 183.392 256.155 184.318C256.348 184.747 256.367 185.233 256.323 185.7C256.042 188.641 253.469 190.823 250.872 192.245C248.042 193.793 244.904 194.857 241.679 195.021C237.906 195.212 233.649 194.17 231.146 191.182C231.137 191.17 228.277 187.746 226.021 181.787C224.651 183.374 222.708 184.757 221.338 185.683C217.106 188.544 212.08 190.159 206.944 189.896C195.076 189.291 189.381 179.834 189.381 179.834C189.381 179.834 186.589 179.905 184.517 178.649C184.439 179.046 184.356 179.44 184.265 179.834C183.507 183.122 181.065 186.059 178.309 187.96C175.024 190.228 170.868 189.924 167.151 187.492C165.555 186.447 162.206 183.863 161.901 181.826C161.902 181.831 163.705 193.872 166.162 210.516C182.832 211.649 202.916 212.473 215.857 212.945C250.457 214.208 266.914 202.012 266.914 202.012C266.914 202.012 272.609 200.962 260.162 217.781C247.715 234.602 234.424 235.023 225.765 234.895C218.097 234.778 178.072 228.926 178.072 228.926L168.991 227.423ZM128.725 150.286C126.405 147.133 119.864 147.342 119.864 147.342C119.864 147.342 121.871 159.615 124.716 166.687C127.511 173.636 130.624 175.728 131.679 171.524C132.733 167.319 131.045 153.44 128.725 150.286ZM173.505 171.524C174.445 167.292 172.872 153.44 170.551 150.286C168.231 147.134 161.69 147.342 161.69 147.342C161.69 147.342 163.602 159.655 166.543 166.686C169.981 174.908 172.352 176.715 173.505 171.524ZM211.216 142.927C207.26 145.294 202.355 163.902 202.355 163.902C202.355 163.902 205 161.178 207.103 159.012C209.204 156.849 212.956 148.763 212.956 148.763C212.956 148.763 215.172 140.561 211.216 142.927Z" fill="white"/>
<path fill-rule="evenodd" clip-rule="evenodd" d="M88.9622 130.293C88.9622 130.293 106.149 137.28 102.53 158.915C99.344 177.968 89.6413 190.691 77.4303 193.396C65.2193 196.102 55.4955 182.353 55.2694 167.479C55.1427 159.121 55.1586 147.418 55.1966 138.769C46.2215 141.215 37.4208 146.087 31.7272 152.236C31.5518 152.425 31.3702 152.624 31.1304 152.724C30.5147 152.973 29.8398 152.445 29.5505 151.849C28.8503 150.402 29.4744 148.686 30.182 147.242C33.1044 141.284 38.7156 137.14 44.6479 134.353C47.9536 132.8 51.5656 131.426 55.2452 130.278C55.2589 128.304 55.2694 127.14 55.2694 127.14C55.2694 127.14 55.9485 111.138 50.2951 101.446C48.0444 97.5898 43.2844 95.1362 37.632 98.0666C30.5221 101.751 25.647 116.095 23.8378 129.392C22.2441 141.11 23.3858 160.718 23.3858 160.718C23.3858 160.718 23.8378 171.986 26.325 181.001C28.0043 187.085 29.1386 194.385 26.8024 200.45C24.2339 207.119 16.56 209.959 9.86307 208.719C7.35264 208.255 4.88234 207.122 3.2749 205.144C1.62522 203.116 1.05068 200.448 0.525786 197.887C-0.0138987 195.252 -0.0994456 192.899 0.0948831 190.204C0.0948831 190.204 -1.94029 179.65 21.1257 110.99C23.4692 104.013 27.548 95.1499 33.2184 90.3133C38.2403 86.0283 45.6322 85.7199 51.6342 87.9134C58.2594 90.3333 63.1598 97.6993 65.0693 104.284C67.1932 111.608 68.7753 119.421 70.4207 126.914C70.4324 126.966 70.4419 127.02 70.4545 127.075C80.8839 126.446 88.9622 130.293 88.9622 130.293ZM93.887 165.121C96.3742 160.275 95.2948 154.292 92.8066 149.676C88.2641 141.245 78.1918 138.44 72.4285 137.512C73.1213 141.691 73.7317 145.883 74.3496 150.086C75.204 155.896 75.5029 163.807 80.078 167.926C85.0957 172.443 90.9108 170.921 93.887 165.121Z" fill="white"/>
<path fill-rule="evenodd" clip-rule="evenodd" d="M353.667 146.919C353.667 146.919 360.206 145.444 359.995 161.897C359.785 178.35 350.712 187.525 342.694 192.504C336.701 196.238 329.982 199.558 323.069 200.828C320.736 201.259 318.396 201.687 316.025 201.783C306.174 202.177 298.32 198.327 292.935 192.119C290.717 189.561 288.925 186.598 287.58 183.371C283.547 187.697 276.238 191.388 276.238 191.388C276.238 191.388 262.23 196.544 259.36 184.699C256.196 171.631 254.931 162.791 254.931 162.791L253.663 151.196C253.663 151.196 253.976 142.979 257.04 138.4C260.414 133.354 265.268 131.04 265.268 131.04C265.268 131.04 269.698 128.728 270.543 133.563C271.386 138.4 267.495 167.416 270.916 174.986C274.34 182.555 278.612 181.925 278.612 181.925C278.612 181.925 281.319 182.658 285.757 177.748C285.047 174.768 284.677 171.65 284.678 168.467C284.683 147.859 286.788 111.065 286.788 111.065C286.788 111.065 287.842 103.883 292.483 102.112C297.125 100.342 302.82 101.604 302.189 105.809C301.555 110.014 301.345 123.471 301.345 123.471L321.387 117.793C321.387 117.793 325.607 117.793 322.653 122.209C319.699 126.625 300.923 135.456 300.923 135.456L298.39 161.495C297.486 169.277 295.718 182.73 304.188 187.043C307.156 188.552 310.741 188.251 313.938 187.313C323.024 184.648 331.064 180.129 335.733 171.631C344.173 156.273 346.282 147.449 353.667 146.919Z" fill="white"/>
<path fill-rule="evenodd" clip-rule="evenodd" d="M269.079 117.232C272.187 113.808 276.484 111.741 278.377 113.457C280.272 115.172 279.583 119.979 278.377 122.552C277.172 125.127 269.079 126.328 269.079 126.328C269.079 126.328 265.635 127.358 264.946 124.269C264.258 121.18 269.079 117.232 269.079 117.232Z" fill="white"/>
<path fill-rule="evenodd" clip-rule="evenodd" d="M104.674 237.336C106.414 233.132 107.049 224.232 107.247 216.365C98.172 214.894 88.0258 213.991 82.31 215.889C70.2848 219.884 72.1838 232.079 72.1838 232.079C74.5442 255.976 99.0814 250.846 104.674 237.336Z" fill="white"/>
</svg>

